%TF.GenerationSoftware,KiCad,Pcbnew,(5.1.10)-1*%
%TF.CreationDate,2021-09-01T14:56:24+02:00*%
%TF.ProjectId,Souvenir tesi,536f7576-656e-4697-9220-746573692e6b,rev?*%
%TF.SameCoordinates,Original*%
%TF.FileFunction,Legend,Bot*%
%TF.FilePolarity,Positive*%
%FSLAX46Y46*%
G04 Gerber Fmt 4.6, Leading zero omitted, Abs format (unit mm)*
G04 Created by KiCad (PCBNEW (5.1.10)-1) date 2021-09-01 14:56:24*
%MOMM*%
%LPD*%
G01*
G04 APERTURE LIST*
%ADD10C,0.150000*%
%ADD11C,0.200000*%
%ADD12C,0.010000*%
G04 APERTURE END LIST*
D10*
X160313619Y-119981142D02*
X159599333Y-119981142D01*
X159456476Y-120024000D01*
X159361238Y-120109714D01*
X159313619Y-120238285D01*
X159313619Y-120324000D01*
X159313619Y-119124000D02*
X159313619Y-119552571D01*
X160313619Y-119552571D01*
X159408857Y-118309714D02*
X159361238Y-118352571D01*
X159313619Y-118481142D01*
X159313619Y-118566857D01*
X159361238Y-118695428D01*
X159456476Y-118781142D01*
X159551714Y-118824000D01*
X159742190Y-118866857D01*
X159885047Y-118866857D01*
X160075523Y-118824000D01*
X160170761Y-118781142D01*
X160266000Y-118695428D01*
X160313619Y-118566857D01*
X160313619Y-118481142D01*
X160266000Y-118352571D01*
X160218380Y-118309714D01*
X160313619Y-117666857D02*
X159599333Y-117666857D01*
X159456476Y-117709714D01*
X159361238Y-117795428D01*
X159313619Y-117924000D01*
X159313619Y-118009714D01*
X159313619Y-116809714D02*
X159313619Y-117238285D01*
X160313619Y-117238285D01*
X159408857Y-115995428D02*
X159361238Y-116038285D01*
X159313619Y-116166857D01*
X159313619Y-116252571D01*
X159361238Y-116381142D01*
X159456476Y-116466857D01*
X159551714Y-116509714D01*
X159742190Y-116552571D01*
X159885047Y-116552571D01*
X160075523Y-116509714D01*
X160170761Y-116466857D01*
X160266000Y-116381142D01*
X160313619Y-116252571D01*
X160313619Y-116166857D01*
X160266000Y-116038285D01*
X160218380Y-115995428D01*
X160313619Y-115352571D02*
X159599333Y-115352571D01*
X159456476Y-115395428D01*
X159361238Y-115481142D01*
X159313619Y-115609714D01*
X159313619Y-115695428D01*
X159313619Y-114495428D02*
X159313619Y-114924000D01*
X160313619Y-114924000D01*
X159408857Y-113681142D02*
X159361238Y-113724000D01*
X159313619Y-113852571D01*
X159313619Y-113938285D01*
X159361238Y-114066857D01*
X159456476Y-114152571D01*
X159551714Y-114195428D01*
X159742190Y-114238285D01*
X159885047Y-114238285D01*
X160075523Y-114195428D01*
X160170761Y-114152571D01*
X160266000Y-114066857D01*
X160313619Y-113938285D01*
X160313619Y-113852571D01*
X160266000Y-113724000D01*
X160218380Y-113681142D01*
X160313619Y-113038285D02*
X159599333Y-113038285D01*
X159456476Y-113081142D01*
X159361238Y-113166857D01*
X159313619Y-113295428D01*
X159313619Y-113381142D01*
X159313619Y-112181142D02*
X159313619Y-112609714D01*
X160313619Y-112609714D01*
X159408857Y-111366857D02*
X159361238Y-111409714D01*
X159313619Y-111538285D01*
X159313619Y-111624000D01*
X159361238Y-111752571D01*
X159456476Y-111838285D01*
X159551714Y-111881142D01*
X159742190Y-111924000D01*
X159885047Y-111924000D01*
X160075523Y-111881142D01*
X160170761Y-111838285D01*
X160266000Y-111752571D01*
X160313619Y-111624000D01*
X160313619Y-111538285D01*
X160266000Y-111409714D01*
X160218380Y-111366857D01*
X155304047Y-108847380D02*
X155304047Y-107847380D01*
X155065952Y-107847380D01*
X154923095Y-107895000D01*
X154827857Y-107990238D01*
X154780238Y-108085476D01*
X154732619Y-108275952D01*
X154732619Y-108418809D01*
X154780238Y-108609285D01*
X154827857Y-108704523D01*
X154923095Y-108799761D01*
X155065952Y-108847380D01*
X155304047Y-108847380D01*
X154304047Y-108847380D02*
X154304047Y-107847380D01*
X153637380Y-108371190D02*
X153637380Y-108847380D01*
X153970714Y-107847380D02*
X153637380Y-108371190D01*
X153304047Y-107847380D01*
X152351666Y-107847380D02*
X151780238Y-107847380D01*
X152065952Y-108847380D02*
X152065952Y-107847380D01*
X151446904Y-108847380D02*
X151446904Y-107847380D01*
X151446904Y-108323571D02*
X150875476Y-108323571D01*
X150875476Y-108847380D02*
X150875476Y-107847380D01*
X150542142Y-107847380D02*
X149970714Y-107847380D01*
X150256428Y-108847380D02*
X150256428Y-107847380D01*
X148542142Y-108323571D02*
X148399285Y-108371190D01*
X148351666Y-108418809D01*
X148304047Y-108514047D01*
X148304047Y-108656904D01*
X148351666Y-108752142D01*
X148399285Y-108799761D01*
X148494523Y-108847380D01*
X148875476Y-108847380D01*
X148875476Y-107847380D01*
X148542142Y-107847380D01*
X148446904Y-107895000D01*
X148399285Y-107942619D01*
X148351666Y-108037857D01*
X148351666Y-108133095D01*
X148399285Y-108228333D01*
X148446904Y-108275952D01*
X148542142Y-108323571D01*
X148875476Y-108323571D01*
X147446904Y-108180714D02*
X147446904Y-108847380D01*
X147875476Y-108180714D02*
X147875476Y-108704523D01*
X147827857Y-108799761D01*
X147732619Y-108847380D01*
X147589761Y-108847380D01*
X147494523Y-108799761D01*
X147446904Y-108752142D01*
X146542142Y-108799761D02*
X146637380Y-108847380D01*
X146827857Y-108847380D01*
X146923095Y-108799761D01*
X146970714Y-108752142D01*
X147018333Y-108656904D01*
X147018333Y-108371190D01*
X146970714Y-108275952D01*
X146923095Y-108228333D01*
X146827857Y-108180714D01*
X146637380Y-108180714D01*
X146542142Y-108228333D01*
X146113571Y-108847380D02*
X146113571Y-107847380D01*
X146018333Y-108466428D02*
X145732619Y-108847380D01*
X145732619Y-108180714D02*
X146113571Y-108561666D01*
X144113571Y-108799761D02*
X144208809Y-108847380D01*
X144399285Y-108847380D01*
X144494523Y-108799761D01*
X144542142Y-108752142D01*
X144589761Y-108656904D01*
X144589761Y-108371190D01*
X144542142Y-108275952D01*
X144494523Y-108228333D01*
X144399285Y-108180714D01*
X144208809Y-108180714D01*
X144113571Y-108228333D01*
X143542142Y-108847380D02*
X143637380Y-108799761D01*
X143685000Y-108752142D01*
X143732619Y-108656904D01*
X143732619Y-108371190D01*
X143685000Y-108275952D01*
X143637380Y-108228333D01*
X143542142Y-108180714D01*
X143399285Y-108180714D01*
X143304047Y-108228333D01*
X143256428Y-108275952D01*
X143208809Y-108371190D01*
X143208809Y-108656904D01*
X143256428Y-108752142D01*
X143304047Y-108799761D01*
X143399285Y-108847380D01*
X143542142Y-108847380D01*
X142780238Y-108180714D02*
X142780238Y-108847380D01*
X142780238Y-108275952D02*
X142732619Y-108228333D01*
X142637380Y-108180714D01*
X142494523Y-108180714D01*
X142399285Y-108228333D01*
X142351666Y-108323571D01*
X142351666Y-108847380D01*
X141970714Y-108180714D02*
X141732619Y-108847380D01*
X141494523Y-108180714D01*
X140732619Y-108799761D02*
X140827857Y-108847380D01*
X141018333Y-108847380D01*
X141113571Y-108799761D01*
X141161190Y-108704523D01*
X141161190Y-108323571D01*
X141113571Y-108228333D01*
X141018333Y-108180714D01*
X140827857Y-108180714D01*
X140732619Y-108228333D01*
X140685000Y-108323571D01*
X140685000Y-108418809D01*
X141161190Y-108514047D01*
X140256428Y-108847380D02*
X140256428Y-108180714D01*
X140256428Y-108371190D02*
X140208809Y-108275952D01*
X140161190Y-108228333D01*
X140065952Y-108180714D01*
X139970714Y-108180714D01*
X139780238Y-108180714D02*
X139399285Y-108180714D01*
X139637380Y-107847380D02*
X139637380Y-108704523D01*
X139589761Y-108799761D01*
X139494523Y-108847380D01*
X139399285Y-108847380D01*
X138685000Y-108799761D02*
X138780238Y-108847380D01*
X138970714Y-108847380D01*
X139065952Y-108799761D01*
X139113571Y-108704523D01*
X139113571Y-108323571D01*
X139065952Y-108228333D01*
X138970714Y-108180714D01*
X138780238Y-108180714D01*
X138685000Y-108228333D01*
X138637380Y-108323571D01*
X138637380Y-108418809D01*
X139113571Y-108514047D01*
X138208809Y-108847380D02*
X138208809Y-108180714D01*
X138208809Y-108371190D02*
X138161190Y-108275952D01*
X138113571Y-108228333D01*
X138018333Y-108180714D01*
X137923095Y-108180714D01*
X152708809Y-109973571D02*
X152565952Y-110021190D01*
X152518333Y-110068809D01*
X152470714Y-110164047D01*
X152470714Y-110306904D01*
X152518333Y-110402142D01*
X152565952Y-110449761D01*
X152661190Y-110497380D01*
X153042142Y-110497380D01*
X153042142Y-109497380D01*
X152708809Y-109497380D01*
X152613571Y-109545000D01*
X152565952Y-109592619D01*
X152518333Y-109687857D01*
X152518333Y-109783095D01*
X152565952Y-109878333D01*
X152613571Y-109925952D01*
X152708809Y-109973571D01*
X153042142Y-109973571D01*
X152137380Y-109830714D02*
X151899285Y-110497380D01*
X151661190Y-109830714D02*
X151899285Y-110497380D01*
X151994523Y-110735476D01*
X152042142Y-110783095D01*
X152137380Y-110830714D01*
X150518333Y-110497380D02*
X150518333Y-109497380D01*
X150280238Y-109497380D01*
X150137380Y-109545000D01*
X150042142Y-109640238D01*
X149994523Y-109735476D01*
X149946904Y-109925952D01*
X149946904Y-110068809D01*
X149994523Y-110259285D01*
X150042142Y-110354523D01*
X150137380Y-110449761D01*
X150280238Y-110497380D01*
X150518333Y-110497380D01*
X149089761Y-110497380D02*
X149089761Y-109973571D01*
X149137380Y-109878333D01*
X149232619Y-109830714D01*
X149423095Y-109830714D01*
X149518333Y-109878333D01*
X149089761Y-110449761D02*
X149185000Y-110497380D01*
X149423095Y-110497380D01*
X149518333Y-110449761D01*
X149565952Y-110354523D01*
X149565952Y-110259285D01*
X149518333Y-110164047D01*
X149423095Y-110116428D01*
X149185000Y-110116428D01*
X149089761Y-110068809D01*
X148708809Y-109830714D02*
X148470714Y-110497380D01*
X148232619Y-109830714D01*
X147851666Y-110497380D02*
X147851666Y-109830714D01*
X147851666Y-109497380D02*
X147899285Y-109545000D01*
X147851666Y-109592619D01*
X147804047Y-109545000D01*
X147851666Y-109497380D01*
X147851666Y-109592619D01*
X146946904Y-110497380D02*
X146946904Y-109497380D01*
X146946904Y-110449761D02*
X147042142Y-110497380D01*
X147232619Y-110497380D01*
X147327857Y-110449761D01*
X147375476Y-110402142D01*
X147423095Y-110306904D01*
X147423095Y-110021190D01*
X147375476Y-109925952D01*
X147327857Y-109878333D01*
X147232619Y-109830714D01*
X147042142Y-109830714D01*
X146946904Y-109878333D01*
X146089761Y-110449761D02*
X146185000Y-110497380D01*
X146375476Y-110497380D01*
X146470714Y-110449761D01*
X146518333Y-110354523D01*
X146518333Y-109973571D01*
X146470714Y-109878333D01*
X146375476Y-109830714D01*
X146185000Y-109830714D01*
X146089761Y-109878333D01*
X146042142Y-109973571D01*
X146042142Y-110068809D01*
X146518333Y-110164047D01*
X144899285Y-110449761D02*
X144756428Y-110497380D01*
X144518333Y-110497380D01*
X144423095Y-110449761D01*
X144375476Y-110402142D01*
X144327857Y-110306904D01*
X144327857Y-110211666D01*
X144375476Y-110116428D01*
X144423095Y-110068809D01*
X144518333Y-110021190D01*
X144708809Y-109973571D01*
X144804047Y-109925952D01*
X144851666Y-109878333D01*
X144899285Y-109783095D01*
X144899285Y-109687857D01*
X144851666Y-109592619D01*
X144804047Y-109545000D01*
X144708809Y-109497380D01*
X144470714Y-109497380D01*
X144327857Y-109545000D01*
X143470714Y-110449761D02*
X143565952Y-110497380D01*
X143756428Y-110497380D01*
X143851666Y-110449761D01*
X143899285Y-110402142D01*
X143946904Y-110306904D01*
X143946904Y-110021190D01*
X143899285Y-109925952D01*
X143851666Y-109878333D01*
X143756428Y-109830714D01*
X143565952Y-109830714D01*
X143470714Y-109878333D01*
X142613571Y-110497380D02*
X142613571Y-109973571D01*
X142661190Y-109878333D01*
X142756428Y-109830714D01*
X142946904Y-109830714D01*
X143042142Y-109878333D01*
X142613571Y-110449761D02*
X142708809Y-110497380D01*
X142946904Y-110497380D01*
X143042142Y-110449761D01*
X143089761Y-110354523D01*
X143089761Y-110259285D01*
X143042142Y-110164047D01*
X142946904Y-110116428D01*
X142708809Y-110116428D01*
X142613571Y-110068809D01*
X141994523Y-110497380D02*
X142089761Y-110449761D01*
X142137380Y-110354523D01*
X142137380Y-109497380D01*
X141613571Y-110497380D02*
X141613571Y-109830714D01*
X141613571Y-109497380D02*
X141661190Y-109545000D01*
X141613571Y-109592619D01*
X141565952Y-109545000D01*
X141613571Y-109497380D01*
X141613571Y-109592619D01*
X141185000Y-110449761D02*
X141089761Y-110497380D01*
X140899285Y-110497380D01*
X140804047Y-110449761D01*
X140756428Y-110354523D01*
X140756428Y-110306904D01*
X140804047Y-110211666D01*
X140899285Y-110164047D01*
X141042142Y-110164047D01*
X141137380Y-110116428D01*
X141185000Y-110021190D01*
X141185000Y-109973571D01*
X141137380Y-109878333D01*
X141042142Y-109830714D01*
X140899285Y-109830714D01*
X140804047Y-109878333D01*
X140327857Y-110497380D02*
X140327857Y-109830714D01*
X140327857Y-109497380D02*
X140375476Y-109545000D01*
X140327857Y-109592619D01*
X140280238Y-109545000D01*
X140327857Y-109497380D01*
X140327857Y-109592619D01*
X132931833Y-110176666D02*
X132698500Y-110876666D01*
X132465166Y-110176666D01*
X132231833Y-110876666D02*
X132231833Y-110410000D01*
X132231833Y-110176666D02*
X132265166Y-110210000D01*
X132231833Y-110243333D01*
X132198500Y-110210000D01*
X132231833Y-110176666D01*
X132231833Y-110243333D01*
X131898500Y-110410000D02*
X131898500Y-110876666D01*
X131898500Y-110476666D02*
X131865166Y-110443333D01*
X131798500Y-110410000D01*
X131698500Y-110410000D01*
X131631833Y-110443333D01*
X131598500Y-110510000D01*
X131598500Y-110876666D01*
X130731833Y-110876666D02*
X130731833Y-110410000D01*
X130731833Y-110476666D02*
X130698500Y-110443333D01*
X130631833Y-110410000D01*
X130531833Y-110410000D01*
X130465166Y-110443333D01*
X130431833Y-110510000D01*
X130431833Y-110876666D01*
X130431833Y-110510000D02*
X130398500Y-110443333D01*
X130331833Y-110410000D01*
X130231833Y-110410000D01*
X130165166Y-110443333D01*
X130131833Y-110510000D01*
X130131833Y-110876666D01*
X129798500Y-110876666D02*
X129798500Y-110410000D01*
X129798500Y-110176666D02*
X129831833Y-110210000D01*
X129798500Y-110243333D01*
X129765166Y-110210000D01*
X129798500Y-110176666D01*
X129798500Y-110243333D01*
X129465166Y-110410000D02*
X129465166Y-110876666D01*
X129465166Y-110476666D02*
X129431833Y-110443333D01*
X129365166Y-110410000D01*
X129265166Y-110410000D01*
X129198500Y-110443333D01*
X129165166Y-110510000D01*
X129165166Y-110876666D01*
X128831833Y-110810000D02*
X128798500Y-110843333D01*
X128831833Y-110876666D01*
X128865166Y-110843333D01*
X128831833Y-110810000D01*
X128831833Y-110876666D01*
X128831833Y-110443333D02*
X128798500Y-110476666D01*
X128831833Y-110510000D01*
X128865166Y-110476666D01*
X128831833Y-110443333D01*
X128831833Y-110510000D01*
X127665166Y-110410000D02*
X127665166Y-110876666D01*
X127831833Y-110143333D02*
X127998500Y-110643333D01*
X127565166Y-110643333D01*
X127298500Y-110810000D02*
X127265166Y-110843333D01*
X127298500Y-110876666D01*
X127331833Y-110843333D01*
X127298500Y-110810000D01*
X127298500Y-110876666D01*
X126631833Y-110176666D02*
X126965166Y-110176666D01*
X126998500Y-110510000D01*
X126965166Y-110476666D01*
X126898500Y-110443333D01*
X126731833Y-110443333D01*
X126665166Y-110476666D01*
X126631833Y-110510000D01*
X126598500Y-110576666D01*
X126598500Y-110743333D01*
X126631833Y-110810000D01*
X126665166Y-110843333D01*
X126731833Y-110876666D01*
X126898500Y-110876666D01*
X126965166Y-110843333D01*
X126998500Y-110810000D01*
X126398500Y-110176666D02*
X126165166Y-110876666D01*
X125931833Y-110176666D01*
X132931833Y-111376666D02*
X132698500Y-112076666D01*
X132465166Y-111376666D01*
X132231833Y-112076666D02*
X132231833Y-111610000D01*
X132231833Y-111376666D02*
X132265166Y-111410000D01*
X132231833Y-111443333D01*
X132198500Y-111410000D01*
X132231833Y-111376666D01*
X132231833Y-111443333D01*
X131898500Y-111610000D02*
X131898500Y-112076666D01*
X131898500Y-111676666D02*
X131865166Y-111643333D01*
X131798500Y-111610000D01*
X131698500Y-111610000D01*
X131631833Y-111643333D01*
X131598500Y-111710000D01*
X131598500Y-112076666D01*
X130731833Y-112076666D02*
X130731833Y-111610000D01*
X130731833Y-111676666D02*
X130698500Y-111643333D01*
X130631833Y-111610000D01*
X130531833Y-111610000D01*
X130465166Y-111643333D01*
X130431833Y-111710000D01*
X130431833Y-112076666D01*
X130431833Y-111710000D02*
X130398500Y-111643333D01*
X130331833Y-111610000D01*
X130231833Y-111610000D01*
X130165166Y-111643333D01*
X130131833Y-111710000D01*
X130131833Y-112076666D01*
X129498500Y-112076666D02*
X129498500Y-111710000D01*
X129531833Y-111643333D01*
X129598500Y-111610000D01*
X129731833Y-111610000D01*
X129798500Y-111643333D01*
X129498500Y-112043333D02*
X129565166Y-112076666D01*
X129731833Y-112076666D01*
X129798500Y-112043333D01*
X129831833Y-111976666D01*
X129831833Y-111910000D01*
X129798500Y-111843333D01*
X129731833Y-111810000D01*
X129565166Y-111810000D01*
X129498500Y-111776666D01*
X129231833Y-112076666D02*
X128865166Y-111610000D01*
X129231833Y-111610000D02*
X128865166Y-112076666D01*
X128598500Y-112010000D02*
X128565166Y-112043333D01*
X128598500Y-112076666D01*
X128631833Y-112043333D01*
X128598500Y-112010000D01*
X128598500Y-112076666D01*
X128598500Y-111643333D02*
X128565166Y-111676666D01*
X128598500Y-111710000D01*
X128631833Y-111676666D01*
X128598500Y-111643333D01*
X128598500Y-111710000D01*
X127431833Y-111610000D02*
X127431833Y-112076666D01*
X127598500Y-111343333D02*
X127765166Y-111843333D01*
X127331833Y-111843333D01*
X126931833Y-111376666D02*
X126865166Y-111376666D01*
X126798500Y-111410000D01*
X126765166Y-111443333D01*
X126731833Y-111510000D01*
X126698500Y-111643333D01*
X126698500Y-111810000D01*
X126731833Y-111943333D01*
X126765166Y-112010000D01*
X126798500Y-112043333D01*
X126865166Y-112076666D01*
X126931833Y-112076666D01*
X126998500Y-112043333D01*
X127031833Y-112010000D01*
X127065166Y-111943333D01*
X127098500Y-111810000D01*
X127098500Y-111643333D01*
X127065166Y-111510000D01*
X127031833Y-111443333D01*
X126998500Y-111410000D01*
X126931833Y-111376666D01*
X126498500Y-111376666D02*
X126265166Y-112076666D01*
X126031833Y-111376666D01*
X132831833Y-113276666D02*
X132831833Y-112576666D01*
X132498500Y-113276666D02*
X132498500Y-112810000D01*
X132498500Y-112876666D02*
X132465166Y-112843333D01*
X132398500Y-112810000D01*
X132298500Y-112810000D01*
X132231833Y-112843333D01*
X132198500Y-112910000D01*
X132198500Y-113276666D01*
X132198500Y-112910000D02*
X132165166Y-112843333D01*
X132098500Y-112810000D01*
X131998500Y-112810000D01*
X131931833Y-112843333D01*
X131898500Y-112910000D01*
X131898500Y-113276666D01*
X131265166Y-113276666D02*
X131265166Y-112910000D01*
X131298500Y-112843333D01*
X131365166Y-112810000D01*
X131498500Y-112810000D01*
X131565166Y-112843333D01*
X131265166Y-113243333D02*
X131331833Y-113276666D01*
X131498500Y-113276666D01*
X131565166Y-113243333D01*
X131598500Y-113176666D01*
X131598500Y-113110000D01*
X131565166Y-113043333D01*
X131498500Y-113010000D01*
X131331833Y-113010000D01*
X131265166Y-112976666D01*
X130998500Y-113276666D02*
X130631833Y-112810000D01*
X130998500Y-112810000D02*
X130631833Y-113276666D01*
X130365166Y-113210000D02*
X130331833Y-113243333D01*
X130365166Y-113276666D01*
X130398500Y-113243333D01*
X130365166Y-113210000D01*
X130365166Y-113276666D01*
X130365166Y-112843333D02*
X130331833Y-112876666D01*
X130365166Y-112910000D01*
X130398500Y-112876666D01*
X130365166Y-112843333D01*
X130365166Y-112910000D01*
X129565166Y-112576666D02*
X129131833Y-112576666D01*
X129365166Y-112843333D01*
X129265166Y-112843333D01*
X129198500Y-112876666D01*
X129165166Y-112910000D01*
X129131833Y-112976666D01*
X129131833Y-113143333D01*
X129165166Y-113210000D01*
X129198500Y-113243333D01*
X129265166Y-113276666D01*
X129465166Y-113276666D01*
X129531833Y-113243333D01*
X129565166Y-113210000D01*
X128865166Y-113076666D02*
X128531833Y-113076666D01*
X128931833Y-113276666D02*
X128698500Y-112576666D01*
X128465166Y-113276666D01*
D11*
X133070952Y-108751666D02*
X132594761Y-108751666D01*
X133166190Y-109037380D02*
X132832857Y-108037380D01*
X132499523Y-109037380D01*
X132166190Y-109037380D02*
X132166190Y-108037380D01*
X132166190Y-108418333D02*
X132070952Y-108370714D01*
X131880476Y-108370714D01*
X131785238Y-108418333D01*
X131737619Y-108465952D01*
X131690000Y-108561190D01*
X131690000Y-108846904D01*
X131737619Y-108942142D01*
X131785238Y-108989761D01*
X131880476Y-109037380D01*
X132070952Y-109037380D01*
X132166190Y-108989761D01*
X131309047Y-108989761D02*
X131213809Y-109037380D01*
X131023333Y-109037380D01*
X130928095Y-108989761D01*
X130880476Y-108894523D01*
X130880476Y-108846904D01*
X130928095Y-108751666D01*
X131023333Y-108704047D01*
X131166190Y-108704047D01*
X131261428Y-108656428D01*
X131309047Y-108561190D01*
X131309047Y-108513571D01*
X131261428Y-108418333D01*
X131166190Y-108370714D01*
X131023333Y-108370714D01*
X130928095Y-108418333D01*
X130309047Y-109037380D02*
X130404285Y-108989761D01*
X130451904Y-108942142D01*
X130499523Y-108846904D01*
X130499523Y-108561190D01*
X130451904Y-108465952D01*
X130404285Y-108418333D01*
X130309047Y-108370714D01*
X130166190Y-108370714D01*
X130070952Y-108418333D01*
X130023333Y-108465952D01*
X129975714Y-108561190D01*
X129975714Y-108846904D01*
X130023333Y-108942142D01*
X130070952Y-108989761D01*
X130166190Y-109037380D01*
X130309047Y-109037380D01*
X129404285Y-109037380D02*
X129499523Y-108989761D01*
X129547142Y-108894523D01*
X129547142Y-108037380D01*
X128594761Y-108370714D02*
X128594761Y-109037380D01*
X129023333Y-108370714D02*
X129023333Y-108894523D01*
X128975714Y-108989761D01*
X128880476Y-109037380D01*
X128737619Y-109037380D01*
X128642380Y-108989761D01*
X128594761Y-108942142D01*
X128261428Y-108370714D02*
X127880476Y-108370714D01*
X128118571Y-108037380D02*
X128118571Y-108894523D01*
X128070952Y-108989761D01*
X127975714Y-109037380D01*
X127880476Y-109037380D01*
X127166190Y-108989761D02*
X127261428Y-109037380D01*
X127451904Y-109037380D01*
X127547142Y-108989761D01*
X127594761Y-108894523D01*
X127594761Y-108513571D01*
X127547142Y-108418333D01*
X127451904Y-108370714D01*
X127261428Y-108370714D01*
X127166190Y-108418333D01*
X127118571Y-108513571D01*
X127118571Y-108608809D01*
X127594761Y-108704047D01*
X125928095Y-109037380D02*
X125928095Y-108370714D01*
X125928095Y-108465952D02*
X125880476Y-108418333D01*
X125785238Y-108370714D01*
X125642380Y-108370714D01*
X125547142Y-108418333D01*
X125499523Y-108513571D01*
X125499523Y-109037380D01*
X125499523Y-108513571D02*
X125451904Y-108418333D01*
X125356666Y-108370714D01*
X125213809Y-108370714D01*
X125118571Y-108418333D01*
X125070952Y-108513571D01*
X125070952Y-109037380D01*
X124166190Y-109037380D02*
X124166190Y-108513571D01*
X124213809Y-108418333D01*
X124309047Y-108370714D01*
X124499523Y-108370714D01*
X124594761Y-108418333D01*
X124166190Y-108989761D02*
X124261428Y-109037380D01*
X124499523Y-109037380D01*
X124594761Y-108989761D01*
X124642380Y-108894523D01*
X124642380Y-108799285D01*
X124594761Y-108704047D01*
X124499523Y-108656428D01*
X124261428Y-108656428D01*
X124166190Y-108608809D01*
X123785238Y-109037380D02*
X123261428Y-108370714D01*
X123785238Y-108370714D02*
X123261428Y-109037380D01*
X122880476Y-109037380D02*
X122880476Y-108370714D01*
X122880476Y-108037380D02*
X122928095Y-108085000D01*
X122880476Y-108132619D01*
X122832857Y-108085000D01*
X122880476Y-108037380D01*
X122880476Y-108132619D01*
X122404285Y-109037380D02*
X122404285Y-108370714D01*
X122404285Y-108465952D02*
X122356666Y-108418333D01*
X122261428Y-108370714D01*
X122118571Y-108370714D01*
X122023333Y-108418333D01*
X121975714Y-108513571D01*
X121975714Y-109037380D01*
X121975714Y-108513571D02*
X121928095Y-108418333D01*
X121832857Y-108370714D01*
X121690000Y-108370714D01*
X121594761Y-108418333D01*
X121547142Y-108513571D01*
X121547142Y-109037380D01*
X120642380Y-108370714D02*
X120642380Y-109037380D01*
X121070952Y-108370714D02*
X121070952Y-108894523D01*
X121023333Y-108989761D01*
X120928095Y-109037380D01*
X120785238Y-109037380D01*
X120690000Y-108989761D01*
X120642380Y-108942142D01*
X120166190Y-109037380D02*
X120166190Y-108370714D01*
X120166190Y-108465952D02*
X120118571Y-108418333D01*
X120023333Y-108370714D01*
X119880476Y-108370714D01*
X119785238Y-108418333D01*
X119737619Y-108513571D01*
X119737619Y-109037380D01*
X119737619Y-108513571D02*
X119690000Y-108418333D01*
X119594761Y-108370714D01*
X119451904Y-108370714D01*
X119356666Y-108418333D01*
X119309047Y-108513571D01*
X119309047Y-109037380D01*
X118070952Y-109037380D02*
X118070952Y-108370714D01*
X118070952Y-108561190D02*
X118023333Y-108465952D01*
X117975714Y-108418333D01*
X117880476Y-108370714D01*
X117785238Y-108370714D01*
X117023333Y-109037380D02*
X117023333Y-108513571D01*
X117070952Y-108418333D01*
X117166190Y-108370714D01*
X117356666Y-108370714D01*
X117451904Y-108418333D01*
X117023333Y-108989761D02*
X117118571Y-109037380D01*
X117356666Y-109037380D01*
X117451904Y-108989761D01*
X117499523Y-108894523D01*
X117499523Y-108799285D01*
X117451904Y-108704047D01*
X117356666Y-108656428D01*
X117118571Y-108656428D01*
X117023333Y-108608809D01*
X116690000Y-108370714D02*
X116309047Y-108370714D01*
X116547142Y-108037380D02*
X116547142Y-108894523D01*
X116499523Y-108989761D01*
X116404285Y-109037380D01*
X116309047Y-109037380D01*
X115975714Y-109037380D02*
X115975714Y-108370714D01*
X115975714Y-108037380D02*
X116023333Y-108085000D01*
X115975714Y-108132619D01*
X115928095Y-108085000D01*
X115975714Y-108037380D01*
X115975714Y-108132619D01*
X115499523Y-108370714D02*
X115499523Y-109037380D01*
X115499523Y-108465952D02*
X115451904Y-108418333D01*
X115356666Y-108370714D01*
X115213809Y-108370714D01*
X115118571Y-108418333D01*
X115070952Y-108513571D01*
X115070952Y-109037380D01*
X114166190Y-108370714D02*
X114166190Y-109180238D01*
X114213809Y-109275476D01*
X114261428Y-109323095D01*
X114356666Y-109370714D01*
X114499523Y-109370714D01*
X114594761Y-109323095D01*
X114166190Y-108989761D02*
X114261428Y-109037380D01*
X114451904Y-109037380D01*
X114547142Y-108989761D01*
X114594761Y-108942142D01*
X114642380Y-108846904D01*
X114642380Y-108561190D01*
X114594761Y-108465952D01*
X114547142Y-108418333D01*
X114451904Y-108370714D01*
X114261428Y-108370714D01*
X114166190Y-108418333D01*
X113737619Y-108989761D02*
X113642380Y-109037380D01*
X113451904Y-109037380D01*
X113356666Y-108989761D01*
X113309047Y-108894523D01*
X113309047Y-108846904D01*
X113356666Y-108751666D01*
X113451904Y-108704047D01*
X113594761Y-108704047D01*
X113690000Y-108656428D01*
X113737619Y-108561190D01*
X113737619Y-108513571D01*
X113690000Y-108418333D01*
X113594761Y-108370714D01*
X113451904Y-108370714D01*
X113356666Y-108418333D01*
D12*
%TO.C,G\u002A\u002A\u002A*%
G36*
X145622581Y-121703580D02*
G01*
X145627919Y-121703847D01*
X145737636Y-121711422D01*
X145808104Y-121723947D01*
X145855292Y-121746519D01*
X145895168Y-121784239D01*
X145901134Y-121791085D01*
X145945576Y-121856813D01*
X145966859Y-121915932D01*
X145967174Y-121921539D01*
X145957006Y-121957205D01*
X145916977Y-121972627D01*
X145860120Y-121975217D01*
X145774694Y-121963755D01*
X145718963Y-121934051D01*
X145717537Y-121932408D01*
X145675156Y-121907358D01*
X145617631Y-121898582D01*
X145566614Y-121905906D01*
X145543759Y-121929156D01*
X145544061Y-121933804D01*
X145571246Y-121959754D01*
X145630643Y-121985156D01*
X145635211Y-121986521D01*
X145694762Y-122011225D01*
X145714658Y-122050512D01*
X145713214Y-122096956D01*
X145701744Y-122153532D01*
X145670574Y-122179960D01*
X145602183Y-122190743D01*
X145599674Y-122190952D01*
X145529500Y-122202630D01*
X145503153Y-122226126D01*
X145503270Y-122246169D01*
X145534470Y-122283507D01*
X145595374Y-122301124D01*
X145663341Y-122296870D01*
X145715727Y-122268595D01*
X145717525Y-122266518D01*
X145768554Y-122235912D01*
X145840036Y-122224278D01*
X145909292Y-122231728D01*
X145953644Y-122258377D01*
X145957272Y-122265322D01*
X145953772Y-122325519D01*
X145911932Y-122394374D01*
X145843282Y-122456839D01*
X145786457Y-122488284D01*
X145693517Y-122517384D01*
X145599380Y-122521484D01*
X145480439Y-122501393D01*
X145470654Y-122499121D01*
X145368709Y-122453857D01*
X145295651Y-122380328D01*
X145256748Y-122291070D01*
X145257269Y-122198620D01*
X145302482Y-122115513D01*
X145307326Y-122110500D01*
X145344818Y-122060038D01*
X145336800Y-122024099D01*
X145334935Y-122022152D01*
X145307555Y-121960995D01*
X145307606Y-121877231D01*
X145332647Y-121794692D01*
X145362655Y-121751475D01*
X145399655Y-121721455D01*
X145445116Y-121705295D01*
X145514328Y-121700252D01*
X145622581Y-121703580D01*
G37*
X145622581Y-121703580D02*
X145627919Y-121703847D01*
X145737636Y-121711422D01*
X145808104Y-121723947D01*
X145855292Y-121746519D01*
X145895168Y-121784239D01*
X145901134Y-121791085D01*
X145945576Y-121856813D01*
X145966859Y-121915932D01*
X145967174Y-121921539D01*
X145957006Y-121957205D01*
X145916977Y-121972627D01*
X145860120Y-121975217D01*
X145774694Y-121963755D01*
X145718963Y-121934051D01*
X145717537Y-121932408D01*
X145675156Y-121907358D01*
X145617631Y-121898582D01*
X145566614Y-121905906D01*
X145543759Y-121929156D01*
X145544061Y-121933804D01*
X145571246Y-121959754D01*
X145630643Y-121985156D01*
X145635211Y-121986521D01*
X145694762Y-122011225D01*
X145714658Y-122050512D01*
X145713214Y-122096956D01*
X145701744Y-122153532D01*
X145670574Y-122179960D01*
X145602183Y-122190743D01*
X145599674Y-122190952D01*
X145529500Y-122202630D01*
X145503153Y-122226126D01*
X145503270Y-122246169D01*
X145534470Y-122283507D01*
X145595374Y-122301124D01*
X145663341Y-122296870D01*
X145715727Y-122268595D01*
X145717525Y-122266518D01*
X145768554Y-122235912D01*
X145840036Y-122224278D01*
X145909292Y-122231728D01*
X145953644Y-122258377D01*
X145957272Y-122265322D01*
X145953772Y-122325519D01*
X145911932Y-122394374D01*
X145843282Y-122456839D01*
X145786457Y-122488284D01*
X145693517Y-122517384D01*
X145599380Y-122521484D01*
X145480439Y-122501393D01*
X145470654Y-122499121D01*
X145368709Y-122453857D01*
X145295651Y-122380328D01*
X145256748Y-122291070D01*
X145257269Y-122198620D01*
X145302482Y-122115513D01*
X145307326Y-122110500D01*
X145344818Y-122060038D01*
X145336800Y-122024099D01*
X145334935Y-122022152D01*
X145307555Y-121960995D01*
X145307606Y-121877231D01*
X145332647Y-121794692D01*
X145362655Y-121751475D01*
X145399655Y-121721455D01*
X145445116Y-121705295D01*
X145514328Y-121700252D01*
X145622581Y-121703580D01*
G36*
X146389548Y-121710352D02*
G01*
X146430797Y-121727695D01*
X146484811Y-121766696D01*
X146561616Y-121832961D01*
X146644847Y-121908138D01*
X146746650Y-122001762D01*
X146813693Y-122068346D01*
X146852765Y-122117218D01*
X146870651Y-122157709D01*
X146874139Y-122199150D01*
X146872748Y-122221448D01*
X146862045Y-122287942D01*
X146833316Y-122317258D01*
X146768715Y-122327434D01*
X146767826Y-122327501D01*
X146639291Y-122339802D01*
X146556365Y-122355972D01*
X146509445Y-122379333D01*
X146488924Y-122413208D01*
X146486637Y-122424772D01*
X146468711Y-122467713D01*
X146420663Y-122488698D01*
X146374402Y-122494547D01*
X146304909Y-122493299D01*
X146271808Y-122477884D01*
X146270869Y-122473658D01*
X146251782Y-122436776D01*
X146205474Y-122387380D01*
X146201848Y-122384186D01*
X146148992Y-122317850D01*
X146134271Y-122252872D01*
X146158499Y-122203401D01*
X146190519Y-122187440D01*
X146233430Y-122159312D01*
X146233658Y-122122100D01*
X146226487Y-122080487D01*
X146464130Y-122080487D01*
X146469997Y-122141542D01*
X146498462Y-122165058D01*
X146546956Y-122168478D01*
X146605167Y-122165970D01*
X146629778Y-122159929D01*
X146629783Y-122159839D01*
X146611835Y-122137290D01*
X146566876Y-122091186D01*
X146546956Y-122071848D01*
X146464130Y-121992495D01*
X146464130Y-122080487D01*
X146226487Y-122080487D01*
X146224317Y-122067899D01*
X146215403Y-121980454D01*
X146210476Y-121907285D01*
X146201848Y-121742723D01*
X146305251Y-121718214D01*
X146351041Y-121709060D01*
X146389548Y-121710352D01*
G37*
X146389548Y-121710352D02*
X146430797Y-121727695D01*
X146484811Y-121766696D01*
X146561616Y-121832961D01*
X146644847Y-121908138D01*
X146746650Y-122001762D01*
X146813693Y-122068346D01*
X146852765Y-122117218D01*
X146870651Y-122157709D01*
X146874139Y-122199150D01*
X146872748Y-122221448D01*
X146862045Y-122287942D01*
X146833316Y-122317258D01*
X146768715Y-122327434D01*
X146767826Y-122327501D01*
X146639291Y-122339802D01*
X146556365Y-122355972D01*
X146509445Y-122379333D01*
X146488924Y-122413208D01*
X146486637Y-122424772D01*
X146468711Y-122467713D01*
X146420663Y-122488698D01*
X146374402Y-122494547D01*
X146304909Y-122493299D01*
X146271808Y-122477884D01*
X146270869Y-122473658D01*
X146251782Y-122436776D01*
X146205474Y-122387380D01*
X146201848Y-122384186D01*
X146148992Y-122317850D01*
X146134271Y-122252872D01*
X146158499Y-122203401D01*
X146190519Y-122187440D01*
X146233430Y-122159312D01*
X146233658Y-122122100D01*
X146226487Y-122080487D01*
X146464130Y-122080487D01*
X146469997Y-122141542D01*
X146498462Y-122165058D01*
X146546956Y-122168478D01*
X146605167Y-122165970D01*
X146629778Y-122159929D01*
X146629783Y-122159839D01*
X146611835Y-122137290D01*
X146566876Y-122091186D01*
X146546956Y-122071848D01*
X146464130Y-121992495D01*
X146464130Y-122080487D01*
X146226487Y-122080487D01*
X146224317Y-122067899D01*
X146215403Y-121980454D01*
X146210476Y-121907285D01*
X146201848Y-121742723D01*
X146305251Y-121718214D01*
X146351041Y-121709060D01*
X146389548Y-121710352D01*
G36*
X147380945Y-121599168D02*
G01*
X147489481Y-121635605D01*
X147491779Y-121636633D01*
X147567414Y-121672597D01*
X147602337Y-121700554D01*
X147606383Y-121734717D01*
X147592092Y-121781548D01*
X147565471Y-121839717D01*
X147529509Y-121856853D01*
X147481294Y-121850021D01*
X147443274Y-121842727D01*
X147420381Y-121846533D01*
X147412478Y-121869904D01*
X147419428Y-121921309D01*
X147441097Y-122009213D01*
X147476637Y-122139500D01*
X147498814Y-122226318D01*
X147504112Y-122276475D01*
X147491867Y-122306091D01*
X147468950Y-122325859D01*
X147403419Y-122353734D01*
X147346236Y-122361739D01*
X147316071Y-122359479D01*
X147292598Y-122347077D01*
X147271994Y-122316103D01*
X147250434Y-122258124D01*
X147224094Y-122164709D01*
X147189148Y-122027427D01*
X147182470Y-122000695D01*
X147142899Y-121833380D01*
X147120116Y-121714844D01*
X147113550Y-121641446D01*
X147121312Y-121610688D01*
X147180037Y-121585531D01*
X147272189Y-121582084D01*
X147380945Y-121599168D01*
G37*
X147380945Y-121599168D02*
X147489481Y-121635605D01*
X147491779Y-121636633D01*
X147567414Y-121672597D01*
X147602337Y-121700554D01*
X147606383Y-121734717D01*
X147592092Y-121781548D01*
X147565471Y-121839717D01*
X147529509Y-121856853D01*
X147481294Y-121850021D01*
X147443274Y-121842727D01*
X147420381Y-121846533D01*
X147412478Y-121869904D01*
X147419428Y-121921309D01*
X147441097Y-122009213D01*
X147476637Y-122139500D01*
X147498814Y-122226318D01*
X147504112Y-122276475D01*
X147491867Y-122306091D01*
X147468950Y-122325859D01*
X147403419Y-122353734D01*
X147346236Y-122361739D01*
X147316071Y-122359479D01*
X147292598Y-122347077D01*
X147271994Y-122316103D01*
X147250434Y-122258124D01*
X147224094Y-122164709D01*
X147189148Y-122027427D01*
X147182470Y-122000695D01*
X147142899Y-121833380D01*
X147120116Y-121714844D01*
X147113550Y-121641446D01*
X147121312Y-121610688D01*
X147180037Y-121585531D01*
X147272189Y-121582084D01*
X147380945Y-121599168D01*
G36*
X144645024Y-121527273D02*
G01*
X144713552Y-121542406D01*
X144716264Y-121543071D01*
X144758244Y-121558298D01*
X144795430Y-121587104D01*
X144834944Y-121638710D01*
X144883910Y-121722334D01*
X144945936Y-121840351D01*
X145010891Y-121971209D01*
X145051153Y-122065065D01*
X145070327Y-122132331D01*
X145072020Y-122183418D01*
X145069597Y-122197425D01*
X145052164Y-122247721D01*
X145020569Y-122272738D01*
X144964045Y-122274102D01*
X144871825Y-122253433D01*
X144812008Y-122236249D01*
X144707820Y-122211144D01*
X144645463Y-122212334D01*
X144617618Y-122240947D01*
X144614348Y-122266738D01*
X144590627Y-122296141D01*
X144525786Y-122302308D01*
X144441793Y-122287490D01*
X144402220Y-122251741D01*
X144393478Y-122209496D01*
X144382996Y-122151841D01*
X144365869Y-122127065D01*
X144345790Y-122089648D01*
X144338261Y-122030726D01*
X144349601Y-121969041D01*
X144390476Y-121943910D01*
X144397869Y-121942627D01*
X144401073Y-121941261D01*
X144696342Y-121941261D01*
X144708987Y-122002495D01*
X144755015Y-122035712D01*
X144759293Y-122036516D01*
X144811191Y-122042193D01*
X144828837Y-122029096D01*
X144815923Y-121985696D01*
X144792094Y-121934100D01*
X144756835Y-121872208D01*
X144731363Y-121859446D01*
X144721136Y-121869738D01*
X144696342Y-121941261D01*
X144401073Y-121941261D01*
X144431862Y-121928137D01*
X144460526Y-121888993D01*
X144489695Y-121814537D01*
X144516086Y-121726739D01*
X144546877Y-121629267D01*
X144575908Y-121556704D01*
X144597877Y-121521858D01*
X144601423Y-121520526D01*
X144645024Y-121527273D01*
G37*
X144645024Y-121527273D02*
X144713552Y-121542406D01*
X144716264Y-121543071D01*
X144758244Y-121558298D01*
X144795430Y-121587104D01*
X144834944Y-121638710D01*
X144883910Y-121722334D01*
X144945936Y-121840351D01*
X145010891Y-121971209D01*
X145051153Y-122065065D01*
X145070327Y-122132331D01*
X145072020Y-122183418D01*
X145069597Y-122197425D01*
X145052164Y-122247721D01*
X145020569Y-122272738D01*
X144964045Y-122274102D01*
X144871825Y-122253433D01*
X144812008Y-122236249D01*
X144707820Y-122211144D01*
X144645463Y-122212334D01*
X144617618Y-122240947D01*
X144614348Y-122266738D01*
X144590627Y-122296141D01*
X144525786Y-122302308D01*
X144441793Y-122287490D01*
X144402220Y-122251741D01*
X144393478Y-122209496D01*
X144382996Y-122151841D01*
X144365869Y-122127065D01*
X144345790Y-122089648D01*
X144338261Y-122030726D01*
X144349601Y-121969041D01*
X144390476Y-121943910D01*
X144397869Y-121942627D01*
X144401073Y-121941261D01*
X144696342Y-121941261D01*
X144708987Y-122002495D01*
X144755015Y-122035712D01*
X144759293Y-122036516D01*
X144811191Y-122042193D01*
X144828837Y-122029096D01*
X144815923Y-121985696D01*
X144792094Y-121934100D01*
X144756835Y-121872208D01*
X144731363Y-121859446D01*
X144721136Y-121869738D01*
X144696342Y-121941261D01*
X144401073Y-121941261D01*
X144431862Y-121928137D01*
X144460526Y-121888993D01*
X144489695Y-121814537D01*
X144516086Y-121726739D01*
X144546877Y-121629267D01*
X144575908Y-121556704D01*
X144597877Y-121521858D01*
X144601423Y-121520526D01*
X144645024Y-121527273D01*
G36*
X143366330Y-121137585D02*
G01*
X143439403Y-121184929D01*
X143447880Y-121195157D01*
X143479405Y-121271312D01*
X143467449Y-121344149D01*
X143423425Y-121404352D01*
X143358742Y-121442605D01*
X143284812Y-121449591D01*
X143213046Y-121415995D01*
X143196779Y-121400163D01*
X143155471Y-121319167D01*
X143166136Y-121233343D01*
X143208697Y-121172173D01*
X143282659Y-121132683D01*
X143366330Y-121137585D01*
G37*
X143366330Y-121137585D02*
X143439403Y-121184929D01*
X143447880Y-121195157D01*
X143479405Y-121271312D01*
X143467449Y-121344149D01*
X143423425Y-121404352D01*
X143358742Y-121442605D01*
X143284812Y-121449591D01*
X143213046Y-121415995D01*
X143196779Y-121400163D01*
X143155471Y-121319167D01*
X143166136Y-121233343D01*
X143208697Y-121172173D01*
X143282659Y-121132683D01*
X143366330Y-121137585D01*
G36*
X148808969Y-121130993D02*
G01*
X148866479Y-121169331D01*
X148918442Y-121243676D01*
X148928206Y-121298319D01*
X148905513Y-121378854D01*
X148848426Y-121431602D01*
X148773433Y-121450226D01*
X148697021Y-121428386D01*
X148663301Y-121400163D01*
X148622945Y-121322014D01*
X148625338Y-121238499D01*
X148669143Y-121169910D01*
X148678969Y-121162326D01*
X148749501Y-121124955D01*
X148808969Y-121130993D01*
G37*
X148808969Y-121130993D02*
X148866479Y-121169331D01*
X148918442Y-121243676D01*
X148928206Y-121298319D01*
X148905513Y-121378854D01*
X148848426Y-121431602D01*
X148773433Y-121450226D01*
X148697021Y-121428386D01*
X148663301Y-121400163D01*
X148622945Y-121322014D01*
X148625338Y-121238499D01*
X148669143Y-121169910D01*
X148678969Y-121162326D01*
X148749501Y-121124955D01*
X148808969Y-121130993D01*
G36*
X142162577Y-119731008D02*
G01*
X142212283Y-119784835D01*
X142283492Y-119864861D01*
X142369061Y-119963161D01*
X142380571Y-119976525D01*
X142480253Y-120094784D01*
X142545040Y-120180517D01*
X142577574Y-120241696D01*
X142580494Y-120286291D01*
X142556442Y-120322275D01*
X142508058Y-120357618D01*
X142507034Y-120358263D01*
X142477822Y-120366433D01*
X142441573Y-120350661D01*
X142389457Y-120304632D01*
X142312640Y-120222027D01*
X142305717Y-120214272D01*
X142225774Y-120128083D01*
X142171693Y-120079977D01*
X142135718Y-120064236D01*
X142113202Y-120072341D01*
X142098908Y-120096599D01*
X142110504Y-120133556D01*
X142152871Y-120193248D01*
X142199028Y-120248763D01*
X142275450Y-120344680D01*
X142312879Y-120412260D01*
X142313204Y-120460280D01*
X142278314Y-120497516D01*
X142255492Y-120511053D01*
X142218256Y-120526858D01*
X142185115Y-120523586D01*
X142144134Y-120494671D01*
X142083374Y-120433548D01*
X142050647Y-120398381D01*
X141967125Y-120314989D01*
X141911594Y-120276247D01*
X141884304Y-120277666D01*
X141882926Y-120311509D01*
X141920360Y-120375650D01*
X141992518Y-120466260D01*
X142057987Y-120545695D01*
X142106435Y-120609652D01*
X142128953Y-120646244D01*
X142129565Y-120649060D01*
X142109370Y-120675904D01*
X142063255Y-120714305D01*
X142012928Y-120747881D01*
X141981985Y-120760435D01*
X141960518Y-120740796D01*
X141910935Y-120687481D01*
X141840873Y-120608893D01*
X141767046Y-120523994D01*
X141684655Y-120425914D01*
X141616673Y-120340589D01*
X141570851Y-120278032D01*
X141555085Y-120250110D01*
X141572293Y-120223487D01*
X141622496Y-120169270D01*
X141696696Y-120095724D01*
X141785901Y-120011112D01*
X141881113Y-119923701D01*
X141973337Y-119841755D01*
X142053579Y-119773538D01*
X142112842Y-119727316D01*
X142141517Y-119711304D01*
X142162577Y-119731008D01*
G37*
X142162577Y-119731008D02*
X142212283Y-119784835D01*
X142283492Y-119864861D01*
X142369061Y-119963161D01*
X142380571Y-119976525D01*
X142480253Y-120094784D01*
X142545040Y-120180517D01*
X142577574Y-120241696D01*
X142580494Y-120286291D01*
X142556442Y-120322275D01*
X142508058Y-120357618D01*
X142507034Y-120358263D01*
X142477822Y-120366433D01*
X142441573Y-120350661D01*
X142389457Y-120304632D01*
X142312640Y-120222027D01*
X142305717Y-120214272D01*
X142225774Y-120128083D01*
X142171693Y-120079977D01*
X142135718Y-120064236D01*
X142113202Y-120072341D01*
X142098908Y-120096599D01*
X142110504Y-120133556D01*
X142152871Y-120193248D01*
X142199028Y-120248763D01*
X142275450Y-120344680D01*
X142312879Y-120412260D01*
X142313204Y-120460280D01*
X142278314Y-120497516D01*
X142255492Y-120511053D01*
X142218256Y-120526858D01*
X142185115Y-120523586D01*
X142144134Y-120494671D01*
X142083374Y-120433548D01*
X142050647Y-120398381D01*
X141967125Y-120314989D01*
X141911594Y-120276247D01*
X141884304Y-120277666D01*
X141882926Y-120311509D01*
X141920360Y-120375650D01*
X141992518Y-120466260D01*
X142057987Y-120545695D01*
X142106435Y-120609652D01*
X142128953Y-120646244D01*
X142129565Y-120649060D01*
X142109370Y-120675904D01*
X142063255Y-120714305D01*
X142012928Y-120747881D01*
X141981985Y-120760435D01*
X141960518Y-120740796D01*
X141910935Y-120687481D01*
X141840873Y-120608893D01*
X141767046Y-120523994D01*
X141684655Y-120425914D01*
X141616673Y-120340589D01*
X141570851Y-120278032D01*
X141555085Y-120250110D01*
X141572293Y-120223487D01*
X141622496Y-120169270D01*
X141696696Y-120095724D01*
X141785901Y-120011112D01*
X141881113Y-119923701D01*
X141973337Y-119841755D01*
X142053579Y-119773538D01*
X142112842Y-119727316D01*
X142141517Y-119711304D01*
X142162577Y-119731008D01*
G36*
X150096575Y-119837689D02*
G01*
X150133969Y-119865606D01*
X150198435Y-119942251D01*
X150219648Y-120031789D01*
X150197382Y-120140758D01*
X150131407Y-120275697D01*
X150118952Y-120296569D01*
X150061908Y-120400382D01*
X150040828Y-120465417D01*
X150047170Y-120489300D01*
X150084377Y-120494219D01*
X150131610Y-120461070D01*
X150176588Y-120402298D01*
X150207032Y-120330345D01*
X150208030Y-120326300D01*
X150240149Y-120249254D01*
X150291410Y-120179284D01*
X150347253Y-120133774D01*
X150376257Y-120125435D01*
X150417641Y-120149628D01*
X150444901Y-120210026D01*
X150452912Y-120288352D01*
X150440751Y-120355392D01*
X150378122Y-120483111D01*
X150291755Y-120589255D01*
X150190658Y-120669297D01*
X150083839Y-120718712D01*
X149980304Y-120732974D01*
X149889063Y-120707555D01*
X149834395Y-120660081D01*
X149791986Y-120587585D01*
X149781862Y-120510172D01*
X149805280Y-120416245D01*
X149863498Y-120294207D01*
X149876651Y-120270359D01*
X149932204Y-120161305D01*
X149954042Y-120092384D01*
X149947806Y-120064154D01*
X149910220Y-120058564D01*
X149862817Y-120090426D01*
X149817276Y-120146329D01*
X149785275Y-120212862D01*
X149777174Y-120260105D01*
X149756356Y-120344331D01*
X149702857Y-120430388D01*
X149628541Y-120518708D01*
X149578618Y-120457056D01*
X149531478Y-120357917D01*
X149534822Y-120242825D01*
X149587714Y-120115951D01*
X149684139Y-119987047D01*
X149801572Y-119874287D01*
X149906313Y-119812656D01*
X150003075Y-119800881D01*
X150096575Y-119837689D01*
G37*
X150096575Y-119837689D02*
X150133969Y-119865606D01*
X150198435Y-119942251D01*
X150219648Y-120031789D01*
X150197382Y-120140758D01*
X150131407Y-120275697D01*
X150118952Y-120296569D01*
X150061908Y-120400382D01*
X150040828Y-120465417D01*
X150047170Y-120489300D01*
X150084377Y-120494219D01*
X150131610Y-120461070D01*
X150176588Y-120402298D01*
X150207032Y-120330345D01*
X150208030Y-120326300D01*
X150240149Y-120249254D01*
X150291410Y-120179284D01*
X150347253Y-120133774D01*
X150376257Y-120125435D01*
X150417641Y-120149628D01*
X150444901Y-120210026D01*
X150452912Y-120288352D01*
X150440751Y-120355392D01*
X150378122Y-120483111D01*
X150291755Y-120589255D01*
X150190658Y-120669297D01*
X150083839Y-120718712D01*
X149980304Y-120732974D01*
X149889063Y-120707555D01*
X149834395Y-120660081D01*
X149791986Y-120587585D01*
X149781862Y-120510172D01*
X149805280Y-120416245D01*
X149863498Y-120294207D01*
X149876651Y-120270359D01*
X149932204Y-120161305D01*
X149954042Y-120092384D01*
X149947806Y-120064154D01*
X149910220Y-120058564D01*
X149862817Y-120090426D01*
X149817276Y-120146329D01*
X149785275Y-120212862D01*
X149777174Y-120260105D01*
X149756356Y-120344331D01*
X149702857Y-120430388D01*
X149628541Y-120518708D01*
X149578618Y-120457056D01*
X149531478Y-120357917D01*
X149534822Y-120242825D01*
X149587714Y-120115951D01*
X149684139Y-119987047D01*
X149801572Y-119874287D01*
X149906313Y-119812656D01*
X150003075Y-119800881D01*
X150096575Y-119837689D01*
G36*
X150260605Y-119311066D02*
G01*
X150329670Y-119348274D01*
X150423064Y-119402093D01*
X150529780Y-119465819D01*
X150638810Y-119532748D01*
X150739146Y-119596176D01*
X150819782Y-119649399D01*
X150869709Y-119685713D01*
X150878806Y-119694227D01*
X150882598Y-119736031D01*
X150859820Y-119797531D01*
X150821884Y-119858348D01*
X150780207Y-119898103D01*
X150761473Y-119903712D01*
X150727139Y-119889342D01*
X150656414Y-119850735D01*
X150559291Y-119793609D01*
X150445763Y-119723683D01*
X150434277Y-119716449D01*
X150320460Y-119644044D01*
X150223525Y-119581286D01*
X150153144Y-119534516D01*
X150118994Y-119510075D01*
X150117988Y-119509147D01*
X150116676Y-119474315D01*
X150138040Y-119415633D01*
X150171635Y-119353435D01*
X150207015Y-119308053D01*
X150226876Y-119297174D01*
X150260605Y-119311066D01*
G37*
X150260605Y-119311066D02*
X150329670Y-119348274D01*
X150423064Y-119402093D01*
X150529780Y-119465819D01*
X150638810Y-119532748D01*
X150739146Y-119596176D01*
X150819782Y-119649399D01*
X150869709Y-119685713D01*
X150878806Y-119694227D01*
X150882598Y-119736031D01*
X150859820Y-119797531D01*
X150821884Y-119858348D01*
X150780207Y-119898103D01*
X150761473Y-119903712D01*
X150727139Y-119889342D01*
X150656414Y-119850735D01*
X150559291Y-119793609D01*
X150445763Y-119723683D01*
X150434277Y-119716449D01*
X150320460Y-119644044D01*
X150223525Y-119581286D01*
X150153144Y-119534516D01*
X150118994Y-119510075D01*
X150117988Y-119509147D01*
X150116676Y-119474315D01*
X150138040Y-119415633D01*
X150171635Y-119353435D01*
X150207015Y-119308053D01*
X150226876Y-119297174D01*
X150260605Y-119311066D01*
G36*
X141685817Y-118955084D02*
G01*
X141725408Y-119018814D01*
X141777697Y-119107115D01*
X141835882Y-119208047D01*
X141893159Y-119309670D01*
X141942725Y-119400048D01*
X141977776Y-119467240D01*
X141991510Y-119499308D01*
X141991522Y-119499590D01*
X141971340Y-119523705D01*
X141921767Y-119563838D01*
X141911801Y-119571049D01*
X141852242Y-119606088D01*
X141816812Y-119604463D01*
X141805745Y-119593636D01*
X141779128Y-119552838D01*
X141735702Y-119480161D01*
X141689805Y-119400053D01*
X141600200Y-119240650D01*
X141443850Y-119329429D01*
X141346634Y-119385071D01*
X141255967Y-119437693D01*
X141204674Y-119468023D01*
X141140770Y-119501784D01*
X141095270Y-119517749D01*
X141092450Y-119517940D01*
X141061900Y-119495259D01*
X141027321Y-119440770D01*
X140998261Y-119375074D01*
X140984272Y-119318773D01*
X140989226Y-119295282D01*
X141027740Y-119267745D01*
X141100595Y-119223300D01*
X141196983Y-119167815D01*
X141306098Y-119107160D01*
X141417134Y-119047204D01*
X141519284Y-118993817D01*
X141601741Y-118952867D01*
X141653698Y-118930225D01*
X141665728Y-118927862D01*
X141685817Y-118955084D01*
G37*
X141685817Y-118955084D02*
X141725408Y-119018814D01*
X141777697Y-119107115D01*
X141835882Y-119208047D01*
X141893159Y-119309670D01*
X141942725Y-119400048D01*
X141977776Y-119467240D01*
X141991510Y-119499308D01*
X141991522Y-119499590D01*
X141971340Y-119523705D01*
X141921767Y-119563838D01*
X141911801Y-119571049D01*
X141852242Y-119606088D01*
X141816812Y-119604463D01*
X141805745Y-119593636D01*
X141779128Y-119552838D01*
X141735702Y-119480161D01*
X141689805Y-119400053D01*
X141600200Y-119240650D01*
X141443850Y-119329429D01*
X141346634Y-119385071D01*
X141255967Y-119437693D01*
X141204674Y-119468023D01*
X141140770Y-119501784D01*
X141095270Y-119517749D01*
X141092450Y-119517940D01*
X141061900Y-119495259D01*
X141027321Y-119440770D01*
X140998261Y-119375074D01*
X140984272Y-119318773D01*
X140989226Y-119295282D01*
X141027740Y-119267745D01*
X141100595Y-119223300D01*
X141196983Y-119167815D01*
X141306098Y-119107160D01*
X141417134Y-119047204D01*
X141519284Y-118993817D01*
X141601741Y-118952867D01*
X141653698Y-118930225D01*
X141665728Y-118927862D01*
X141685817Y-118955084D01*
G36*
X147043337Y-115053904D02*
G01*
X147108509Y-115061850D01*
X147121724Y-115067179D01*
X147129466Y-115089788D01*
X147106051Y-115131112D01*
X147047230Y-115196998D01*
X146976960Y-115266399D01*
X146799291Y-115458051D01*
X146663191Y-115655179D01*
X146567096Y-115864244D01*
X146509442Y-116091703D01*
X146488664Y-116344017D01*
X146503198Y-116627643D01*
X146551480Y-116949041D01*
X146559431Y-116990270D01*
X146586709Y-117141837D01*
X146609059Y-117290799D01*
X146624183Y-117420081D01*
X146629782Y-117512607D01*
X146629783Y-117513021D01*
X146608025Y-117696134D01*
X146542037Y-117852044D01*
X146430741Y-117981533D01*
X146273062Y-118085383D01*
X146067925Y-118164377D01*
X145814255Y-118219296D01*
X145627451Y-118242033D01*
X145411968Y-118261848D01*
X145347270Y-118421272D01*
X145223075Y-118657026D01*
X145058101Y-118859748D01*
X144857765Y-119026653D01*
X144627486Y-119154956D01*
X144372680Y-119241870D01*
X144098765Y-119284611D01*
X143811159Y-119280394D01*
X143703261Y-119266518D01*
X143609930Y-119243015D01*
X143488438Y-119200563D01*
X143359127Y-119146602D01*
X143302935Y-119120119D01*
X143036622Y-118958533D01*
X142798722Y-118750014D01*
X142590053Y-118495458D01*
X142411435Y-118195763D01*
X142360031Y-118088879D01*
X142310855Y-117970047D01*
X142265526Y-117841133D01*
X142227753Y-117715260D01*
X142201245Y-117605550D01*
X142189710Y-117525126D01*
X142192063Y-117494573D01*
X142207834Y-117503425D01*
X142241413Y-117552555D01*
X142286643Y-117632496D01*
X142305909Y-117669584D01*
X142475448Y-117961816D01*
X142662360Y-118202835D01*
X142869545Y-118394717D01*
X143099906Y-118539538D01*
X143356347Y-118639373D01*
X143641768Y-118696298D01*
X143756617Y-118706989D01*
X144045214Y-118699263D01*
X144329683Y-118639094D01*
X144605372Y-118529252D01*
X144867631Y-118372508D01*
X145111809Y-118171633D01*
X145333254Y-117929398D01*
X145524054Y-117654014D01*
X145594554Y-117513169D01*
X145619392Y-117398381D01*
X145598784Y-117304974D01*
X145543221Y-117236748D01*
X145472435Y-117187584D01*
X145405057Y-117170058D01*
X145335604Y-117187351D01*
X145258596Y-117242641D01*
X145168553Y-117339107D01*
X145059994Y-117479929D01*
X145014282Y-117543565D01*
X144917078Y-117672394D01*
X144806697Y-117805774D01*
X144699667Y-117924240D01*
X144642733Y-117981196D01*
X144537962Y-118071880D01*
X144427360Y-118154083D01*
X144321104Y-118221689D01*
X144229370Y-118268578D01*
X144162334Y-118288633D01*
X144137586Y-118284874D01*
X144122900Y-118246278D01*
X144121195Y-118163032D01*
X144131006Y-118043780D01*
X144150867Y-117897165D01*
X144179314Y-117731833D01*
X144214881Y-117556426D01*
X144256103Y-117379589D01*
X144301515Y-117209966D01*
X144342018Y-117078809D01*
X144468924Y-116736041D01*
X144577301Y-116504465D01*
X145249348Y-116504465D01*
X145254530Y-116566663D01*
X145265499Y-116598470D01*
X145306854Y-116604630D01*
X145372761Y-116580327D01*
X145448040Y-116533444D01*
X145517512Y-116471862D01*
X145524730Y-116463866D01*
X145575012Y-116400495D01*
X145604778Y-116351183D01*
X145608261Y-116338632D01*
X145585103Y-116321078D01*
X145521573Y-116326865D01*
X145426590Y-116354443D01*
X145352880Y-116383036D01*
X145283598Y-116419723D01*
X145254053Y-116461919D01*
X145249348Y-116504465D01*
X144577301Y-116504465D01*
X144608368Y-116438084D01*
X144766229Y-116174934D01*
X144948386Y-115936589D01*
X145123228Y-115749456D01*
X145399517Y-115514154D01*
X145702898Y-115325109D01*
X146028626Y-115184919D01*
X146284674Y-115113415D01*
X146394521Y-115094070D01*
X146527103Y-115077606D01*
X146670349Y-115064691D01*
X146812185Y-115055991D01*
X146940538Y-115052173D01*
X147043337Y-115053904D01*
G37*
X147043337Y-115053904D02*
X147108509Y-115061850D01*
X147121724Y-115067179D01*
X147129466Y-115089788D01*
X147106051Y-115131112D01*
X147047230Y-115196998D01*
X146976960Y-115266399D01*
X146799291Y-115458051D01*
X146663191Y-115655179D01*
X146567096Y-115864244D01*
X146509442Y-116091703D01*
X146488664Y-116344017D01*
X146503198Y-116627643D01*
X146551480Y-116949041D01*
X146559431Y-116990270D01*
X146586709Y-117141837D01*
X146609059Y-117290799D01*
X146624183Y-117420081D01*
X146629782Y-117512607D01*
X146629783Y-117513021D01*
X146608025Y-117696134D01*
X146542037Y-117852044D01*
X146430741Y-117981533D01*
X146273062Y-118085383D01*
X146067925Y-118164377D01*
X145814255Y-118219296D01*
X145627451Y-118242033D01*
X145411968Y-118261848D01*
X145347270Y-118421272D01*
X145223075Y-118657026D01*
X145058101Y-118859748D01*
X144857765Y-119026653D01*
X144627486Y-119154956D01*
X144372680Y-119241870D01*
X144098765Y-119284611D01*
X143811159Y-119280394D01*
X143703261Y-119266518D01*
X143609930Y-119243015D01*
X143488438Y-119200563D01*
X143359127Y-119146602D01*
X143302935Y-119120119D01*
X143036622Y-118958533D01*
X142798722Y-118750014D01*
X142590053Y-118495458D01*
X142411435Y-118195763D01*
X142360031Y-118088879D01*
X142310855Y-117970047D01*
X142265526Y-117841133D01*
X142227753Y-117715260D01*
X142201245Y-117605550D01*
X142189710Y-117525126D01*
X142192063Y-117494573D01*
X142207834Y-117503425D01*
X142241413Y-117552555D01*
X142286643Y-117632496D01*
X142305909Y-117669584D01*
X142475448Y-117961816D01*
X142662360Y-118202835D01*
X142869545Y-118394717D01*
X143099906Y-118539538D01*
X143356347Y-118639373D01*
X143641768Y-118696298D01*
X143756617Y-118706989D01*
X144045214Y-118699263D01*
X144329683Y-118639094D01*
X144605372Y-118529252D01*
X144867631Y-118372508D01*
X145111809Y-118171633D01*
X145333254Y-117929398D01*
X145524054Y-117654014D01*
X145594554Y-117513169D01*
X145619392Y-117398381D01*
X145598784Y-117304974D01*
X145543221Y-117236748D01*
X145472435Y-117187584D01*
X145405057Y-117170058D01*
X145335604Y-117187351D01*
X145258596Y-117242641D01*
X145168553Y-117339107D01*
X145059994Y-117479929D01*
X145014282Y-117543565D01*
X144917078Y-117672394D01*
X144806697Y-117805774D01*
X144699667Y-117924240D01*
X144642733Y-117981196D01*
X144537962Y-118071880D01*
X144427360Y-118154083D01*
X144321104Y-118221689D01*
X144229370Y-118268578D01*
X144162334Y-118288633D01*
X144137586Y-118284874D01*
X144122900Y-118246278D01*
X144121195Y-118163032D01*
X144131006Y-118043780D01*
X144150867Y-117897165D01*
X144179314Y-117731833D01*
X144214881Y-117556426D01*
X144256103Y-117379589D01*
X144301515Y-117209966D01*
X144342018Y-117078809D01*
X144468924Y-116736041D01*
X144577301Y-116504465D01*
X145249348Y-116504465D01*
X145254530Y-116566663D01*
X145265499Y-116598470D01*
X145306854Y-116604630D01*
X145372761Y-116580327D01*
X145448040Y-116533444D01*
X145517512Y-116471862D01*
X145524730Y-116463866D01*
X145575012Y-116400495D01*
X145604778Y-116351183D01*
X145608261Y-116338632D01*
X145585103Y-116321078D01*
X145521573Y-116326865D01*
X145426590Y-116354443D01*
X145352880Y-116383036D01*
X145283598Y-116419723D01*
X145254053Y-116461919D01*
X145249348Y-116504465D01*
X144577301Y-116504465D01*
X144608368Y-116438084D01*
X144766229Y-116174934D01*
X144948386Y-115936589D01*
X145123228Y-115749456D01*
X145399517Y-115514154D01*
X145702898Y-115325109D01*
X146028626Y-115184919D01*
X146284674Y-115113415D01*
X146394521Y-115094070D01*
X146527103Y-115077606D01*
X146670349Y-115064691D01*
X146812185Y-115055991D01*
X146940538Y-115052173D01*
X147043337Y-115053904D01*
G36*
X150937492Y-118348142D02*
G01*
X150968106Y-118365510D01*
X150975740Y-118389691D01*
X150960349Y-118436910D01*
X150937083Y-118489619D01*
X150891077Y-118570529D01*
X150844430Y-118604614D01*
X150826245Y-118606956D01*
X150772384Y-118631471D01*
X150730139Y-118692929D01*
X150707145Y-118773198D01*
X150711036Y-118854148D01*
X150715840Y-118869163D01*
X150764864Y-118934051D01*
X150843622Y-118981848D01*
X150929199Y-119001502D01*
X150975918Y-118994601D01*
X151032258Y-118957961D01*
X151084908Y-118902662D01*
X151119557Y-118844378D01*
X151119144Y-118791137D01*
X151103455Y-118747568D01*
X151083988Y-118682244D01*
X151093975Y-118626110D01*
X151120337Y-118575471D01*
X151172660Y-118501694D01*
X151217531Y-118480276D01*
X151262409Y-118510411D01*
X151294723Y-118556616D01*
X151341431Y-118682712D01*
X151343987Y-118821621D01*
X151307178Y-118960578D01*
X151235789Y-119086818D01*
X151134605Y-119187576D01*
X151038474Y-119240117D01*
X150910626Y-119267520D01*
X150783228Y-119247950D01*
X150688609Y-119206757D01*
X150576653Y-119121729D01*
X150499992Y-119009905D01*
X150467949Y-118885500D01*
X150467545Y-118869670D01*
X150485429Y-118734897D01*
X150533598Y-118607225D01*
X150604580Y-118494948D01*
X150690903Y-118406357D01*
X150785095Y-118349744D01*
X150879684Y-118333402D01*
X150937492Y-118348142D01*
G37*
X150937492Y-118348142D02*
X150968106Y-118365510D01*
X150975740Y-118389691D01*
X150960349Y-118436910D01*
X150937083Y-118489619D01*
X150891077Y-118570529D01*
X150844430Y-118604614D01*
X150826245Y-118606956D01*
X150772384Y-118631471D01*
X150730139Y-118692929D01*
X150707145Y-118773198D01*
X150711036Y-118854148D01*
X150715840Y-118869163D01*
X150764864Y-118934051D01*
X150843622Y-118981848D01*
X150929199Y-119001502D01*
X150975918Y-118994601D01*
X151032258Y-118957961D01*
X151084908Y-118902662D01*
X151119557Y-118844378D01*
X151119144Y-118791137D01*
X151103455Y-118747568D01*
X151083988Y-118682244D01*
X151093975Y-118626110D01*
X151120337Y-118575471D01*
X151172660Y-118501694D01*
X151217531Y-118480276D01*
X151262409Y-118510411D01*
X151294723Y-118556616D01*
X151341431Y-118682712D01*
X151343987Y-118821621D01*
X151307178Y-118960578D01*
X151235789Y-119086818D01*
X151134605Y-119187576D01*
X151038474Y-119240117D01*
X150910626Y-119267520D01*
X150783228Y-119247950D01*
X150688609Y-119206757D01*
X150576653Y-119121729D01*
X150499992Y-119009905D01*
X150467949Y-118885500D01*
X150467545Y-118869670D01*
X150485429Y-118734897D01*
X150533598Y-118607225D01*
X150604580Y-118494948D01*
X150690903Y-118406357D01*
X150785095Y-118349744D01*
X150879684Y-118333402D01*
X150937492Y-118348142D01*
G36*
X141298532Y-117855965D02*
G01*
X141323489Y-117921069D01*
X141324586Y-117925000D01*
X141334680Y-117998286D01*
X141310491Y-118054255D01*
X141293812Y-118074200D01*
X141261901Y-118116646D01*
X141252313Y-118160897D01*
X141262676Y-118228058D01*
X141272137Y-118267094D01*
X141306126Y-118377203D01*
X141343535Y-118440926D01*
X141390428Y-118467032D01*
X141411739Y-118468913D01*
X141472000Y-118489750D01*
X141514484Y-118555823D01*
X141534984Y-118627663D01*
X141554170Y-118717391D01*
X141407031Y-118713587D01*
X141310482Y-118707913D01*
X141182439Y-118696144D01*
X141045997Y-118680493D01*
X141004197Y-118675008D01*
X140888032Y-118658275D01*
X140790708Y-118642536D01*
X140726637Y-118630200D01*
X140711695Y-118626108D01*
X140683106Y-118593027D01*
X140652270Y-118525070D01*
X140638890Y-118483412D01*
X140624757Y-118424566D01*
X140922598Y-118424566D01*
X140965485Y-118439428D01*
X141011413Y-118441304D01*
X141075324Y-118438284D01*
X141107224Y-118430859D01*
X141108043Y-118429297D01*
X141099265Y-118397555D01*
X141079590Y-118342452D01*
X141051137Y-118267614D01*
X140982960Y-118331663D01*
X140928882Y-118390414D01*
X140922598Y-118424566D01*
X140624757Y-118424566D01*
X140619167Y-118401292D01*
X140619020Y-118353416D01*
X140638729Y-118322294D01*
X140641500Y-118319705D01*
X140761985Y-118212489D01*
X140884876Y-118107362D01*
X141002689Y-118010261D01*
X141107938Y-117927123D01*
X141193140Y-117863883D01*
X141250807Y-117826479D01*
X141272419Y-117819319D01*
X141298532Y-117855965D01*
G37*
X141298532Y-117855965D02*
X141323489Y-117921069D01*
X141324586Y-117925000D01*
X141334680Y-117998286D01*
X141310491Y-118054255D01*
X141293812Y-118074200D01*
X141261901Y-118116646D01*
X141252313Y-118160897D01*
X141262676Y-118228058D01*
X141272137Y-118267094D01*
X141306126Y-118377203D01*
X141343535Y-118440926D01*
X141390428Y-118467032D01*
X141411739Y-118468913D01*
X141472000Y-118489750D01*
X141514484Y-118555823D01*
X141534984Y-118627663D01*
X141554170Y-118717391D01*
X141407031Y-118713587D01*
X141310482Y-118707913D01*
X141182439Y-118696144D01*
X141045997Y-118680493D01*
X141004197Y-118675008D01*
X140888032Y-118658275D01*
X140790708Y-118642536D01*
X140726637Y-118630200D01*
X140711695Y-118626108D01*
X140683106Y-118593027D01*
X140652270Y-118525070D01*
X140638890Y-118483412D01*
X140624757Y-118424566D01*
X140922598Y-118424566D01*
X140965485Y-118439428D01*
X141011413Y-118441304D01*
X141075324Y-118438284D01*
X141107224Y-118430859D01*
X141108043Y-118429297D01*
X141099265Y-118397555D01*
X141079590Y-118342452D01*
X141051137Y-118267614D01*
X140982960Y-118331663D01*
X140928882Y-118390414D01*
X140922598Y-118424566D01*
X140624757Y-118424566D01*
X140619167Y-118401292D01*
X140619020Y-118353416D01*
X140638729Y-118322294D01*
X140641500Y-118319705D01*
X140761985Y-118212489D01*
X140884876Y-118107362D01*
X141002689Y-118010261D01*
X141107938Y-117927123D01*
X141193140Y-117863883D01*
X141250807Y-117826479D01*
X141272419Y-117819319D01*
X141298532Y-117855965D01*
G36*
X149519284Y-115031240D02*
G01*
X149569727Y-115104790D01*
X149626382Y-115205910D01*
X149682968Y-115322422D01*
X149733201Y-115442149D01*
X149770797Y-115552912D01*
X149774151Y-115564983D01*
X149826719Y-115858982D01*
X149825492Y-116146139D01*
X149771809Y-116422663D01*
X149667006Y-116684761D01*
X149512423Y-116928643D01*
X149309397Y-117150517D01*
X149174453Y-117264192D01*
X149059105Y-117347238D01*
X148940389Y-117419567D01*
X148808653Y-117485453D01*
X148654246Y-117549165D01*
X148467516Y-117614975D01*
X148238812Y-117687155D01*
X148175869Y-117706121D01*
X147981916Y-117776164D01*
X147833873Y-117859042D01*
X147722803Y-117961233D01*
X147639765Y-118089214D01*
X147635607Y-118097594D01*
X147591903Y-118177138D01*
X147552842Y-118231567D01*
X147530727Y-118247774D01*
X147489817Y-118236510D01*
X147418028Y-118207841D01*
X147361413Y-118182244D01*
X147194832Y-118075716D01*
X147071380Y-117935581D01*
X146993126Y-117765147D01*
X146962137Y-117567722D01*
X146961693Y-117542540D01*
X146987399Y-117350091D01*
X147066115Y-117172262D01*
X147198064Y-117008600D01*
X147246563Y-116963509D01*
X147328542Y-116902607D01*
X147450586Y-116826035D01*
X147601869Y-116739555D01*
X147771564Y-116648924D01*
X147948846Y-116559903D01*
X148122890Y-116478251D01*
X148282869Y-116409727D01*
X148301259Y-116402402D01*
X148554472Y-116295896D01*
X148760312Y-116193979D01*
X148925943Y-116092595D01*
X149058526Y-115987689D01*
X149094642Y-115953214D01*
X149255324Y-115760978D01*
X149364565Y-115554422D01*
X149425675Y-115326398D01*
X149438688Y-115210102D01*
X149449234Y-115103173D01*
X149463076Y-115028952D01*
X149478173Y-114997612D01*
X149481337Y-114997438D01*
X149519284Y-115031240D01*
G37*
X149519284Y-115031240D02*
X149569727Y-115104790D01*
X149626382Y-115205910D01*
X149682968Y-115322422D01*
X149733201Y-115442149D01*
X149770797Y-115552912D01*
X149774151Y-115564983D01*
X149826719Y-115858982D01*
X149825492Y-116146139D01*
X149771809Y-116422663D01*
X149667006Y-116684761D01*
X149512423Y-116928643D01*
X149309397Y-117150517D01*
X149174453Y-117264192D01*
X149059105Y-117347238D01*
X148940389Y-117419567D01*
X148808653Y-117485453D01*
X148654246Y-117549165D01*
X148467516Y-117614975D01*
X148238812Y-117687155D01*
X148175869Y-117706121D01*
X147981916Y-117776164D01*
X147833873Y-117859042D01*
X147722803Y-117961233D01*
X147639765Y-118089214D01*
X147635607Y-118097594D01*
X147591903Y-118177138D01*
X147552842Y-118231567D01*
X147530727Y-118247774D01*
X147489817Y-118236510D01*
X147418028Y-118207841D01*
X147361413Y-118182244D01*
X147194832Y-118075716D01*
X147071380Y-117935581D01*
X146993126Y-117765147D01*
X146962137Y-117567722D01*
X146961693Y-117542540D01*
X146987399Y-117350091D01*
X147066115Y-117172262D01*
X147198064Y-117008600D01*
X147246563Y-116963509D01*
X147328542Y-116902607D01*
X147450586Y-116826035D01*
X147601869Y-116739555D01*
X147771564Y-116648924D01*
X147948846Y-116559903D01*
X148122890Y-116478251D01*
X148282869Y-116409727D01*
X148301259Y-116402402D01*
X148554472Y-116295896D01*
X148760312Y-116193979D01*
X148925943Y-116092595D01*
X149058526Y-115987689D01*
X149094642Y-115953214D01*
X149255324Y-115760978D01*
X149364565Y-115554422D01*
X149425675Y-115326398D01*
X149438688Y-115210102D01*
X149449234Y-115103173D01*
X149463076Y-115028952D01*
X149478173Y-114997612D01*
X149481337Y-114997438D01*
X149519284Y-115031240D01*
G36*
X150933376Y-117788494D02*
G01*
X151043099Y-117808049D01*
X151195366Y-117841354D01*
X151295731Y-117864254D01*
X151419911Y-117893391D01*
X151499868Y-117915589D01*
X151545316Y-117935721D01*
X151565971Y-117958658D01*
X151571550Y-117989272D01*
X151571739Y-118002656D01*
X151568958Y-118071997D01*
X151555873Y-118120290D01*
X151525373Y-118148693D01*
X151470348Y-118158368D01*
X151383687Y-118150474D01*
X151258278Y-118126170D01*
X151087010Y-118086617D01*
X151074783Y-118083703D01*
X150757283Y-118007987D01*
X150765164Y-117927852D01*
X150772633Y-117865420D01*
X150785825Y-117821151D01*
X150812103Y-117794162D01*
X150858832Y-117783571D01*
X150933376Y-117788494D01*
G37*
X150933376Y-117788494D02*
X151043099Y-117808049D01*
X151195366Y-117841354D01*
X151295731Y-117864254D01*
X151419911Y-117893391D01*
X151499868Y-117915589D01*
X151545316Y-117935721D01*
X151565971Y-117958658D01*
X151571550Y-117989272D01*
X151571739Y-118002656D01*
X151568958Y-118071997D01*
X151555873Y-118120290D01*
X151525373Y-118148693D01*
X151470348Y-118158368D01*
X151383687Y-118150474D01*
X151258278Y-118126170D01*
X151087010Y-118086617D01*
X151074783Y-118083703D01*
X150757283Y-118007987D01*
X150765164Y-117927852D01*
X150772633Y-117865420D01*
X150785825Y-117821151D01*
X150812103Y-117794162D01*
X150858832Y-117783571D01*
X150933376Y-117788494D01*
G36*
X141202987Y-116937350D02*
G01*
X141208472Y-117019912D01*
X141180751Y-117066574D01*
X141111742Y-117085934D01*
X141061358Y-117088055D01*
X140983745Y-117098861D01*
X140951334Y-117135663D01*
X140957107Y-117206516D01*
X140957334Y-117207422D01*
X140995367Y-117265946D01*
X141082184Y-117321991D01*
X141110026Y-117335180D01*
X141188517Y-117373038D01*
X141228944Y-117406004D01*
X141243927Y-117451098D01*
X141246087Y-117518662D01*
X141240657Y-117591974D01*
X141226946Y-117635476D01*
X141219217Y-117640652D01*
X141180436Y-117629378D01*
X141111624Y-117600658D01*
X141067852Y-117580168D01*
X140943358Y-117519684D01*
X140880755Y-117576545D01*
X140774550Y-117637779D01*
X140651116Y-117652470D01*
X140621420Y-117648520D01*
X140535682Y-117605214D01*
X140469516Y-117511018D01*
X140423235Y-117366791D01*
X140403335Y-117219238D01*
X140605140Y-117219238D01*
X140606864Y-117240326D01*
X140618126Y-117330269D01*
X140636037Y-117376131D01*
X140666898Y-117389049D01*
X140689585Y-117386552D01*
X140720823Y-117362997D01*
X140738458Y-117300513D01*
X140743822Y-117244992D01*
X140747276Y-117165549D01*
X140739241Y-117127698D01*
X140712211Y-117117955D01*
X140674800Y-117121001D01*
X140625503Y-117131389D01*
X140605507Y-117158471D01*
X140605140Y-117219238D01*
X140403335Y-117219238D01*
X140397151Y-117173393D01*
X140391121Y-117015627D01*
X140391854Y-116967455D01*
X140399965Y-116931968D01*
X140423010Y-116906617D01*
X140468546Y-116888853D01*
X140544127Y-116876129D01*
X140657310Y-116865898D01*
X140815651Y-116855610D01*
X140876578Y-116851922D01*
X141183481Y-116833375D01*
X141202987Y-116937350D01*
G37*
X141202987Y-116937350D02*
X141208472Y-117019912D01*
X141180751Y-117066574D01*
X141111742Y-117085934D01*
X141061358Y-117088055D01*
X140983745Y-117098861D01*
X140951334Y-117135663D01*
X140957107Y-117206516D01*
X140957334Y-117207422D01*
X140995367Y-117265946D01*
X141082184Y-117321991D01*
X141110026Y-117335180D01*
X141188517Y-117373038D01*
X141228944Y-117406004D01*
X141243927Y-117451098D01*
X141246087Y-117518662D01*
X141240657Y-117591974D01*
X141226946Y-117635476D01*
X141219217Y-117640652D01*
X141180436Y-117629378D01*
X141111624Y-117600658D01*
X141067852Y-117580168D01*
X140943358Y-117519684D01*
X140880755Y-117576545D01*
X140774550Y-117637779D01*
X140651116Y-117652470D01*
X140621420Y-117648520D01*
X140535682Y-117605214D01*
X140469516Y-117511018D01*
X140423235Y-117366791D01*
X140403335Y-117219238D01*
X140605140Y-117219238D01*
X140606864Y-117240326D01*
X140618126Y-117330269D01*
X140636037Y-117376131D01*
X140666898Y-117389049D01*
X140689585Y-117386552D01*
X140720823Y-117362997D01*
X140738458Y-117300513D01*
X140743822Y-117244992D01*
X140747276Y-117165549D01*
X140739241Y-117127698D01*
X140712211Y-117117955D01*
X140674800Y-117121001D01*
X140625503Y-117131389D01*
X140605507Y-117158471D01*
X140605140Y-117219238D01*
X140403335Y-117219238D01*
X140397151Y-117173393D01*
X140391121Y-117015627D01*
X140391854Y-116967455D01*
X140399965Y-116931968D01*
X140423010Y-116906617D01*
X140468546Y-116888853D01*
X140544127Y-116876129D01*
X140657310Y-116865898D01*
X140815651Y-116855610D01*
X140876578Y-116851922D01*
X141183481Y-116833375D01*
X141202987Y-116937350D01*
G36*
X151102391Y-117220612D02*
G01*
X151385380Y-117244273D01*
X151668369Y-117267935D01*
X151668369Y-117392174D01*
X151668032Y-117444589D01*
X151661808Y-117481761D01*
X151641882Y-117505525D01*
X151600439Y-117517718D01*
X151529661Y-117520174D01*
X151421733Y-117514729D01*
X151268839Y-117503219D01*
X151213845Y-117498921D01*
X151087012Y-117487483D01*
X150981180Y-117475000D01*
X150908055Y-117463048D01*
X150879775Y-117453932D01*
X150874173Y-117419779D01*
X150872212Y-117342339D01*
X150873927Y-117233424D01*
X150878756Y-117116087D01*
X150895326Y-116798587D01*
X150998859Y-116790018D01*
X151102391Y-116781449D01*
X151102391Y-117220612D01*
G37*
X151102391Y-117220612D02*
X151385380Y-117244273D01*
X151668369Y-117267935D01*
X151668369Y-117392174D01*
X151668032Y-117444589D01*
X151661808Y-117481761D01*
X151641882Y-117505525D01*
X151600439Y-117517718D01*
X151529661Y-117520174D01*
X151421733Y-117514729D01*
X151268839Y-117503219D01*
X151213845Y-117498921D01*
X151087012Y-117487483D01*
X150981180Y-117475000D01*
X150908055Y-117463048D01*
X150879775Y-117453932D01*
X150874173Y-117419779D01*
X150872212Y-117342339D01*
X150873927Y-117233424D01*
X150878756Y-117116087D01*
X150895326Y-116798587D01*
X150998859Y-116790018D01*
X151102391Y-116781449D01*
X151102391Y-117220612D01*
G36*
X148924176Y-114454599D02*
G01*
X148975829Y-114518831D01*
X149033081Y-114611899D01*
X149073365Y-114691948D01*
X149113634Y-114792848D01*
X149136459Y-114886312D01*
X149146243Y-114995798D01*
X149147696Y-115087940D01*
X149131667Y-115291019D01*
X149081198Y-115469292D01*
X148992713Y-115626798D01*
X148862637Y-115767576D01*
X148687393Y-115895667D01*
X148463407Y-116015108D01*
X148244891Y-116107861D01*
X147996473Y-116211351D01*
X147751920Y-116325773D01*
X147522462Y-116445163D01*
X147319330Y-116563557D01*
X147153753Y-116674988D01*
X147102703Y-116714522D01*
X147009804Y-116789355D01*
X146933835Y-116849074D01*
X146884216Y-116886363D01*
X146870051Y-116895217D01*
X146857172Y-116871080D01*
X146834287Y-116808233D01*
X146810181Y-116732676D01*
X146783304Y-116620562D01*
X146770935Y-116499963D01*
X146771247Y-116350263D01*
X146772823Y-116311644D01*
X146781757Y-116175419D01*
X146797235Y-116072564D01*
X146824313Y-115981251D01*
X146868046Y-115879652D01*
X146877451Y-115859891D01*
X146919531Y-115776369D01*
X146963685Y-115700361D01*
X147014028Y-115628637D01*
X147074674Y-115557963D01*
X147149740Y-115485108D01*
X147243338Y-115406840D01*
X147359585Y-115319926D01*
X147502594Y-115221134D01*
X147676482Y-115107231D01*
X147885362Y-114974987D01*
X148133350Y-114821168D01*
X148424560Y-114642543D01*
X148436669Y-114635139D01*
X148849317Y-114382880D01*
X148924176Y-114454599D01*
G37*
X148924176Y-114454599D02*
X148975829Y-114518831D01*
X149033081Y-114611899D01*
X149073365Y-114691948D01*
X149113634Y-114792848D01*
X149136459Y-114886312D01*
X149146243Y-114995798D01*
X149147696Y-115087940D01*
X149131667Y-115291019D01*
X149081198Y-115469292D01*
X148992713Y-115626798D01*
X148862637Y-115767576D01*
X148687393Y-115895667D01*
X148463407Y-116015108D01*
X148244891Y-116107861D01*
X147996473Y-116211351D01*
X147751920Y-116325773D01*
X147522462Y-116445163D01*
X147319330Y-116563557D01*
X147153753Y-116674988D01*
X147102703Y-116714522D01*
X147009804Y-116789355D01*
X146933835Y-116849074D01*
X146884216Y-116886363D01*
X146870051Y-116895217D01*
X146857172Y-116871080D01*
X146834287Y-116808233D01*
X146810181Y-116732676D01*
X146783304Y-116620562D01*
X146770935Y-116499963D01*
X146771247Y-116350263D01*
X146772823Y-116311644D01*
X146781757Y-116175419D01*
X146797235Y-116072564D01*
X146824313Y-115981251D01*
X146868046Y-115879652D01*
X146877451Y-115859891D01*
X146919531Y-115776369D01*
X146963685Y-115700361D01*
X147014028Y-115628637D01*
X147074674Y-115557963D01*
X147149740Y-115485108D01*
X147243338Y-115406840D01*
X147359585Y-115319926D01*
X147502594Y-115221134D01*
X147676482Y-115107231D01*
X147885362Y-114974987D01*
X148133350Y-114821168D01*
X148424560Y-114642543D01*
X148436669Y-114635139D01*
X148849317Y-114382880D01*
X148924176Y-114454599D01*
G36*
X140614293Y-115776183D02*
G01*
X140744067Y-115790011D01*
X140827622Y-115801606D01*
X140958380Y-115819808D01*
X141075150Y-115834409D01*
X141163324Y-115843676D01*
X141202793Y-115846087D01*
X141235298Y-115849082D01*
X141257068Y-115863280D01*
X141268704Y-115896500D01*
X141270811Y-115956562D01*
X141263990Y-116051286D01*
X141248843Y-116188490D01*
X141236822Y-116287826D01*
X141204674Y-116550109D01*
X141098930Y-116558809D01*
X140993186Y-116567510D01*
X141010922Y-116406961D01*
X141023187Y-116304650D01*
X141035672Y-116214024D01*
X141042358Y-116173117D01*
X141040287Y-116110344D01*
X141014456Y-116074858D01*
X140975963Y-116079124D01*
X140966080Y-116087442D01*
X140948953Y-116126778D01*
X140929748Y-116204207D01*
X140912639Y-116302853D01*
X140898142Y-116398104D01*
X140885481Y-116468801D01*
X140877322Y-116500112D01*
X140877151Y-116500313D01*
X140847061Y-116501460D01*
X140785559Y-116492485D01*
X140778891Y-116491180D01*
X140689397Y-116473282D01*
X140707373Y-116318434D01*
X140718318Y-116222215D01*
X140727058Y-116141951D01*
X140730337Y-116109427D01*
X140715079Y-116060405D01*
X140690450Y-116045946D01*
X140666416Y-116050417D01*
X140648809Y-116082026D01*
X140634398Y-116150415D01*
X140621428Y-116251953D01*
X140608081Y-116360133D01*
X140594769Y-116424997D01*
X140576602Y-116458225D01*
X140548687Y-116471497D01*
X140528261Y-116474435D01*
X140472000Y-116476812D01*
X140434943Y-116464658D01*
X140414764Y-116429758D01*
X140409141Y-116363895D01*
X140415749Y-116258855D01*
X140429918Y-116126775D01*
X140446658Y-115999596D01*
X140464813Y-115892009D01*
X140482052Y-115816320D01*
X140494546Y-115785932D01*
X140532415Y-115774885D01*
X140614293Y-115776183D01*
G37*
X140614293Y-115776183D02*
X140744067Y-115790011D01*
X140827622Y-115801606D01*
X140958380Y-115819808D01*
X141075150Y-115834409D01*
X141163324Y-115843676D01*
X141202793Y-115846087D01*
X141235298Y-115849082D01*
X141257068Y-115863280D01*
X141268704Y-115896500D01*
X141270811Y-115956562D01*
X141263990Y-116051286D01*
X141248843Y-116188490D01*
X141236822Y-116287826D01*
X141204674Y-116550109D01*
X141098930Y-116558809D01*
X140993186Y-116567510D01*
X141010922Y-116406961D01*
X141023187Y-116304650D01*
X141035672Y-116214024D01*
X141042358Y-116173117D01*
X141040287Y-116110344D01*
X141014456Y-116074858D01*
X140975963Y-116079124D01*
X140966080Y-116087442D01*
X140948953Y-116126778D01*
X140929748Y-116204207D01*
X140912639Y-116302853D01*
X140898142Y-116398104D01*
X140885481Y-116468801D01*
X140877322Y-116500112D01*
X140877151Y-116500313D01*
X140847061Y-116501460D01*
X140785559Y-116492485D01*
X140778891Y-116491180D01*
X140689397Y-116473282D01*
X140707373Y-116318434D01*
X140718318Y-116222215D01*
X140727058Y-116141951D01*
X140730337Y-116109427D01*
X140715079Y-116060405D01*
X140690450Y-116045946D01*
X140666416Y-116050417D01*
X140648809Y-116082026D01*
X140634398Y-116150415D01*
X140621428Y-116251953D01*
X140608081Y-116360133D01*
X140594769Y-116424997D01*
X140576602Y-116458225D01*
X140548687Y-116471497D01*
X140528261Y-116474435D01*
X140472000Y-116476812D01*
X140434943Y-116464658D01*
X140414764Y-116429758D01*
X140409141Y-116363895D01*
X140415749Y-116258855D01*
X140429918Y-116126775D01*
X140446658Y-115999596D01*
X140464813Y-115892009D01*
X140482052Y-115816320D01*
X140494546Y-115785932D01*
X140532415Y-115774885D01*
X140614293Y-115776183D01*
G36*
X151659460Y-116221830D02*
G01*
X151673974Y-116255950D01*
X151681756Y-116323233D01*
X151682174Y-116344147D01*
X151680716Y-116395963D01*
X151670356Y-116431752D01*
X151642114Y-116455429D01*
X151587011Y-116470914D01*
X151496067Y-116482122D01*
X151360303Y-116492970D01*
X151337065Y-116494694D01*
X151214104Y-116504689D01*
X151096525Y-116515723D01*
X151008054Y-116525555D01*
X151002012Y-116526347D01*
X150887829Y-116541628D01*
X150874999Y-116421629D01*
X150870637Y-116344381D01*
X150874863Y-116292265D01*
X150878748Y-116283294D01*
X150911378Y-116274231D01*
X150986683Y-116263478D01*
X151092182Y-116252018D01*
X151215396Y-116240833D01*
X151343847Y-116230907D01*
X151465055Y-116223220D01*
X151566541Y-116218756D01*
X151635827Y-116218497D01*
X151659460Y-116221830D01*
G37*
X151659460Y-116221830D02*
X151673974Y-116255950D01*
X151681756Y-116323233D01*
X151682174Y-116344147D01*
X151680716Y-116395963D01*
X151670356Y-116431752D01*
X151642114Y-116455429D01*
X151587011Y-116470914D01*
X151496067Y-116482122D01*
X151360303Y-116492970D01*
X151337065Y-116494694D01*
X151214104Y-116504689D01*
X151096525Y-116515723D01*
X151008054Y-116525555D01*
X151002012Y-116526347D01*
X150887829Y-116541628D01*
X150874999Y-116421629D01*
X150870637Y-116344381D01*
X150874863Y-116292265D01*
X150878748Y-116283294D01*
X150911378Y-116274231D01*
X150986683Y-116263478D01*
X151092182Y-116252018D01*
X151215396Y-116240833D01*
X151343847Y-116230907D01*
X151465055Y-116223220D01*
X151566541Y-116218756D01*
X151635827Y-116218497D01*
X151659460Y-116221830D01*
G36*
X150661987Y-115116869D02*
G01*
X150738666Y-115125333D01*
X150849558Y-115140640D01*
X150984574Y-115161455D01*
X151047769Y-115171806D01*
X151190103Y-115195342D01*
X151312594Y-115215247D01*
X151405151Y-115229908D01*
X151457684Y-115237713D01*
X151465453Y-115238560D01*
X151481238Y-115262680D01*
X151501394Y-115322061D01*
X151521165Y-115397507D01*
X151535794Y-115469820D01*
X151540524Y-115519804D01*
X151537757Y-115530359D01*
X151500890Y-115562379D01*
X151432865Y-115617329D01*
X151343078Y-115688006D01*
X151240927Y-115767208D01*
X151135811Y-115847734D01*
X151037128Y-115922379D01*
X150954274Y-115983943D01*
X150896649Y-116025223D01*
X150873936Y-116039097D01*
X150849616Y-116016534D01*
X150825621Y-115968529D01*
X150800709Y-115868667D01*
X150816395Y-115798484D01*
X150856005Y-115759553D01*
X150888763Y-115732705D01*
X150900297Y-115699071D01*
X150892970Y-115641051D01*
X150879629Y-115583631D01*
X150850899Y-115484837D01*
X151065184Y-115484837D01*
X151068025Y-115500978D01*
X151085159Y-115553734D01*
X151114718Y-115564712D01*
X151166187Y-115533974D01*
X151204384Y-115501851D01*
X151281848Y-115433701D01*
X151168339Y-115432829D01*
X151096933Y-115435034D01*
X151067079Y-115449292D01*
X151065184Y-115484837D01*
X150850899Y-115484837D01*
X150847621Y-115473565D01*
X150813830Y-115409027D01*
X150771924Y-115380514D01*
X150741727Y-115376739D01*
X150689149Y-115361558D01*
X150672444Y-115345874D01*
X150650634Y-115293379D01*
X150633101Y-115223550D01*
X150623924Y-115158226D01*
X150627183Y-115119246D01*
X150629611Y-115116578D01*
X150661987Y-115116869D01*
G37*
X150661987Y-115116869D02*
X150738666Y-115125333D01*
X150849558Y-115140640D01*
X150984574Y-115161455D01*
X151047769Y-115171806D01*
X151190103Y-115195342D01*
X151312594Y-115215247D01*
X151405151Y-115229908D01*
X151457684Y-115237713D01*
X151465453Y-115238560D01*
X151481238Y-115262680D01*
X151501394Y-115322061D01*
X151521165Y-115397507D01*
X151535794Y-115469820D01*
X151540524Y-115519804D01*
X151537757Y-115530359D01*
X151500890Y-115562379D01*
X151432865Y-115617329D01*
X151343078Y-115688006D01*
X151240927Y-115767208D01*
X151135811Y-115847734D01*
X151037128Y-115922379D01*
X150954274Y-115983943D01*
X150896649Y-116025223D01*
X150873936Y-116039097D01*
X150849616Y-116016534D01*
X150825621Y-115968529D01*
X150800709Y-115868667D01*
X150816395Y-115798484D01*
X150856005Y-115759553D01*
X150888763Y-115732705D01*
X150900297Y-115699071D01*
X150892970Y-115641051D01*
X150879629Y-115583631D01*
X150850899Y-115484837D01*
X151065184Y-115484837D01*
X151068025Y-115500978D01*
X151085159Y-115553734D01*
X151114718Y-115564712D01*
X151166187Y-115533974D01*
X151204384Y-115501851D01*
X151281848Y-115433701D01*
X151168339Y-115432829D01*
X151096933Y-115435034D01*
X151067079Y-115449292D01*
X151065184Y-115484837D01*
X150850899Y-115484837D01*
X150847621Y-115473565D01*
X150813830Y-115409027D01*
X150771924Y-115380514D01*
X150741727Y-115376739D01*
X150689149Y-115361558D01*
X150672444Y-115345874D01*
X150650634Y-115293379D01*
X150633101Y-115223550D01*
X150623924Y-115158226D01*
X150627183Y-115119246D01*
X150629611Y-115116578D01*
X150661987Y-115116869D01*
G36*
X140909207Y-114535454D02*
G01*
X140985179Y-114555521D01*
X141088453Y-114587227D01*
X141206917Y-114626463D01*
X141328458Y-114669125D01*
X141440965Y-114711105D01*
X141532327Y-114748297D01*
X141581018Y-114771289D01*
X141609943Y-114796535D01*
X141612148Y-114838853D01*
X141597892Y-114893233D01*
X141572499Y-114953777D01*
X141536018Y-114983456D01*
X141477539Y-114983903D01*
X141386151Y-114956754D01*
X141326219Y-114933938D01*
X141243839Y-114904239D01*
X141182552Y-114887221D01*
X141161495Y-114885623D01*
X141165246Y-114910980D01*
X141192967Y-114972915D01*
X141239646Y-115061006D01*
X141278070Y-115127853D01*
X141341361Y-115236673D01*
X141379929Y-115311205D01*
X141397849Y-115364274D01*
X141399192Y-115408708D01*
X141388031Y-115457334D01*
X141385446Y-115466060D01*
X141350682Y-115543088D01*
X141307952Y-115566951D01*
X141307098Y-115566903D01*
X141263673Y-115556410D01*
X141180746Y-115530177D01*
X141070381Y-115492205D01*
X140949361Y-115448253D01*
X140825963Y-115400960D01*
X140720938Y-115358138D01*
X140645570Y-115324559D01*
X140611382Y-115305252D01*
X140598952Y-115259163D01*
X140614317Y-115194976D01*
X140647788Y-115135139D01*
X140689679Y-115102100D01*
X140699670Y-115100652D01*
X140752020Y-115110121D01*
X140833699Y-115134420D01*
X140892134Y-115155214D01*
X140972668Y-115183149D01*
X141029809Y-115197983D01*
X141047494Y-115198013D01*
X141039741Y-115170677D01*
X141009244Y-115106930D01*
X140961506Y-115017808D01*
X140929302Y-114960945D01*
X140866732Y-114848467D01*
X140829819Y-114769027D01*
X140813962Y-114709476D01*
X140814558Y-114656664D01*
X140817175Y-114640609D01*
X140839071Y-114572794D01*
X140868968Y-114532945D01*
X140872649Y-114531130D01*
X140909207Y-114535454D01*
G37*
X140909207Y-114535454D02*
X140985179Y-114555521D01*
X141088453Y-114587227D01*
X141206917Y-114626463D01*
X141328458Y-114669125D01*
X141440965Y-114711105D01*
X141532327Y-114748297D01*
X141581018Y-114771289D01*
X141609943Y-114796535D01*
X141612148Y-114838853D01*
X141597892Y-114893233D01*
X141572499Y-114953777D01*
X141536018Y-114983456D01*
X141477539Y-114983903D01*
X141386151Y-114956754D01*
X141326219Y-114933938D01*
X141243839Y-114904239D01*
X141182552Y-114887221D01*
X141161495Y-114885623D01*
X141165246Y-114910980D01*
X141192967Y-114972915D01*
X141239646Y-115061006D01*
X141278070Y-115127853D01*
X141341361Y-115236673D01*
X141379929Y-115311205D01*
X141397849Y-115364274D01*
X141399192Y-115408708D01*
X141388031Y-115457334D01*
X141385446Y-115466060D01*
X141350682Y-115543088D01*
X141307952Y-115566951D01*
X141307098Y-115566903D01*
X141263673Y-115556410D01*
X141180746Y-115530177D01*
X141070381Y-115492205D01*
X140949361Y-115448253D01*
X140825963Y-115400960D01*
X140720938Y-115358138D01*
X140645570Y-115324559D01*
X140611382Y-115305252D01*
X140598952Y-115259163D01*
X140614317Y-115194976D01*
X140647788Y-115135139D01*
X140689679Y-115102100D01*
X140699670Y-115100652D01*
X140752020Y-115110121D01*
X140833699Y-115134420D01*
X140892134Y-115155214D01*
X140972668Y-115183149D01*
X141029809Y-115197983D01*
X141047494Y-115198013D01*
X141039741Y-115170677D01*
X141009244Y-115106930D01*
X140961506Y-115017808D01*
X140929302Y-114960945D01*
X140866732Y-114848467D01*
X140829819Y-114769027D01*
X140813962Y-114709476D01*
X140814558Y-114656664D01*
X140817175Y-114640609D01*
X140839071Y-114572794D01*
X140868968Y-114532945D01*
X140872649Y-114531130D01*
X140909207Y-114535454D01*
G36*
X150929994Y-113964380D02*
G01*
X150971063Y-114027874D01*
X151024561Y-114121989D01*
X151084752Y-114237145D01*
X151087322Y-114242260D01*
X151153526Y-114378341D01*
X151194350Y-114473211D01*
X151212139Y-114533414D01*
X151209236Y-114565493D01*
X151204890Y-114570445D01*
X151167090Y-114593643D01*
X151093342Y-114633596D01*
X150995108Y-114684589D01*
X150883848Y-114740905D01*
X150771024Y-114796828D01*
X150668097Y-114846642D01*
X150586527Y-114884631D01*
X150537775Y-114905077D01*
X150529971Y-114907064D01*
X150509786Y-114883924D01*
X150469931Y-114820975D01*
X150415965Y-114727523D01*
X150353443Y-114612877D01*
X150346304Y-114599414D01*
X150183803Y-114292091D01*
X150249673Y-114241442D01*
X150305756Y-114204841D01*
X150344000Y-114190179D01*
X150368459Y-114212982D01*
X150408772Y-114274241D01*
X150457555Y-114362324D01*
X150474591Y-114395975D01*
X150531611Y-114503901D01*
X150574147Y-114565856D01*
X150606663Y-114587734D01*
X150618689Y-114586282D01*
X150651681Y-114563822D01*
X150655569Y-114525390D01*
X150628996Y-114460194D01*
X150595155Y-114399056D01*
X150537214Y-114293008D01*
X150510109Y-114221501D01*
X150513007Y-114173841D01*
X150545075Y-114139334D01*
X150573644Y-114122706D01*
X150631314Y-114099248D01*
X150671372Y-114106731D01*
X150705498Y-114152766D01*
X150739806Y-114230978D01*
X150784857Y-114322229D01*
X150834765Y-114391243D01*
X150880391Y-114427183D01*
X150904981Y-114426803D01*
X150911628Y-114393671D01*
X150887753Y-114319619D01*
X150837976Y-114212938D01*
X150793133Y-114121033D01*
X150761440Y-114050510D01*
X150748311Y-114013602D01*
X150748608Y-114011019D01*
X150792882Y-113984429D01*
X150853768Y-113956949D01*
X150901833Y-113941569D01*
X150907085Y-113941087D01*
X150929994Y-113964380D01*
G37*
X150929994Y-113964380D02*
X150971063Y-114027874D01*
X151024561Y-114121989D01*
X151084752Y-114237145D01*
X151087322Y-114242260D01*
X151153526Y-114378341D01*
X151194350Y-114473211D01*
X151212139Y-114533414D01*
X151209236Y-114565493D01*
X151204890Y-114570445D01*
X151167090Y-114593643D01*
X151093342Y-114633596D01*
X150995108Y-114684589D01*
X150883848Y-114740905D01*
X150771024Y-114796828D01*
X150668097Y-114846642D01*
X150586527Y-114884631D01*
X150537775Y-114905077D01*
X150529971Y-114907064D01*
X150509786Y-114883924D01*
X150469931Y-114820975D01*
X150415965Y-114727523D01*
X150353443Y-114612877D01*
X150346304Y-114599414D01*
X150183803Y-114292091D01*
X150249673Y-114241442D01*
X150305756Y-114204841D01*
X150344000Y-114190179D01*
X150368459Y-114212982D01*
X150408772Y-114274241D01*
X150457555Y-114362324D01*
X150474591Y-114395975D01*
X150531611Y-114503901D01*
X150574147Y-114565856D01*
X150606663Y-114587734D01*
X150618689Y-114586282D01*
X150651681Y-114563822D01*
X150655569Y-114525390D01*
X150628996Y-114460194D01*
X150595155Y-114399056D01*
X150537214Y-114293008D01*
X150510109Y-114221501D01*
X150513007Y-114173841D01*
X150545075Y-114139334D01*
X150573644Y-114122706D01*
X150631314Y-114099248D01*
X150671372Y-114106731D01*
X150705498Y-114152766D01*
X150739806Y-114230978D01*
X150784857Y-114322229D01*
X150834765Y-114391243D01*
X150880391Y-114427183D01*
X150904981Y-114426803D01*
X150911628Y-114393671D01*
X150887753Y-114319619D01*
X150837976Y-114212938D01*
X150793133Y-114121033D01*
X150761440Y-114050510D01*
X150748311Y-114013602D01*
X150748608Y-114011019D01*
X150792882Y-113984429D01*
X150853768Y-113956949D01*
X150901833Y-113941569D01*
X150907085Y-113941087D01*
X150929994Y-113964380D01*
G36*
X141480341Y-113541009D02*
G01*
X141547046Y-113578376D01*
X141638705Y-113632613D01*
X141744649Y-113697105D01*
X141854211Y-113765234D01*
X141956723Y-113830383D01*
X142041517Y-113885936D01*
X142097926Y-113925276D01*
X142115221Y-113940214D01*
X142106215Y-113969673D01*
X142073434Y-114033791D01*
X142023765Y-114121306D01*
X141964091Y-114220953D01*
X141901299Y-114321469D01*
X141842273Y-114411590D01*
X141793899Y-114480053D01*
X141763941Y-114514888D01*
X141715902Y-114526943D01*
X141652925Y-114503536D01*
X141615496Y-114482118D01*
X141597001Y-114459590D01*
X141599771Y-114425921D01*
X141626136Y-114371080D01*
X141678429Y-114285035D01*
X141718370Y-114221903D01*
X141763351Y-114144684D01*
X141792328Y-114082857D01*
X141798261Y-114059921D01*
X141784720Y-114024373D01*
X141748562Y-114031414D01*
X141696484Y-114076840D01*
X141635181Y-114156446D01*
X141628584Y-114166459D01*
X141576502Y-114246563D01*
X141535572Y-114309397D01*
X141517628Y-114336830D01*
X141485701Y-114343393D01*
X141435364Y-114322346D01*
X141386393Y-114285968D01*
X141358561Y-114246536D01*
X141357228Y-114237244D01*
X141371605Y-114197681D01*
X141408391Y-114128095D01*
X141453859Y-114052801D01*
X141512491Y-113957532D01*
X141541710Y-113898986D01*
X141543996Y-113868811D01*
X141521828Y-113858655D01*
X141511612Y-113858261D01*
X141479318Y-113879977D01*
X141428388Y-113937474D01*
X141368742Y-114019270D01*
X141356522Y-114037717D01*
X141299148Y-114122498D01*
X141252433Y-114185507D01*
X141224821Y-114215506D01*
X141222137Y-114216560D01*
X141190044Y-114200921D01*
X141137279Y-114164151D01*
X141136964Y-114163909D01*
X141069255Y-114111873D01*
X141203621Y-113895339D01*
X141269003Y-113789410D01*
X141328071Y-113692717D01*
X141371245Y-113620977D01*
X141381765Y-113603055D01*
X141418964Y-113550281D01*
X141448509Y-113527172D01*
X141449257Y-113527131D01*
X141480341Y-113541009D01*
G37*
X141480341Y-113541009D02*
X141547046Y-113578376D01*
X141638705Y-113632613D01*
X141744649Y-113697105D01*
X141854211Y-113765234D01*
X141956723Y-113830383D01*
X142041517Y-113885936D01*
X142097926Y-113925276D01*
X142115221Y-113940214D01*
X142106215Y-113969673D01*
X142073434Y-114033791D01*
X142023765Y-114121306D01*
X141964091Y-114220953D01*
X141901299Y-114321469D01*
X141842273Y-114411590D01*
X141793899Y-114480053D01*
X141763941Y-114514888D01*
X141715902Y-114526943D01*
X141652925Y-114503536D01*
X141615496Y-114482118D01*
X141597001Y-114459590D01*
X141599771Y-114425921D01*
X141626136Y-114371080D01*
X141678429Y-114285035D01*
X141718370Y-114221903D01*
X141763351Y-114144684D01*
X141792328Y-114082857D01*
X141798261Y-114059921D01*
X141784720Y-114024373D01*
X141748562Y-114031414D01*
X141696484Y-114076840D01*
X141635181Y-114156446D01*
X141628584Y-114166459D01*
X141576502Y-114246563D01*
X141535572Y-114309397D01*
X141517628Y-114336830D01*
X141485701Y-114343393D01*
X141435364Y-114322346D01*
X141386393Y-114285968D01*
X141358561Y-114246536D01*
X141357228Y-114237244D01*
X141371605Y-114197681D01*
X141408391Y-114128095D01*
X141453859Y-114052801D01*
X141512491Y-113957532D01*
X141541710Y-113898986D01*
X141543996Y-113868811D01*
X141521828Y-113858655D01*
X141511612Y-113858261D01*
X141479318Y-113879977D01*
X141428388Y-113937474D01*
X141368742Y-114019270D01*
X141356522Y-114037717D01*
X141299148Y-114122498D01*
X141252433Y-114185507D01*
X141224821Y-114215506D01*
X141222137Y-114216560D01*
X141190044Y-114200921D01*
X141137279Y-114164151D01*
X141136964Y-114163909D01*
X141069255Y-114111873D01*
X141203621Y-113895339D01*
X141269003Y-113789410D01*
X141328071Y-113692717D01*
X141371245Y-113620977D01*
X141381765Y-113603055D01*
X141418964Y-113550281D01*
X141448509Y-113527172D01*
X141449257Y-113527131D01*
X141480341Y-113541009D01*
G36*
X142412720Y-112682163D02*
G01*
X142521695Y-112725708D01*
X142628523Y-112803955D01*
X142711426Y-112899997D01*
X142726256Y-112925567D01*
X142758760Y-113044591D01*
X142748392Y-113179567D01*
X142697388Y-113314599D01*
X142664073Y-113367944D01*
X142571418Y-113474146D01*
X142460357Y-113565992D01*
X142347973Y-113630774D01*
X142281413Y-113652527D01*
X142228668Y-113656030D01*
X142180888Y-113637672D01*
X142122274Y-113589233D01*
X142081250Y-113548386D01*
X142019015Y-113480429D01*
X141976470Y-113425879D01*
X141963913Y-113400634D01*
X141982312Y-113368796D01*
X142030663Y-113311291D01*
X142098698Y-113240284D01*
X142102163Y-113236861D01*
X142240413Y-113100690D01*
X142310352Y-113170628D01*
X142380290Y-113240567D01*
X142323463Y-113312810D01*
X142287510Y-113371601D01*
X142290240Y-113399935D01*
X142323642Y-113396825D01*
X142379703Y-113361285D01*
X142420156Y-113324714D01*
X142495170Y-113225916D01*
X142515629Y-113132801D01*
X142481650Y-113043296D01*
X142438652Y-112993752D01*
X142369927Y-112944684D01*
X142301322Y-112920194D01*
X142291617Y-112919565D01*
X142216728Y-112942783D01*
X142148834Y-112999957D01*
X142107098Y-113072364D01*
X142101956Y-113104843D01*
X142084620Y-113155703D01*
X142041399Y-113213193D01*
X141985474Y-113265742D01*
X141930028Y-113301781D01*
X141888243Y-113309739D01*
X141877754Y-113301639D01*
X141857817Y-113233494D01*
X141855973Y-113138068D01*
X141871036Y-113039825D01*
X141893481Y-112977510D01*
X141974189Y-112866359D01*
X142084755Y-112773827D01*
X142210361Y-112708342D01*
X142336191Y-112678332D01*
X142412720Y-112682163D01*
G37*
X142412720Y-112682163D02*
X142521695Y-112725708D01*
X142628523Y-112803955D01*
X142711426Y-112899997D01*
X142726256Y-112925567D01*
X142758760Y-113044591D01*
X142748392Y-113179567D01*
X142697388Y-113314599D01*
X142664073Y-113367944D01*
X142571418Y-113474146D01*
X142460357Y-113565992D01*
X142347973Y-113630774D01*
X142281413Y-113652527D01*
X142228668Y-113656030D01*
X142180888Y-113637672D01*
X142122274Y-113589233D01*
X142081250Y-113548386D01*
X142019015Y-113480429D01*
X141976470Y-113425879D01*
X141963913Y-113400634D01*
X141982312Y-113368796D01*
X142030663Y-113311291D01*
X142098698Y-113240284D01*
X142102163Y-113236861D01*
X142240413Y-113100690D01*
X142310352Y-113170628D01*
X142380290Y-113240567D01*
X142323463Y-113312810D01*
X142287510Y-113371601D01*
X142290240Y-113399935D01*
X142323642Y-113396825D01*
X142379703Y-113361285D01*
X142420156Y-113324714D01*
X142495170Y-113225916D01*
X142515629Y-113132801D01*
X142481650Y-113043296D01*
X142438652Y-112993752D01*
X142369927Y-112944684D01*
X142301322Y-112920194D01*
X142291617Y-112919565D01*
X142216728Y-112942783D01*
X142148834Y-112999957D01*
X142107098Y-113072364D01*
X142101956Y-113104843D01*
X142084620Y-113155703D01*
X142041399Y-113213193D01*
X141985474Y-113265742D01*
X141930028Y-113301781D01*
X141888243Y-113309739D01*
X141877754Y-113301639D01*
X141857817Y-113233494D01*
X141855973Y-113138068D01*
X141871036Y-113039825D01*
X141893481Y-112977510D01*
X141974189Y-112866359D01*
X142084755Y-112773827D01*
X142210361Y-112708342D01*
X142336191Y-112678332D01*
X142412720Y-112682163D01*
G36*
X149797447Y-112662708D02*
G01*
X149900219Y-112699062D01*
X150002618Y-112762396D01*
X150094987Y-112845959D01*
X150167669Y-112942997D01*
X150211009Y-113046760D01*
X150218913Y-113110160D01*
X150201380Y-113208846D01*
X150150988Y-113277448D01*
X150062393Y-113324622D01*
X149950319Y-113322329D01*
X149815572Y-113270688D01*
X149718934Y-113212555D01*
X149626210Y-113152001D01*
X149569476Y-113121922D01*
X149540138Y-113120216D01*
X149529600Y-113144782D01*
X149528696Y-113166040D01*
X149552691Y-113225851D01*
X149612484Y-113282817D01*
X149689782Y-113322986D01*
X149748476Y-113333696D01*
X149815499Y-113352632D01*
X149882941Y-113398665D01*
X149931113Y-113455634D01*
X149942826Y-113493254D01*
X149918987Y-113540609D01*
X149857368Y-113569119D01*
X149772820Y-113576649D01*
X149680192Y-113561063D01*
X149625326Y-113538912D01*
X149492182Y-113451523D01*
X149388791Y-113347102D01*
X149319046Y-113234170D01*
X149286842Y-113121246D01*
X149296073Y-113016852D01*
X149347984Y-112932115D01*
X149428267Y-112877351D01*
X149520664Y-112866220D01*
X149631580Y-112899380D01*
X149763369Y-112974783D01*
X149877584Y-113045746D01*
X149952983Y-113080350D01*
X149991632Y-113079356D01*
X149998043Y-113061373D01*
X149976452Y-113017557D01*
X149924180Y-112964588D01*
X149859980Y-112917916D01*
X149802604Y-112892989D01*
X149792405Y-112891956D01*
X149743333Y-112873675D01*
X149690156Y-112829173D01*
X149645904Y-112773959D01*
X149623610Y-112723545D01*
X149629406Y-112697950D01*
X149703957Y-112660087D01*
X149797447Y-112662708D01*
G37*
X149797447Y-112662708D02*
X149900219Y-112699062D01*
X150002618Y-112762396D01*
X150094987Y-112845959D01*
X150167669Y-112942997D01*
X150211009Y-113046760D01*
X150218913Y-113110160D01*
X150201380Y-113208846D01*
X150150988Y-113277448D01*
X150062393Y-113324622D01*
X149950319Y-113322329D01*
X149815572Y-113270688D01*
X149718934Y-113212555D01*
X149626210Y-113152001D01*
X149569476Y-113121922D01*
X149540138Y-113120216D01*
X149529600Y-113144782D01*
X149528696Y-113166040D01*
X149552691Y-113225851D01*
X149612484Y-113282817D01*
X149689782Y-113322986D01*
X149748476Y-113333696D01*
X149815499Y-113352632D01*
X149882941Y-113398665D01*
X149931113Y-113455634D01*
X149942826Y-113493254D01*
X149918987Y-113540609D01*
X149857368Y-113569119D01*
X149772820Y-113576649D01*
X149680192Y-113561063D01*
X149625326Y-113538912D01*
X149492182Y-113451523D01*
X149388791Y-113347102D01*
X149319046Y-113234170D01*
X149286842Y-113121246D01*
X149296073Y-113016852D01*
X149347984Y-112932115D01*
X149428267Y-112877351D01*
X149520664Y-112866220D01*
X149631580Y-112899380D01*
X149763369Y-112974783D01*
X149877584Y-113045746D01*
X149952983Y-113080350D01*
X149991632Y-113079356D01*
X149998043Y-113061373D01*
X149976452Y-113017557D01*
X149924180Y-112964588D01*
X149859980Y-112917916D01*
X149802604Y-112892989D01*
X149792405Y-112891956D01*
X149743333Y-112873675D01*
X149690156Y-112829173D01*
X149645904Y-112773959D01*
X149623610Y-112723545D01*
X149629406Y-112697950D01*
X149703957Y-112660087D01*
X149797447Y-112662708D01*
G36*
X148869410Y-111912889D02*
G01*
X148940551Y-111952832D01*
X149034135Y-112010981D01*
X149140048Y-112080444D01*
X149248180Y-112154332D01*
X149348416Y-112225752D01*
X149430645Y-112287813D01*
X149484754Y-112333625D01*
X149501087Y-112354788D01*
X149484912Y-112399433D01*
X149449162Y-112453007D01*
X149397238Y-112517131D01*
X149280423Y-112439826D01*
X149210296Y-112400004D01*
X149158494Y-112382575D01*
X149142851Y-112385663D01*
X149119173Y-112417671D01*
X149073059Y-112484114D01*
X149012523Y-112573367D01*
X148979445Y-112622772D01*
X148915341Y-112715886D01*
X148861561Y-112788403D01*
X148825864Y-112830129D01*
X148816930Y-112836274D01*
X148782803Y-112822326D01*
X148723272Y-112788363D01*
X148707337Y-112778345D01*
X148649962Y-112738730D01*
X148619237Y-112711924D01*
X148617609Y-112708542D01*
X148632029Y-112681713D01*
X148670632Y-112620284D01*
X148726429Y-112535231D01*
X148756552Y-112490297D01*
X148820414Y-112393842D01*
X148872559Y-112311717D01*
X148904900Y-112256800D01*
X148910635Y-112244937D01*
X148898115Y-112203477D01*
X148838463Y-112148533D01*
X148813541Y-112131208D01*
X148701307Y-112056935D01*
X148748236Y-111977489D01*
X148790119Y-111923072D01*
X148828477Y-111898202D01*
X148830825Y-111898043D01*
X148869410Y-111912889D01*
G37*
X148869410Y-111912889D02*
X148940551Y-111952832D01*
X149034135Y-112010981D01*
X149140048Y-112080444D01*
X149248180Y-112154332D01*
X149348416Y-112225752D01*
X149430645Y-112287813D01*
X149484754Y-112333625D01*
X149501087Y-112354788D01*
X149484912Y-112399433D01*
X149449162Y-112453007D01*
X149397238Y-112517131D01*
X149280423Y-112439826D01*
X149210296Y-112400004D01*
X149158494Y-112382575D01*
X149142851Y-112385663D01*
X149119173Y-112417671D01*
X149073059Y-112484114D01*
X149012523Y-112573367D01*
X148979445Y-112622772D01*
X148915341Y-112715886D01*
X148861561Y-112788403D01*
X148825864Y-112830129D01*
X148816930Y-112836274D01*
X148782803Y-112822326D01*
X148723272Y-112788363D01*
X148707337Y-112778345D01*
X148649962Y-112738730D01*
X148619237Y-112711924D01*
X148617609Y-112708542D01*
X148632029Y-112681713D01*
X148670632Y-112620284D01*
X148726429Y-112535231D01*
X148756552Y-112490297D01*
X148820414Y-112393842D01*
X148872559Y-112311717D01*
X148904900Y-112256800D01*
X148910635Y-112244937D01*
X148898115Y-112203477D01*
X148838463Y-112148533D01*
X148813541Y-112131208D01*
X148701307Y-112056935D01*
X148748236Y-111977489D01*
X148790119Y-111923072D01*
X148828477Y-111898202D01*
X148830825Y-111898043D01*
X148869410Y-111912889D01*
G36*
X144130886Y-111491362D02*
G01*
X144150980Y-111517546D01*
X144179837Y-111568221D01*
X144220406Y-111649143D01*
X144275636Y-111766066D01*
X144348474Y-111924748D01*
X144395616Y-112028609D01*
X144473478Y-112200587D01*
X144413531Y-112242576D01*
X144336131Y-112281398D01*
X144275308Y-112272314D01*
X144223383Y-112212438D01*
X144197879Y-112161470D01*
X144161006Y-112086174D01*
X144128956Y-112034194D01*
X144117832Y-112022555D01*
X144104042Y-112039610D01*
X144092273Y-112100962D01*
X144084540Y-112195691D01*
X144084107Y-112205562D01*
X144078622Y-112309024D01*
X144069264Y-112370778D01*
X144050882Y-112404317D01*
X144018321Y-112423136D01*
X143998336Y-112430176D01*
X143950336Y-112440292D01*
X143905413Y-112429999D01*
X143847998Y-112392869D01*
X143786318Y-112342656D01*
X143714555Y-112284031D01*
X143660167Y-112243092D01*
X143636536Y-112229348D01*
X143638506Y-112252112D01*
X143659112Y-112311322D01*
X143688116Y-112380813D01*
X143755101Y-112532278D01*
X143695429Y-112574074D01*
X143642934Y-112605924D01*
X143599126Y-112615647D01*
X143558337Y-112597903D01*
X143514898Y-112547352D01*
X143463141Y-112458657D01*
X143397397Y-112326479D01*
X143368878Y-112266512D01*
X143310864Y-112139221D01*
X143264967Y-112029634D01*
X143234877Y-111947292D01*
X143224283Y-111901734D01*
X143225738Y-111896356D01*
X143263699Y-111873255D01*
X143330822Y-111841617D01*
X143351613Y-111832840D01*
X143455508Y-111790123D01*
X143651788Y-111954518D01*
X143740641Y-112026551D01*
X143815129Y-112082540D01*
X143864317Y-112114473D01*
X143876077Y-112118913D01*
X143888887Y-112092008D01*
X143892437Y-112012567D01*
X143886663Y-111882499D01*
X143884934Y-111857990D01*
X143865781Y-111597068D01*
X143976682Y-111540490D01*
X144050127Y-111506093D01*
X144104618Y-111486027D01*
X144116608Y-111483913D01*
X144130886Y-111491362D01*
G37*
X144130886Y-111491362D02*
X144150980Y-111517546D01*
X144179837Y-111568221D01*
X144220406Y-111649143D01*
X144275636Y-111766066D01*
X144348474Y-111924748D01*
X144395616Y-112028609D01*
X144473478Y-112200587D01*
X144413531Y-112242576D01*
X144336131Y-112281398D01*
X144275308Y-112272314D01*
X144223383Y-112212438D01*
X144197879Y-112161470D01*
X144161006Y-112086174D01*
X144128956Y-112034194D01*
X144117832Y-112022555D01*
X144104042Y-112039610D01*
X144092273Y-112100962D01*
X144084540Y-112195691D01*
X144084107Y-112205562D01*
X144078622Y-112309024D01*
X144069264Y-112370778D01*
X144050882Y-112404317D01*
X144018321Y-112423136D01*
X143998336Y-112430176D01*
X143950336Y-112440292D01*
X143905413Y-112429999D01*
X143847998Y-112392869D01*
X143786318Y-112342656D01*
X143714555Y-112284031D01*
X143660167Y-112243092D01*
X143636536Y-112229348D01*
X143638506Y-112252112D01*
X143659112Y-112311322D01*
X143688116Y-112380813D01*
X143755101Y-112532278D01*
X143695429Y-112574074D01*
X143642934Y-112605924D01*
X143599126Y-112615647D01*
X143558337Y-112597903D01*
X143514898Y-112547352D01*
X143463141Y-112458657D01*
X143397397Y-112326479D01*
X143368878Y-112266512D01*
X143310864Y-112139221D01*
X143264967Y-112029634D01*
X143234877Y-111947292D01*
X143224283Y-111901734D01*
X143225738Y-111896356D01*
X143263699Y-111873255D01*
X143330822Y-111841617D01*
X143351613Y-111832840D01*
X143455508Y-111790123D01*
X143651788Y-111954518D01*
X143740641Y-112026551D01*
X143815129Y-112082540D01*
X143864317Y-112114473D01*
X143876077Y-112118913D01*
X143888887Y-112092008D01*
X143892437Y-112012567D01*
X143886663Y-111882499D01*
X143884934Y-111857990D01*
X143865781Y-111597068D01*
X143976682Y-111540490D01*
X144050127Y-111506093D01*
X144104618Y-111486027D01*
X144116608Y-111483913D01*
X144130886Y-111491362D01*
G36*
X147745268Y-111413551D02*
G01*
X147781456Y-111428237D01*
X147897739Y-111480299D01*
X147905663Y-111747322D01*
X147913587Y-112014346D01*
X148079239Y-111818689D01*
X148155487Y-111732888D01*
X148221700Y-111666099D01*
X148268044Y-111627891D01*
X148280773Y-111622494D01*
X148323733Y-111633652D01*
X148391115Y-111660746D01*
X148458911Y-111693189D01*
X148503114Y-111720391D01*
X148503520Y-111720745D01*
X148491829Y-111744583D01*
X148448150Y-111798437D01*
X148380415Y-111874175D01*
X148296557Y-111963666D01*
X148204510Y-112058779D01*
X148112207Y-112151382D01*
X148027580Y-112233343D01*
X147958563Y-112296533D01*
X147913088Y-112332818D01*
X147900974Y-112338360D01*
X147848563Y-112327253D01*
X147773950Y-112301691D01*
X147758869Y-112295602D01*
X147659368Y-112254267D01*
X147639962Y-111837529D01*
X147634603Y-111690825D01*
X147632740Y-111563710D01*
X147634306Y-111466360D01*
X147639234Y-111408956D01*
X147642864Y-111398483D01*
X147679114Y-111395497D01*
X147745268Y-111413551D01*
G37*
X147745268Y-111413551D02*
X147781456Y-111428237D01*
X147897739Y-111480299D01*
X147905663Y-111747322D01*
X147913587Y-112014346D01*
X148079239Y-111818689D01*
X148155487Y-111732888D01*
X148221700Y-111666099D01*
X148268044Y-111627891D01*
X148280773Y-111622494D01*
X148323733Y-111633652D01*
X148391115Y-111660746D01*
X148458911Y-111693189D01*
X148503114Y-111720391D01*
X148503520Y-111720745D01*
X148491829Y-111744583D01*
X148448150Y-111798437D01*
X148380415Y-111874175D01*
X148296557Y-111963666D01*
X148204510Y-112058779D01*
X148112207Y-112151382D01*
X148027580Y-112233343D01*
X147958563Y-112296533D01*
X147913088Y-112332818D01*
X147900974Y-112338360D01*
X147848563Y-112327253D01*
X147773950Y-112301691D01*
X147758869Y-112295602D01*
X147659368Y-112254267D01*
X147639962Y-111837529D01*
X147634603Y-111690825D01*
X147632740Y-111563710D01*
X147634306Y-111466360D01*
X147639234Y-111408956D01*
X147642864Y-111398483D01*
X147679114Y-111395497D01*
X147745268Y-111413551D01*
G36*
X145410920Y-111207968D02*
G01*
X145415000Y-111248520D01*
X145409629Y-111300757D01*
X145394993Y-111393951D01*
X145373309Y-111515050D01*
X145346793Y-111650999D01*
X145345978Y-111655013D01*
X145319735Y-111785552D01*
X145298080Y-111895979D01*
X145283131Y-111975308D01*
X145277003Y-112012550D01*
X145276956Y-112013475D01*
X145258861Y-112033701D01*
X145200062Y-112053815D01*
X145093789Y-112076042D01*
X145078122Y-112078851D01*
X144975918Y-112096951D01*
X144753911Y-111755921D01*
X144675479Y-111633445D01*
X144609182Y-111526120D01*
X144560393Y-111442942D01*
X144534483Y-111392905D01*
X144531713Y-111383831D01*
X144555922Y-111359221D01*
X144616147Y-111336334D01*
X144693354Y-111321165D01*
X144739939Y-111318261D01*
X144769049Y-111340489D01*
X144817321Y-111400103D01*
X144876607Y-111486496D01*
X144909042Y-111538414D01*
X144968698Y-111634264D01*
X145018447Y-111709168D01*
X145051144Y-111752611D01*
X145059140Y-111759284D01*
X145070259Y-111734263D01*
X145086057Y-111666571D01*
X145103930Y-111568272D01*
X145113119Y-111509462D01*
X145133679Y-111383045D01*
X145155393Y-111300319D01*
X145185871Y-111250139D01*
X145232719Y-111221355D01*
X145303544Y-111202822D01*
X145325272Y-111198601D01*
X145386498Y-111191358D01*
X145410920Y-111207968D01*
G37*
X145410920Y-111207968D02*
X145415000Y-111248520D01*
X145409629Y-111300757D01*
X145394993Y-111393951D01*
X145373309Y-111515050D01*
X145346793Y-111650999D01*
X145345978Y-111655013D01*
X145319735Y-111785552D01*
X145298080Y-111895979D01*
X145283131Y-111975308D01*
X145277003Y-112012550D01*
X145276956Y-112013475D01*
X145258861Y-112033701D01*
X145200062Y-112053815D01*
X145093789Y-112076042D01*
X145078122Y-112078851D01*
X144975918Y-112096951D01*
X144753911Y-111755921D01*
X144675479Y-111633445D01*
X144609182Y-111526120D01*
X144560393Y-111442942D01*
X144534483Y-111392905D01*
X144531713Y-111383831D01*
X144555922Y-111359221D01*
X144616147Y-111336334D01*
X144693354Y-111321165D01*
X144739939Y-111318261D01*
X144769049Y-111340489D01*
X144817321Y-111400103D01*
X144876607Y-111486496D01*
X144909042Y-111538414D01*
X144968698Y-111634264D01*
X145018447Y-111709168D01*
X145051144Y-111752611D01*
X145059140Y-111759284D01*
X145070259Y-111734263D01*
X145086057Y-111666571D01*
X145103930Y-111568272D01*
X145113119Y-111509462D01*
X145133679Y-111383045D01*
X145155393Y-111300319D01*
X145185871Y-111250139D01*
X145232719Y-111221355D01*
X145303544Y-111202822D01*
X145325272Y-111198601D01*
X145386498Y-111191358D01*
X145410920Y-111207968D01*
G36*
X146796090Y-111238191D02*
G01*
X146913675Y-111243596D01*
X147039007Y-111252359D01*
X147144248Y-111263740D01*
X147216936Y-111276139D01*
X147243466Y-111285900D01*
X147251297Y-111325302D01*
X147248938Y-111414589D01*
X147236649Y-111549428D01*
X147218874Y-111694485D01*
X147196131Y-111854872D01*
X147176554Y-111966967D01*
X147158541Y-112037489D01*
X147140487Y-112073158D01*
X147126658Y-112081021D01*
X147080507Y-112078917D01*
X146996892Y-112069444D01*
X146892770Y-112054562D01*
X146878261Y-112052276D01*
X146680888Y-112008743D01*
X146533212Y-111947448D01*
X146431778Y-111865583D01*
X146373128Y-111760338D01*
X146359622Y-111668452D01*
X146610071Y-111668452D01*
X146659833Y-111748215D01*
X146664293Y-111752431D01*
X146742034Y-111806080D01*
X146823400Y-111834623D01*
X146893605Y-111835830D01*
X146937859Y-111807472D01*
X146943425Y-111794511D01*
X146954770Y-111739683D01*
X146968278Y-111654473D01*
X146974954Y-111605113D01*
X146992814Y-111464030D01*
X146904478Y-111446363D01*
X146812095Y-111431698D01*
X146751664Y-111436865D01*
X146702087Y-111466370D01*
X146669941Y-111496462D01*
X146613494Y-111582120D01*
X146610071Y-111668452D01*
X146359622Y-111668452D01*
X146353808Y-111628907D01*
X146353799Y-111626129D01*
X146374999Y-111477010D01*
X146436093Y-111356603D01*
X146523796Y-111278612D01*
X146569515Y-111255948D01*
X146621664Y-111242418D01*
X146692951Y-111236879D01*
X146796090Y-111238191D01*
G37*
X146796090Y-111238191D02*
X146913675Y-111243596D01*
X147039007Y-111252359D01*
X147144248Y-111263740D01*
X147216936Y-111276139D01*
X147243466Y-111285900D01*
X147251297Y-111325302D01*
X147248938Y-111414589D01*
X147236649Y-111549428D01*
X147218874Y-111694485D01*
X147196131Y-111854872D01*
X147176554Y-111966967D01*
X147158541Y-112037489D01*
X147140487Y-112073158D01*
X147126658Y-112081021D01*
X147080507Y-112078917D01*
X146996892Y-112069444D01*
X146892770Y-112054562D01*
X146878261Y-112052276D01*
X146680888Y-112008743D01*
X146533212Y-111947448D01*
X146431778Y-111865583D01*
X146373128Y-111760338D01*
X146359622Y-111668452D01*
X146610071Y-111668452D01*
X146659833Y-111748215D01*
X146664293Y-111752431D01*
X146742034Y-111806080D01*
X146823400Y-111834623D01*
X146893605Y-111835830D01*
X146937859Y-111807472D01*
X146943425Y-111794511D01*
X146954770Y-111739683D01*
X146968278Y-111654473D01*
X146974954Y-111605113D01*
X146992814Y-111464030D01*
X146904478Y-111446363D01*
X146812095Y-111431698D01*
X146751664Y-111436865D01*
X146702087Y-111466370D01*
X146669941Y-111496462D01*
X146613494Y-111582120D01*
X146610071Y-111668452D01*
X146359622Y-111668452D01*
X146353808Y-111628907D01*
X146353799Y-111626129D01*
X146374999Y-111477010D01*
X146436093Y-111356603D01*
X146523796Y-111278612D01*
X146569515Y-111255948D01*
X146621664Y-111242418D01*
X146692951Y-111236879D01*
X146796090Y-111238191D01*
G36*
X145949509Y-111151743D02*
G01*
X145980407Y-111174551D01*
X146000540Y-111226597D01*
X146013573Y-111315212D01*
X146023174Y-111447734D01*
X146028186Y-111539441D01*
X146034578Y-111679277D01*
X146038307Y-111800508D01*
X146039159Y-111891821D01*
X146036917Y-111941902D01*
X146035955Y-111946359D01*
X146004204Y-111966589D01*
X145940583Y-111978607D01*
X145868031Y-111980898D01*
X145809489Y-111971945D01*
X145792319Y-111962464D01*
X145785629Y-111929552D01*
X145780026Y-111852020D01*
X145775996Y-111740462D01*
X145774028Y-111605471D01*
X145773913Y-111562664D01*
X145774175Y-111411036D01*
X145775964Y-111305669D01*
X145780784Y-111237608D01*
X145790137Y-111197896D01*
X145805527Y-111177579D01*
X145828457Y-111167699D01*
X145840751Y-111164494D01*
X145904180Y-111150835D01*
X145949509Y-111151743D01*
G37*
X145949509Y-111151743D02*
X145980407Y-111174551D01*
X146000540Y-111226597D01*
X146013573Y-111315212D01*
X146023174Y-111447734D01*
X146028186Y-111539441D01*
X146034578Y-111679277D01*
X146038307Y-111800508D01*
X146039159Y-111891821D01*
X146036917Y-111941902D01*
X146035955Y-111946359D01*
X146004204Y-111966589D01*
X145940583Y-111978607D01*
X145868031Y-111980898D01*
X145809489Y-111971945D01*
X145792319Y-111962464D01*
X145785629Y-111929552D01*
X145780026Y-111852020D01*
X145775996Y-111740462D01*
X145774028Y-111605471D01*
X145773913Y-111562664D01*
X145774175Y-111411036D01*
X145775964Y-111305669D01*
X145780784Y-111237608D01*
X145790137Y-111197896D01*
X145805527Y-111177579D01*
X145828457Y-111167699D01*
X145840751Y-111164494D01*
X145904180Y-111150835D01*
X145949509Y-111151743D01*
%TD*%
M02*
