%TF.GenerationSoftware,KiCad,Pcbnew,(5.1.10)-1*%
%TF.CreationDate,2021-09-01T14:56:24+02:00*%
%TF.ProjectId,Souvenir tesi,536f7576-656e-4697-9220-746573692e6b,rev?*%
%TF.SameCoordinates,Original*%
%TF.FileFunction,Copper,L2,Bot*%
%TF.FilePolarity,Positive*%
%FSLAX46Y46*%
G04 Gerber Fmt 4.6, Leading zero omitted, Abs format (unit mm)*
G04 Created by KiCad (PCBNEW (5.1.10)-1) date 2021-09-01 14:56:24*
%MOMM*%
%LPD*%
G01*
G04 APERTURE LIST*
%TA.AperFunction,ComponentPad*%
%ADD10C,1.600000*%
%TD*%
%TA.AperFunction,ComponentPad*%
%ADD11R,1.600000X1.600000*%
%TD*%
%TA.AperFunction,ComponentPad*%
%ADD12R,3.200000X3.200000*%
%TD*%
%TA.AperFunction,ComponentPad*%
%ADD13O,3.200000X3.200000*%
%TD*%
%TA.AperFunction,ComponentPad*%
%ADD14R,1.800000X1.800000*%
%TD*%
%TA.AperFunction,ComponentPad*%
%ADD15C,1.800000*%
%TD*%
%TA.AperFunction,ComponentPad*%
%ADD16C,2.200000*%
%TD*%
%TA.AperFunction,ComponentPad*%
%ADD17O,1.600000X1.600000*%
%TD*%
%TA.AperFunction,ComponentPad*%
%ADD18C,1.440000*%
%TD*%
%TA.AperFunction,ComponentPad*%
%ADD19R,1.275000X1.800000*%
%TD*%
%TA.AperFunction,ComponentPad*%
%ADD20O,1.275000X1.800000*%
%TD*%
%TA.AperFunction,ComponentPad*%
%ADD21R,3.000000X3.000000*%
%TD*%
%TA.AperFunction,ComponentPad*%
%ADD22C,3.000000*%
%TD*%
%TA.AperFunction,ComponentPad*%
%ADD23R,4.000000X4.000000*%
%TD*%
%TA.AperFunction,Conductor*%
%ADD24C,1.500000*%
%TD*%
%TA.AperFunction,Conductor*%
%ADD25C,1.000000*%
%TD*%
%TA.AperFunction,Conductor*%
%ADD26C,0.254000*%
%TD*%
%TA.AperFunction,Conductor*%
%ADD27C,0.100000*%
%TD*%
G04 APERTURE END LIST*
D10*
%TO.P,C4,2*%
%TO.N,GND*%
X151130000Y-105410000D03*
%TO.P,C4,1*%
%TO.N,OUT*%
X151130000Y-100410000D03*
%TD*%
D11*
%TO.P,C1,1*%
%TO.N,IN*%
X125730000Y-124460000D03*
D10*
%TO.P,C1,2*%
%TO.N,GND*%
X125730000Y-120960000D03*
%TD*%
%TO.P,C2,2*%
%TO.N,GND*%
X154940000Y-116530000D03*
D11*
%TO.P,C2,1*%
%TO.N,OUT*%
X154940000Y-113030000D03*
%TD*%
D10*
%TO.P,C3,1*%
%TO.N,IN*%
X116840000Y-125730000D03*
%TO.P,C3,2*%
%TO.N,GND*%
X111840000Y-125730000D03*
%TD*%
D12*
%TO.P,D1,1*%
%TO.N,Net-(D1-Pad1)*%
X133350000Y-124460000D03*
D13*
%TO.P,D1,2*%
%TO.N,GND*%
X148590000Y-124460000D03*
%TD*%
D14*
%TO.P,D2,1*%
%TO.N,GND*%
X154940000Y-124460000D03*
D15*
%TO.P,D2,2*%
%TO.N,Net-(D2-Pad2)*%
X157480000Y-124460000D03*
%TD*%
D16*
%TO.P,L1,1*%
%TO.N,Net-(D1-Pad1)*%
X135890000Y-116840000D03*
%TO.P,L1,2*%
%TO.N,OUT*%
X135890000Y-108440000D03*
%TD*%
D17*
%TO.P,R1,2*%
%TO.N,Net-(D2-Pad2)*%
X157480000Y-107950000D03*
D10*
%TO.P,R1,1*%
%TO.N,OUT*%
X157480000Y-100330000D03*
%TD*%
%TO.P,R2,1*%
%TO.N,GND*%
X146050000Y-101600000D03*
D17*
%TO.P,R2,2*%
%TO.N,Net-(R2-Pad2)*%
X138430000Y-101600000D03*
%TD*%
D18*
%TO.P,ADJ,1*%
%TO.N,Net-(R2-Pad2)*%
X132080000Y-101600000D03*
%TO.P,ADJ,2*%
X129540000Y-101600000D03*
%TO.P,ADJ,3*%
%TO.N,OUT*%
X127000000Y-101600000D03*
%TD*%
D19*
%TO.P,U1,1*%
%TO.N,IN*%
X111760000Y-119380000D03*
D20*
%TO.P,U1,2*%
%TO.N,Net-(D1-Pad1)*%
X113460000Y-119380000D03*
%TO.P,U1,3*%
%TO.N,GND*%
X115160000Y-119380000D03*
%TO.P,U1,4*%
%TO.N,Net-(R2-Pad2)*%
X116860000Y-119380000D03*
%TO.P,U1,5*%
%TO.N,GND*%
X118560000Y-119380000D03*
%TD*%
D21*
%TO.P,J1,1*%
%TO.N,IN*%
X104140000Y-110490000D03*
D22*
%TO.P,J1,2*%
%TO.N,GND*%
X104140000Y-115570000D03*
%TD*%
%TO.P,J2,2*%
%TO.N,OUT*%
X165100000Y-110490000D03*
D21*
%TO.P,J2,1*%
%TO.N,GND*%
X165100000Y-115570000D03*
%TD*%
D23*
%TO.P,IN+,1*%
%TO.N,IN*%
X104140000Y-101600000D03*
%TD*%
%TO.P,OUT+,1*%
%TO.N,OUT*%
X165100000Y-101600000D03*
%TD*%
%TO.P,IN-,1*%
%TO.N,GND*%
X104140000Y-124460000D03*
%TD*%
%TO.P,OUT-,1*%
%TO.N,GND*%
X165100000Y-124460000D03*
%TD*%
D24*
%TO.N,Net-(D1-Pad1)*%
X113460000Y-119380000D02*
X113460000Y-117426000D01*
X113460000Y-117426000D02*
X114808000Y-116078000D01*
X114808000Y-116078000D02*
X131826000Y-116078000D01*
X133350000Y-117602000D02*
X133350000Y-124460000D01*
X131826000Y-116078000D02*
X133350000Y-117602000D01*
D25*
%TO.N,Net-(D2-Pad2)*%
X157480000Y-107950000D02*
X157480000Y-124460000D01*
%TD*%
D26*
%TO.N,GND*%
X167757869Y-98464722D02*
X167871246Y-98498953D01*
X167975819Y-98554555D01*
X168067596Y-98629407D01*
X168143091Y-98720664D01*
X168199419Y-98824844D01*
X168234440Y-98937976D01*
X168250000Y-99086022D01*
X168250001Y-126967711D01*
X168235278Y-127117869D01*
X168201047Y-127231246D01*
X168145446Y-127335817D01*
X168070594Y-127427595D01*
X167979335Y-127503091D01*
X167875160Y-127559419D01*
X167762024Y-127594440D01*
X167613979Y-127610000D01*
X101632279Y-127610000D01*
X101482131Y-127595278D01*
X101368754Y-127561047D01*
X101264183Y-127505446D01*
X101172405Y-127430594D01*
X101096909Y-127339335D01*
X101040581Y-127235160D01*
X101005560Y-127122024D01*
X100990000Y-126973979D01*
X100990000Y-126460000D01*
X101501928Y-126460000D01*
X101514188Y-126584482D01*
X101550498Y-126704180D01*
X101609463Y-126814494D01*
X101688815Y-126911185D01*
X101785506Y-126990537D01*
X101895820Y-127049502D01*
X102015518Y-127085812D01*
X102140000Y-127098072D01*
X103854250Y-127095000D01*
X104013000Y-126936250D01*
X104013000Y-124587000D01*
X104267000Y-124587000D01*
X104267000Y-126936250D01*
X104425750Y-127095000D01*
X106140000Y-127098072D01*
X106264482Y-127085812D01*
X106384180Y-127049502D01*
X106494494Y-126990537D01*
X106591185Y-126911185D01*
X106670537Y-126814494D01*
X106719601Y-126722702D01*
X111026903Y-126722702D01*
X111098486Y-126966671D01*
X111353996Y-127087571D01*
X111628184Y-127156300D01*
X111910512Y-127170217D01*
X112190130Y-127128787D01*
X112456292Y-127033603D01*
X112581514Y-126966671D01*
X112653097Y-126722702D01*
X111840000Y-125909605D01*
X111026903Y-126722702D01*
X106719601Y-126722702D01*
X106729502Y-126704180D01*
X106765812Y-126584482D01*
X106778072Y-126460000D01*
X106776891Y-125800512D01*
X110399783Y-125800512D01*
X110441213Y-126080130D01*
X110536397Y-126346292D01*
X110603329Y-126471514D01*
X110847298Y-126543097D01*
X111660395Y-125730000D01*
X112019605Y-125730000D01*
X112832702Y-126543097D01*
X113076671Y-126471514D01*
X113197571Y-126216004D01*
X113266300Y-125941816D01*
X113280217Y-125659488D01*
X113269724Y-125588665D01*
X115405000Y-125588665D01*
X115405000Y-125871335D01*
X115460147Y-126148574D01*
X115568320Y-126409727D01*
X115725363Y-126644759D01*
X115925241Y-126844637D01*
X116160273Y-127001680D01*
X116421426Y-127109853D01*
X116698665Y-127165000D01*
X116981335Y-127165000D01*
X117258574Y-127109853D01*
X117519727Y-127001680D01*
X117754759Y-126844637D01*
X117954637Y-126644759D01*
X118111680Y-126409727D01*
X118219853Y-126148574D01*
X118275000Y-125871335D01*
X118275000Y-125588665D01*
X118219853Y-125311426D01*
X118111680Y-125050273D01*
X117954637Y-124815241D01*
X117754759Y-124615363D01*
X117519727Y-124458320D01*
X117258574Y-124350147D01*
X116981335Y-124295000D01*
X116698665Y-124295000D01*
X116421426Y-124350147D01*
X116160273Y-124458320D01*
X115925241Y-124615363D01*
X115725363Y-124815241D01*
X115568320Y-125050273D01*
X115460147Y-125311426D01*
X115405000Y-125588665D01*
X113269724Y-125588665D01*
X113238787Y-125379870D01*
X113143603Y-125113708D01*
X113076671Y-124988486D01*
X112832702Y-124916903D01*
X112019605Y-125730000D01*
X111660395Y-125730000D01*
X110847298Y-124916903D01*
X110603329Y-124988486D01*
X110482429Y-125243996D01*
X110413700Y-125518184D01*
X110399783Y-125800512D01*
X106776891Y-125800512D01*
X106775000Y-124745750D01*
X106766548Y-124737298D01*
X111026903Y-124737298D01*
X111840000Y-125550395D01*
X112653097Y-124737298D01*
X112581514Y-124493329D01*
X112326004Y-124372429D01*
X112051816Y-124303700D01*
X111769488Y-124289783D01*
X111489870Y-124331213D01*
X111223708Y-124426397D01*
X111098486Y-124493329D01*
X111026903Y-124737298D01*
X106766548Y-124737298D01*
X106616250Y-124587000D01*
X104267000Y-124587000D01*
X104013000Y-124587000D01*
X101663750Y-124587000D01*
X101505000Y-124745750D01*
X101501928Y-126460000D01*
X100990000Y-126460000D01*
X100990000Y-122460000D01*
X101501928Y-122460000D01*
X101505000Y-124174250D01*
X101663750Y-124333000D01*
X104013000Y-124333000D01*
X104013000Y-121983750D01*
X104267000Y-121983750D01*
X104267000Y-124333000D01*
X106616250Y-124333000D01*
X106775000Y-124174250D01*
X106775921Y-123660000D01*
X124291928Y-123660000D01*
X124291928Y-125260000D01*
X124304188Y-125384482D01*
X124340498Y-125504180D01*
X124399463Y-125614494D01*
X124478815Y-125711185D01*
X124575506Y-125790537D01*
X124685820Y-125849502D01*
X124805518Y-125885812D01*
X124930000Y-125898072D01*
X126530000Y-125898072D01*
X126654482Y-125885812D01*
X126774180Y-125849502D01*
X126884494Y-125790537D01*
X126981185Y-125711185D01*
X127060537Y-125614494D01*
X127119502Y-125504180D01*
X127155812Y-125384482D01*
X127168072Y-125260000D01*
X127168072Y-123660000D01*
X127155812Y-123535518D01*
X127119502Y-123415820D01*
X127060537Y-123305506D01*
X126981185Y-123208815D01*
X126884494Y-123129463D01*
X126774180Y-123070498D01*
X126654482Y-123034188D01*
X126530000Y-123021928D01*
X124930000Y-123021928D01*
X124805518Y-123034188D01*
X124685820Y-123070498D01*
X124575506Y-123129463D01*
X124478815Y-123208815D01*
X124399463Y-123305506D01*
X124340498Y-123415820D01*
X124304188Y-123535518D01*
X124291928Y-123660000D01*
X106775921Y-123660000D01*
X106778072Y-122460000D01*
X106765812Y-122335518D01*
X106729502Y-122215820D01*
X106670537Y-122105506D01*
X106591185Y-122008815D01*
X106522811Y-121952702D01*
X124916903Y-121952702D01*
X124988486Y-122196671D01*
X125243996Y-122317571D01*
X125518184Y-122386300D01*
X125800512Y-122400217D01*
X126080130Y-122358787D01*
X126346292Y-122263603D01*
X126471514Y-122196671D01*
X126543097Y-121952702D01*
X125730000Y-121139605D01*
X124916903Y-121952702D01*
X106522811Y-121952702D01*
X106494494Y-121929463D01*
X106384180Y-121870498D01*
X106264482Y-121834188D01*
X106140000Y-121821928D01*
X104425750Y-121825000D01*
X104267000Y-121983750D01*
X104013000Y-121983750D01*
X103854250Y-121825000D01*
X102140000Y-121821928D01*
X102015518Y-121834188D01*
X101895820Y-121870498D01*
X101785506Y-121929463D01*
X101688815Y-122008815D01*
X101609463Y-122105506D01*
X101550498Y-122215820D01*
X101514188Y-122335518D01*
X101501928Y-122460000D01*
X100990000Y-122460000D01*
X100990000Y-121030512D01*
X124289783Y-121030512D01*
X124331213Y-121310130D01*
X124426397Y-121576292D01*
X124493329Y-121701514D01*
X124737298Y-121773097D01*
X125550395Y-120960000D01*
X125909605Y-120960000D01*
X126722702Y-121773097D01*
X126966671Y-121701514D01*
X127087571Y-121446004D01*
X127156300Y-121171816D01*
X127170217Y-120889488D01*
X127128787Y-120609870D01*
X127033603Y-120343708D01*
X126966671Y-120218486D01*
X126722702Y-120146903D01*
X125909605Y-120960000D01*
X125550395Y-120960000D01*
X124737298Y-120146903D01*
X124493329Y-120218486D01*
X124372429Y-120473996D01*
X124303700Y-120748184D01*
X124289783Y-121030512D01*
X100990000Y-121030512D01*
X100990000Y-118480000D01*
X110484428Y-118480000D01*
X110484428Y-120280000D01*
X110496688Y-120404482D01*
X110532998Y-120524180D01*
X110591963Y-120634494D01*
X110671315Y-120731185D01*
X110768006Y-120810537D01*
X110878320Y-120869502D01*
X110998018Y-120905812D01*
X111122500Y-120918072D01*
X112397500Y-120918072D01*
X112521982Y-120905812D01*
X112641680Y-120869502D01*
X112751994Y-120810537D01*
X112828443Y-120747797D01*
X112970680Y-120823825D01*
X113210547Y-120896588D01*
X113460000Y-120921157D01*
X113709454Y-120896588D01*
X113949321Y-120823825D01*
X114170384Y-120705664D01*
X114309392Y-120591583D01*
X114350009Y-120632095D01*
X114558633Y-120771102D01*
X114790367Y-120866737D01*
X114836495Y-120873191D01*
X115033000Y-120748985D01*
X115033000Y-119507000D01*
X115013000Y-119507000D01*
X115013000Y-119253000D01*
X115033000Y-119253000D01*
X115033000Y-118011015D01*
X115287000Y-118011015D01*
X115287000Y-119253000D01*
X115307000Y-119253000D01*
X115307000Y-119507000D01*
X115287000Y-119507000D01*
X115287000Y-120748985D01*
X115483505Y-120873191D01*
X115529633Y-120866737D01*
X115761367Y-120771102D01*
X115969991Y-120632095D01*
X116010609Y-120591583D01*
X116149617Y-120705664D01*
X116370680Y-120823825D01*
X116610547Y-120896588D01*
X116860000Y-120921157D01*
X117109454Y-120896588D01*
X117349321Y-120823825D01*
X117570384Y-120705664D01*
X117709392Y-120591583D01*
X117750009Y-120632095D01*
X117958633Y-120771102D01*
X118190367Y-120866737D01*
X118236495Y-120873191D01*
X118433000Y-120748985D01*
X118433000Y-119507000D01*
X118687000Y-119507000D01*
X118687000Y-120748985D01*
X118883505Y-120873191D01*
X118929633Y-120866737D01*
X119161367Y-120771102D01*
X119369991Y-120632095D01*
X119547488Y-120455059D01*
X119687036Y-120246797D01*
X119783273Y-120015312D01*
X119792888Y-119967298D01*
X124916903Y-119967298D01*
X125730000Y-120780395D01*
X126543097Y-119967298D01*
X126471514Y-119723329D01*
X126216004Y-119602429D01*
X125941816Y-119533700D01*
X125659488Y-119519783D01*
X125379870Y-119561213D01*
X125113708Y-119656397D01*
X124988486Y-119723329D01*
X124916903Y-119967298D01*
X119792888Y-119967298D01*
X119832500Y-119769500D01*
X119832500Y-119507000D01*
X118687000Y-119507000D01*
X118433000Y-119507000D01*
X118413000Y-119507000D01*
X118413000Y-119253000D01*
X118433000Y-119253000D01*
X118433000Y-118011015D01*
X118687000Y-118011015D01*
X118687000Y-119253000D01*
X119832500Y-119253000D01*
X119832500Y-118990500D01*
X119783273Y-118744688D01*
X119687036Y-118513203D01*
X119547488Y-118304941D01*
X119369991Y-118127905D01*
X119161367Y-117988898D01*
X118929633Y-117893263D01*
X118883505Y-117886809D01*
X118687000Y-118011015D01*
X118433000Y-118011015D01*
X118236495Y-117886809D01*
X118190367Y-117893263D01*
X117958633Y-117988898D01*
X117750009Y-118127905D01*
X117709392Y-118168417D01*
X117570383Y-118054336D01*
X117349320Y-117936175D01*
X117109453Y-117863412D01*
X116860000Y-117838843D01*
X116610546Y-117863412D01*
X116370679Y-117936175D01*
X116149616Y-118054336D01*
X116010608Y-118168417D01*
X115969991Y-118127905D01*
X115761367Y-117988898D01*
X115529633Y-117893263D01*
X115483505Y-117886809D01*
X115287000Y-118011015D01*
X115033000Y-118011015D01*
X114910867Y-117933818D01*
X115381686Y-117463000D01*
X131252315Y-117463000D01*
X131965000Y-118175685D01*
X131965001Y-122221928D01*
X131750000Y-122221928D01*
X131625518Y-122234188D01*
X131505820Y-122270498D01*
X131395506Y-122329463D01*
X131298815Y-122408815D01*
X131219463Y-122505506D01*
X131160498Y-122615820D01*
X131124188Y-122735518D01*
X131111928Y-122860000D01*
X131111928Y-126060000D01*
X131124188Y-126184482D01*
X131160498Y-126304180D01*
X131219463Y-126414494D01*
X131298815Y-126511185D01*
X131395506Y-126590537D01*
X131505820Y-126649502D01*
X131625518Y-126685812D01*
X131750000Y-126698072D01*
X134950000Y-126698072D01*
X135074482Y-126685812D01*
X135194180Y-126649502D01*
X135304494Y-126590537D01*
X135401185Y-126511185D01*
X135480537Y-126414494D01*
X135539502Y-126304180D01*
X135575812Y-126184482D01*
X135588072Y-126060000D01*
X135588072Y-124934503D01*
X146405950Y-124934503D01*
X146510407Y-125278861D01*
X146710118Y-125668835D01*
X146982071Y-126012354D01*
X147315816Y-126296217D01*
X147698527Y-126509516D01*
X148115497Y-126644053D01*
X148463000Y-126532642D01*
X148463000Y-124587000D01*
X148717000Y-124587000D01*
X148717000Y-126532642D01*
X149064503Y-126644053D01*
X149481473Y-126509516D01*
X149570316Y-126460000D01*
X162461928Y-126460000D01*
X162474188Y-126584482D01*
X162510498Y-126704180D01*
X162569463Y-126814494D01*
X162648815Y-126911185D01*
X162745506Y-126990537D01*
X162855820Y-127049502D01*
X162975518Y-127085812D01*
X163100000Y-127098072D01*
X164814250Y-127095000D01*
X164973000Y-126936250D01*
X164973000Y-124587000D01*
X165227000Y-124587000D01*
X165227000Y-126936250D01*
X165385750Y-127095000D01*
X167100000Y-127098072D01*
X167224482Y-127085812D01*
X167344180Y-127049502D01*
X167454494Y-126990537D01*
X167551185Y-126911185D01*
X167630537Y-126814494D01*
X167689502Y-126704180D01*
X167725812Y-126584482D01*
X167738072Y-126460000D01*
X167735000Y-124745750D01*
X167576250Y-124587000D01*
X165227000Y-124587000D01*
X164973000Y-124587000D01*
X162623750Y-124587000D01*
X162465000Y-124745750D01*
X162461928Y-126460000D01*
X149570316Y-126460000D01*
X149864184Y-126296217D01*
X150197929Y-126012354D01*
X150469882Y-125668835D01*
X150628040Y-125360000D01*
X153401928Y-125360000D01*
X153414188Y-125484482D01*
X153450498Y-125604180D01*
X153509463Y-125714494D01*
X153588815Y-125811185D01*
X153685506Y-125890537D01*
X153795820Y-125949502D01*
X153915518Y-125985812D01*
X154040000Y-125998072D01*
X154654250Y-125995000D01*
X154813000Y-125836250D01*
X154813000Y-124587000D01*
X153563750Y-124587000D01*
X153405000Y-124745750D01*
X153401928Y-125360000D01*
X150628040Y-125360000D01*
X150669593Y-125278861D01*
X150774050Y-124934503D01*
X150662362Y-124587000D01*
X148717000Y-124587000D01*
X148463000Y-124587000D01*
X146517638Y-124587000D01*
X146405950Y-124934503D01*
X135588072Y-124934503D01*
X135588072Y-123985497D01*
X146405950Y-123985497D01*
X146517638Y-124333000D01*
X148463000Y-124333000D01*
X148463000Y-122387358D01*
X148717000Y-122387358D01*
X148717000Y-124333000D01*
X150662362Y-124333000D01*
X150774050Y-123985497D01*
X150669593Y-123641139D01*
X150628041Y-123560000D01*
X153401928Y-123560000D01*
X153405000Y-124174250D01*
X153563750Y-124333000D01*
X154813000Y-124333000D01*
X154813000Y-123083750D01*
X154654250Y-122925000D01*
X154040000Y-122921928D01*
X153915518Y-122934188D01*
X153795820Y-122970498D01*
X153685506Y-123029463D01*
X153588815Y-123108815D01*
X153509463Y-123205506D01*
X153450498Y-123315820D01*
X153414188Y-123435518D01*
X153401928Y-123560000D01*
X150628041Y-123560000D01*
X150469882Y-123251165D01*
X150197929Y-122907646D01*
X149864184Y-122623783D01*
X149481473Y-122410484D01*
X149064503Y-122275947D01*
X148717000Y-122387358D01*
X148463000Y-122387358D01*
X148115497Y-122275947D01*
X147698527Y-122410484D01*
X147315816Y-122623783D01*
X146982071Y-122907646D01*
X146710118Y-123251165D01*
X146510407Y-123641139D01*
X146405950Y-123985497D01*
X135588072Y-123985497D01*
X135588072Y-122860000D01*
X135575812Y-122735518D01*
X135539502Y-122615820D01*
X135480537Y-122505506D01*
X135401185Y-122408815D01*
X135304494Y-122329463D01*
X135194180Y-122270498D01*
X135074482Y-122234188D01*
X134950000Y-122221928D01*
X134735000Y-122221928D01*
X134735000Y-118138661D01*
X134784002Y-118187663D01*
X135068169Y-118377537D01*
X135383919Y-118508325D01*
X135719117Y-118575000D01*
X136060883Y-118575000D01*
X136396081Y-118508325D01*
X136711831Y-118377537D01*
X136995998Y-118187663D01*
X137237663Y-117945998D01*
X137427537Y-117661831D01*
X137485166Y-117522702D01*
X154126903Y-117522702D01*
X154198486Y-117766671D01*
X154453996Y-117887571D01*
X154728184Y-117956300D01*
X155010512Y-117970217D01*
X155290130Y-117928787D01*
X155556292Y-117833603D01*
X155681514Y-117766671D01*
X155753097Y-117522702D01*
X154940000Y-116709605D01*
X154126903Y-117522702D01*
X137485166Y-117522702D01*
X137558325Y-117346081D01*
X137625000Y-117010883D01*
X137625000Y-116669117D01*
X137611354Y-116600512D01*
X153499783Y-116600512D01*
X153541213Y-116880130D01*
X153636397Y-117146292D01*
X153703329Y-117271514D01*
X153947298Y-117343097D01*
X154760395Y-116530000D01*
X153947298Y-115716903D01*
X153703329Y-115788486D01*
X153582429Y-116043996D01*
X153513700Y-116318184D01*
X153499783Y-116600512D01*
X137611354Y-116600512D01*
X137558325Y-116333919D01*
X137427537Y-116018169D01*
X137237663Y-115734002D01*
X137040959Y-115537298D01*
X154126903Y-115537298D01*
X154940000Y-116350395D01*
X155753097Y-115537298D01*
X155681514Y-115293329D01*
X155426004Y-115172429D01*
X155151816Y-115103700D01*
X154869488Y-115089783D01*
X154589870Y-115131213D01*
X154323708Y-115226397D01*
X154198486Y-115293329D01*
X154126903Y-115537298D01*
X137040959Y-115537298D01*
X136995998Y-115492337D01*
X136711831Y-115302463D01*
X136396081Y-115171675D01*
X136060883Y-115105000D01*
X135719117Y-115105000D01*
X135383919Y-115171675D01*
X135068169Y-115302463D01*
X134784002Y-115492337D01*
X134542337Y-115734002D01*
X134352463Y-116018169D01*
X134221675Y-116333919D01*
X134191633Y-116484948D01*
X132853454Y-115146769D01*
X132810081Y-115093919D01*
X132599188Y-114920843D01*
X132358581Y-114792236D01*
X132097507Y-114713040D01*
X131894037Y-114693000D01*
X131894029Y-114693000D01*
X131826000Y-114686300D01*
X131757971Y-114693000D01*
X114876029Y-114693000D01*
X114808000Y-114686300D01*
X114739971Y-114693000D01*
X114739963Y-114693000D01*
X114559892Y-114710735D01*
X114536492Y-114713040D01*
X114286927Y-114788745D01*
X114275419Y-114792236D01*
X114034812Y-114920843D01*
X113925108Y-115010875D01*
X113876766Y-115050548D01*
X113876764Y-115050550D01*
X113823919Y-115093919D01*
X113780550Y-115146764D01*
X112528764Y-116398551D01*
X112475920Y-116441919D01*
X112432551Y-116494764D01*
X112432548Y-116494767D01*
X112302844Y-116652812D01*
X112174236Y-116893420D01*
X112095040Y-117154493D01*
X112068300Y-117426000D01*
X112075001Y-117494039D01*
X112075001Y-117841928D01*
X111122500Y-117841928D01*
X110998018Y-117854188D01*
X110878320Y-117890498D01*
X110768006Y-117949463D01*
X110671315Y-118028815D01*
X110591963Y-118125506D01*
X110532998Y-118235820D01*
X110496688Y-118355518D01*
X110484428Y-118480000D01*
X100990000Y-118480000D01*
X100990000Y-117061653D01*
X102827952Y-117061653D01*
X102983962Y-117377214D01*
X103358745Y-117568020D01*
X103763551Y-117682044D01*
X104182824Y-117714902D01*
X104600451Y-117665334D01*
X105000383Y-117535243D01*
X105296038Y-117377214D01*
X105452048Y-117061653D01*
X104140000Y-115749605D01*
X102827952Y-117061653D01*
X100990000Y-117061653D01*
X100990000Y-115612824D01*
X101995098Y-115612824D01*
X102044666Y-116030451D01*
X102174757Y-116430383D01*
X102332786Y-116726038D01*
X102648347Y-116882048D01*
X103960395Y-115570000D01*
X104319605Y-115570000D01*
X105631653Y-116882048D01*
X105947214Y-116726038D01*
X106138020Y-116351255D01*
X106252044Y-115946449D01*
X106284902Y-115527176D01*
X106235334Y-115109549D01*
X106105243Y-114709617D01*
X105947214Y-114413962D01*
X105631653Y-114257952D01*
X104319605Y-115570000D01*
X103960395Y-115570000D01*
X102648347Y-114257952D01*
X102332786Y-114413962D01*
X102141980Y-114788745D01*
X102027956Y-115193551D01*
X101995098Y-115612824D01*
X100990000Y-115612824D01*
X100990000Y-114078347D01*
X102827952Y-114078347D01*
X104140000Y-115390395D01*
X105452048Y-114078347D01*
X105296038Y-113762786D01*
X104921255Y-113571980D01*
X104516449Y-113457956D01*
X104097176Y-113425098D01*
X103679549Y-113474666D01*
X103279617Y-113604757D01*
X102983962Y-113762786D01*
X102827952Y-114078347D01*
X100990000Y-114078347D01*
X100990000Y-108990000D01*
X102001928Y-108990000D01*
X102001928Y-111990000D01*
X102014188Y-112114482D01*
X102050498Y-112234180D01*
X102109463Y-112344494D01*
X102188815Y-112441185D01*
X102285506Y-112520537D01*
X102395820Y-112579502D01*
X102515518Y-112615812D01*
X102640000Y-112628072D01*
X105640000Y-112628072D01*
X105764482Y-112615812D01*
X105884180Y-112579502D01*
X105994494Y-112520537D01*
X106091185Y-112441185D01*
X106170537Y-112344494D01*
X106229502Y-112234180D01*
X106230769Y-112230000D01*
X153501928Y-112230000D01*
X153501928Y-113830000D01*
X153514188Y-113954482D01*
X153550498Y-114074180D01*
X153609463Y-114184494D01*
X153688815Y-114281185D01*
X153785506Y-114360537D01*
X153895820Y-114419502D01*
X154015518Y-114455812D01*
X154140000Y-114468072D01*
X155740000Y-114468072D01*
X155864482Y-114455812D01*
X155984180Y-114419502D01*
X156094494Y-114360537D01*
X156191185Y-114281185D01*
X156270537Y-114184494D01*
X156329502Y-114074180D01*
X156345000Y-114023089D01*
X156345001Y-116221806D01*
X156338787Y-116179870D01*
X156243603Y-115913708D01*
X156176671Y-115788486D01*
X155932702Y-115716903D01*
X155119605Y-116530000D01*
X155932702Y-117343097D01*
X156176671Y-117271514D01*
X156297571Y-117016004D01*
X156345001Y-116826788D01*
X156345001Y-123174390D01*
X156291185Y-123108815D01*
X156194494Y-123029463D01*
X156084180Y-122970498D01*
X155964482Y-122934188D01*
X155840000Y-122921928D01*
X155225750Y-122925000D01*
X155067000Y-123083750D01*
X155067000Y-124333000D01*
X155087000Y-124333000D01*
X155087000Y-124587000D01*
X155067000Y-124587000D01*
X155067000Y-125836250D01*
X155225750Y-125995000D01*
X155840000Y-125998072D01*
X155964482Y-125985812D01*
X156084180Y-125949502D01*
X156194494Y-125890537D01*
X156291185Y-125811185D01*
X156370537Y-125714494D01*
X156429502Y-125604180D01*
X156435056Y-125585873D01*
X156501495Y-125652312D01*
X156752905Y-125820299D01*
X157032257Y-125936011D01*
X157328816Y-125995000D01*
X157631184Y-125995000D01*
X157927743Y-125936011D01*
X158207095Y-125820299D01*
X158458505Y-125652312D01*
X158672312Y-125438505D01*
X158840299Y-125187095D01*
X158956011Y-124907743D01*
X159015000Y-124611184D01*
X159015000Y-124308816D01*
X158956011Y-124012257D01*
X158840299Y-123732905D01*
X158672312Y-123481495D01*
X158615000Y-123424183D01*
X158615000Y-122460000D01*
X162461928Y-122460000D01*
X162465000Y-124174250D01*
X162623750Y-124333000D01*
X164973000Y-124333000D01*
X164973000Y-121983750D01*
X165227000Y-121983750D01*
X165227000Y-124333000D01*
X167576250Y-124333000D01*
X167735000Y-124174250D01*
X167738072Y-122460000D01*
X167725812Y-122335518D01*
X167689502Y-122215820D01*
X167630537Y-122105506D01*
X167551185Y-122008815D01*
X167454494Y-121929463D01*
X167344180Y-121870498D01*
X167224482Y-121834188D01*
X167100000Y-121821928D01*
X165385750Y-121825000D01*
X165227000Y-121983750D01*
X164973000Y-121983750D01*
X164814250Y-121825000D01*
X163100000Y-121821928D01*
X162975518Y-121834188D01*
X162855820Y-121870498D01*
X162745506Y-121929463D01*
X162648815Y-122008815D01*
X162569463Y-122105506D01*
X162510498Y-122215820D01*
X162474188Y-122335518D01*
X162461928Y-122460000D01*
X158615000Y-122460000D01*
X158615000Y-117070000D01*
X162961928Y-117070000D01*
X162974188Y-117194482D01*
X163010498Y-117314180D01*
X163069463Y-117424494D01*
X163148815Y-117521185D01*
X163245506Y-117600537D01*
X163355820Y-117659502D01*
X163475518Y-117695812D01*
X163600000Y-117708072D01*
X164814250Y-117705000D01*
X164973000Y-117546250D01*
X164973000Y-115697000D01*
X165227000Y-115697000D01*
X165227000Y-117546250D01*
X165385750Y-117705000D01*
X166600000Y-117708072D01*
X166724482Y-117695812D01*
X166844180Y-117659502D01*
X166954494Y-117600537D01*
X167051185Y-117521185D01*
X167130537Y-117424494D01*
X167189502Y-117314180D01*
X167225812Y-117194482D01*
X167238072Y-117070000D01*
X167235000Y-115855750D01*
X167076250Y-115697000D01*
X165227000Y-115697000D01*
X164973000Y-115697000D01*
X163123750Y-115697000D01*
X162965000Y-115855750D01*
X162961928Y-117070000D01*
X158615000Y-117070000D01*
X158615000Y-114070000D01*
X162961928Y-114070000D01*
X162965000Y-115284250D01*
X163123750Y-115443000D01*
X164973000Y-115443000D01*
X164973000Y-113593750D01*
X165227000Y-113593750D01*
X165227000Y-115443000D01*
X167076250Y-115443000D01*
X167235000Y-115284250D01*
X167238072Y-114070000D01*
X167225812Y-113945518D01*
X167189502Y-113825820D01*
X167130537Y-113715506D01*
X167051185Y-113618815D01*
X166954494Y-113539463D01*
X166844180Y-113480498D01*
X166724482Y-113444188D01*
X166600000Y-113431928D01*
X165385750Y-113435000D01*
X165227000Y-113593750D01*
X164973000Y-113593750D01*
X164814250Y-113435000D01*
X163600000Y-113431928D01*
X163475518Y-113444188D01*
X163355820Y-113480498D01*
X163245506Y-113539463D01*
X163148815Y-113618815D01*
X163069463Y-113715506D01*
X163010498Y-113825820D01*
X162974188Y-113945518D01*
X162961928Y-114070000D01*
X158615000Y-114070000D01*
X158615000Y-110279721D01*
X162965000Y-110279721D01*
X162965000Y-110700279D01*
X163047047Y-111112756D01*
X163207988Y-111501302D01*
X163441637Y-111850983D01*
X163739017Y-112148363D01*
X164088698Y-112382012D01*
X164477244Y-112542953D01*
X164889721Y-112625000D01*
X165310279Y-112625000D01*
X165722756Y-112542953D01*
X166111302Y-112382012D01*
X166460983Y-112148363D01*
X166758363Y-111850983D01*
X166992012Y-111501302D01*
X167152953Y-111112756D01*
X167235000Y-110700279D01*
X167235000Y-110279721D01*
X167152953Y-109867244D01*
X166992012Y-109478698D01*
X166758363Y-109129017D01*
X166460983Y-108831637D01*
X166111302Y-108597988D01*
X165722756Y-108437047D01*
X165310279Y-108355000D01*
X164889721Y-108355000D01*
X164477244Y-108437047D01*
X164088698Y-108597988D01*
X163739017Y-108831637D01*
X163441637Y-109129017D01*
X163207988Y-109478698D01*
X163047047Y-109867244D01*
X162965000Y-110279721D01*
X158615000Y-110279721D01*
X158615000Y-108834284D01*
X158751680Y-108629727D01*
X158859853Y-108368574D01*
X158915000Y-108091335D01*
X158915000Y-107808665D01*
X158859853Y-107531426D01*
X158751680Y-107270273D01*
X158594637Y-107035241D01*
X158394759Y-106835363D01*
X158159727Y-106678320D01*
X157898574Y-106570147D01*
X157621335Y-106515000D01*
X157338665Y-106515000D01*
X157061426Y-106570147D01*
X156800273Y-106678320D01*
X156565241Y-106835363D01*
X156365363Y-107035241D01*
X156208320Y-107270273D01*
X156100147Y-107531426D01*
X156045000Y-107808665D01*
X156045000Y-108091335D01*
X156100147Y-108368574D01*
X156208320Y-108629727D01*
X156345000Y-108834284D01*
X156345000Y-112036911D01*
X156329502Y-111985820D01*
X156270537Y-111875506D01*
X156191185Y-111778815D01*
X156094494Y-111699463D01*
X155984180Y-111640498D01*
X155864482Y-111604188D01*
X155740000Y-111591928D01*
X154140000Y-111591928D01*
X154015518Y-111604188D01*
X153895820Y-111640498D01*
X153785506Y-111699463D01*
X153688815Y-111778815D01*
X153609463Y-111875506D01*
X153550498Y-111985820D01*
X153514188Y-112105518D01*
X153501928Y-112230000D01*
X106230769Y-112230000D01*
X106265812Y-112114482D01*
X106278072Y-111990000D01*
X106278072Y-108990000D01*
X106265812Y-108865518D01*
X106229502Y-108745820D01*
X106170537Y-108635506D01*
X106091185Y-108538815D01*
X105994494Y-108459463D01*
X105884180Y-108400498D01*
X105764482Y-108364188D01*
X105640000Y-108351928D01*
X102640000Y-108351928D01*
X102515518Y-108364188D01*
X102395820Y-108400498D01*
X102285506Y-108459463D01*
X102188815Y-108538815D01*
X102109463Y-108635506D01*
X102050498Y-108745820D01*
X102014188Y-108865518D01*
X102001928Y-108990000D01*
X100990000Y-108990000D01*
X100990000Y-108269117D01*
X134155000Y-108269117D01*
X134155000Y-108610883D01*
X134221675Y-108946081D01*
X134352463Y-109261831D01*
X134542337Y-109545998D01*
X134784002Y-109787663D01*
X135068169Y-109977537D01*
X135383919Y-110108325D01*
X135719117Y-110175000D01*
X136060883Y-110175000D01*
X136396081Y-110108325D01*
X136711831Y-109977537D01*
X136995998Y-109787663D01*
X137237663Y-109545998D01*
X137427537Y-109261831D01*
X137558325Y-108946081D01*
X137625000Y-108610883D01*
X137625000Y-108269117D01*
X137558325Y-107933919D01*
X137427537Y-107618169D01*
X137237663Y-107334002D01*
X136995998Y-107092337D01*
X136711831Y-106902463D01*
X136396081Y-106771675D01*
X136060883Y-106705000D01*
X135719117Y-106705000D01*
X135383919Y-106771675D01*
X135068169Y-106902463D01*
X134784002Y-107092337D01*
X134542337Y-107334002D01*
X134352463Y-107618169D01*
X134221675Y-107933919D01*
X134155000Y-108269117D01*
X100990000Y-108269117D01*
X100990000Y-106402702D01*
X150316903Y-106402702D01*
X150388486Y-106646671D01*
X150643996Y-106767571D01*
X150918184Y-106836300D01*
X151200512Y-106850217D01*
X151480130Y-106808787D01*
X151746292Y-106713603D01*
X151871514Y-106646671D01*
X151943097Y-106402702D01*
X151130000Y-105589605D01*
X150316903Y-106402702D01*
X100990000Y-106402702D01*
X100990000Y-105480512D01*
X149689783Y-105480512D01*
X149731213Y-105760130D01*
X149826397Y-106026292D01*
X149893329Y-106151514D01*
X150137298Y-106223097D01*
X150950395Y-105410000D01*
X151309605Y-105410000D01*
X152122702Y-106223097D01*
X152366671Y-106151514D01*
X152487571Y-105896004D01*
X152556300Y-105621816D01*
X152570217Y-105339488D01*
X152528787Y-105059870D01*
X152433603Y-104793708D01*
X152366671Y-104668486D01*
X152122702Y-104596903D01*
X151309605Y-105410000D01*
X150950395Y-105410000D01*
X150137298Y-104596903D01*
X149893329Y-104668486D01*
X149772429Y-104923996D01*
X149703700Y-105198184D01*
X149689783Y-105480512D01*
X100990000Y-105480512D01*
X100990000Y-99600000D01*
X101501928Y-99600000D01*
X101501928Y-103600000D01*
X101514188Y-103724482D01*
X101550498Y-103844180D01*
X101609463Y-103954494D01*
X101688815Y-104051185D01*
X101785506Y-104130537D01*
X101895820Y-104189502D01*
X102015518Y-104225812D01*
X102140000Y-104238072D01*
X106140000Y-104238072D01*
X106264482Y-104225812D01*
X106384180Y-104189502D01*
X106494494Y-104130537D01*
X106591185Y-104051185D01*
X106670537Y-103954494D01*
X106729502Y-103844180D01*
X106765812Y-103724482D01*
X106778072Y-103600000D01*
X106778072Y-102485098D01*
X112775000Y-102485098D01*
X112775000Y-102954902D01*
X112866654Y-103415679D01*
X113046440Y-103849721D01*
X113307450Y-104240349D01*
X113639651Y-104572550D01*
X114030279Y-104833560D01*
X114464321Y-105013346D01*
X114925098Y-105105000D01*
X115394902Y-105105000D01*
X115855679Y-105013346D01*
X116289721Y-104833560D01*
X116680349Y-104572550D01*
X116835601Y-104417298D01*
X150316903Y-104417298D01*
X151130000Y-105230395D01*
X151943097Y-104417298D01*
X151871514Y-104173329D01*
X151616004Y-104052429D01*
X151341816Y-103983700D01*
X151059488Y-103969783D01*
X150779870Y-104011213D01*
X150513708Y-104106397D01*
X150388486Y-104173329D01*
X150316903Y-104417298D01*
X116835601Y-104417298D01*
X117012550Y-104240349D01*
X117273560Y-103849721D01*
X117453346Y-103415679D01*
X117545000Y-102954902D01*
X117545000Y-102485098D01*
X117453346Y-102024321D01*
X117273560Y-101590279D01*
X117190883Y-101466544D01*
X125645000Y-101466544D01*
X125645000Y-101733456D01*
X125697072Y-101995239D01*
X125799215Y-102241833D01*
X125947503Y-102463762D01*
X126136238Y-102652497D01*
X126358167Y-102800785D01*
X126604761Y-102902928D01*
X126866544Y-102955000D01*
X127133456Y-102955000D01*
X127395239Y-102902928D01*
X127641833Y-102800785D01*
X127863762Y-102652497D01*
X128052497Y-102463762D01*
X128200785Y-102241833D01*
X128270000Y-102074734D01*
X128339215Y-102241833D01*
X128487503Y-102463762D01*
X128676238Y-102652497D01*
X128898167Y-102800785D01*
X129144761Y-102902928D01*
X129406544Y-102955000D01*
X129673456Y-102955000D01*
X129935239Y-102902928D01*
X130181833Y-102800785D01*
X130403762Y-102652497D01*
X130592497Y-102463762D01*
X130740785Y-102241833D01*
X130810000Y-102074734D01*
X130879215Y-102241833D01*
X131027503Y-102463762D01*
X131216238Y-102652497D01*
X131438167Y-102800785D01*
X131684761Y-102902928D01*
X131946544Y-102955000D01*
X132213456Y-102955000D01*
X132475239Y-102902928D01*
X132721833Y-102800785D01*
X132943762Y-102652497D01*
X133132497Y-102463762D01*
X133280785Y-102241833D01*
X133382928Y-101995239D01*
X133435000Y-101733456D01*
X133435000Y-101466544D01*
X133433433Y-101458665D01*
X136995000Y-101458665D01*
X136995000Y-101741335D01*
X137050147Y-102018574D01*
X137158320Y-102279727D01*
X137315363Y-102514759D01*
X137515241Y-102714637D01*
X137750273Y-102871680D01*
X138011426Y-102979853D01*
X138288665Y-103035000D01*
X138571335Y-103035000D01*
X138848574Y-102979853D01*
X139109727Y-102871680D01*
X139344759Y-102714637D01*
X139466694Y-102592702D01*
X145236903Y-102592702D01*
X145308486Y-102836671D01*
X145563996Y-102957571D01*
X145838184Y-103026300D01*
X146120512Y-103040217D01*
X146400130Y-102998787D01*
X146666292Y-102903603D01*
X146791514Y-102836671D01*
X146863097Y-102592702D01*
X146050000Y-101779605D01*
X145236903Y-102592702D01*
X139466694Y-102592702D01*
X139544637Y-102514759D01*
X139701680Y-102279727D01*
X139809853Y-102018574D01*
X139865000Y-101741335D01*
X139865000Y-101670512D01*
X144609783Y-101670512D01*
X144651213Y-101950130D01*
X144746397Y-102216292D01*
X144813329Y-102341514D01*
X145057298Y-102413097D01*
X145870395Y-101600000D01*
X146229605Y-101600000D01*
X147042702Y-102413097D01*
X147286671Y-102341514D01*
X147407571Y-102086004D01*
X147476300Y-101811816D01*
X147490217Y-101529488D01*
X147448787Y-101249870D01*
X147353603Y-100983708D01*
X147286671Y-100858486D01*
X147042702Y-100786903D01*
X146229605Y-101600000D01*
X145870395Y-101600000D01*
X145057298Y-100786903D01*
X144813329Y-100858486D01*
X144692429Y-101113996D01*
X144623700Y-101388184D01*
X144609783Y-101670512D01*
X139865000Y-101670512D01*
X139865000Y-101458665D01*
X139809853Y-101181426D01*
X139701680Y-100920273D01*
X139544637Y-100685241D01*
X139466694Y-100607298D01*
X145236903Y-100607298D01*
X146050000Y-101420395D01*
X146863097Y-100607298D01*
X146791514Y-100363329D01*
X146591452Y-100268665D01*
X149695000Y-100268665D01*
X149695000Y-100551335D01*
X149750147Y-100828574D01*
X149858320Y-101089727D01*
X150015363Y-101324759D01*
X150215241Y-101524637D01*
X150450273Y-101681680D01*
X150711426Y-101789853D01*
X150988665Y-101845000D01*
X151271335Y-101845000D01*
X151548574Y-101789853D01*
X151809727Y-101681680D01*
X152044759Y-101524637D01*
X152244637Y-101324759D01*
X152401680Y-101089727D01*
X152509853Y-100828574D01*
X152565000Y-100551335D01*
X152565000Y-100268665D01*
X152549087Y-100188665D01*
X156045000Y-100188665D01*
X156045000Y-100471335D01*
X156100147Y-100748574D01*
X156208320Y-101009727D01*
X156365363Y-101244759D01*
X156565241Y-101444637D01*
X156800273Y-101601680D01*
X157061426Y-101709853D01*
X157338665Y-101765000D01*
X157621335Y-101765000D01*
X157898574Y-101709853D01*
X158159727Y-101601680D01*
X158394759Y-101444637D01*
X158594637Y-101244759D01*
X158751680Y-101009727D01*
X158859853Y-100748574D01*
X158915000Y-100471335D01*
X158915000Y-100188665D01*
X158859853Y-99911426D01*
X158751680Y-99650273D01*
X158718089Y-99600000D01*
X162461928Y-99600000D01*
X162461928Y-103600000D01*
X162474188Y-103724482D01*
X162510498Y-103844180D01*
X162569463Y-103954494D01*
X162648815Y-104051185D01*
X162745506Y-104130537D01*
X162855820Y-104189502D01*
X162975518Y-104225812D01*
X163100000Y-104238072D01*
X167100000Y-104238072D01*
X167224482Y-104225812D01*
X167344180Y-104189502D01*
X167454494Y-104130537D01*
X167551185Y-104051185D01*
X167630537Y-103954494D01*
X167689502Y-103844180D01*
X167725812Y-103724482D01*
X167738072Y-103600000D01*
X167738072Y-99600000D01*
X167725812Y-99475518D01*
X167689502Y-99355820D01*
X167630537Y-99245506D01*
X167551185Y-99148815D01*
X167454494Y-99069463D01*
X167344180Y-99010498D01*
X167224482Y-98974188D01*
X167100000Y-98961928D01*
X163100000Y-98961928D01*
X162975518Y-98974188D01*
X162855820Y-99010498D01*
X162745506Y-99069463D01*
X162648815Y-99148815D01*
X162569463Y-99245506D01*
X162510498Y-99355820D01*
X162474188Y-99475518D01*
X162461928Y-99600000D01*
X158718089Y-99600000D01*
X158594637Y-99415241D01*
X158394759Y-99215363D01*
X158159727Y-99058320D01*
X157898574Y-98950147D01*
X157621335Y-98895000D01*
X157338665Y-98895000D01*
X157061426Y-98950147D01*
X156800273Y-99058320D01*
X156565241Y-99215363D01*
X156365363Y-99415241D01*
X156208320Y-99650273D01*
X156100147Y-99911426D01*
X156045000Y-100188665D01*
X152549087Y-100188665D01*
X152509853Y-99991426D01*
X152401680Y-99730273D01*
X152244637Y-99495241D01*
X152044759Y-99295363D01*
X151809727Y-99138320D01*
X151548574Y-99030147D01*
X151271335Y-98975000D01*
X150988665Y-98975000D01*
X150711426Y-99030147D01*
X150450273Y-99138320D01*
X150215241Y-99295363D01*
X150015363Y-99495241D01*
X149858320Y-99730273D01*
X149750147Y-99991426D01*
X149695000Y-100268665D01*
X146591452Y-100268665D01*
X146536004Y-100242429D01*
X146261816Y-100173700D01*
X145979488Y-100159783D01*
X145699870Y-100201213D01*
X145433708Y-100296397D01*
X145308486Y-100363329D01*
X145236903Y-100607298D01*
X139466694Y-100607298D01*
X139344759Y-100485363D01*
X139109727Y-100328320D01*
X138848574Y-100220147D01*
X138571335Y-100165000D01*
X138288665Y-100165000D01*
X138011426Y-100220147D01*
X137750273Y-100328320D01*
X137515241Y-100485363D01*
X137315363Y-100685241D01*
X137158320Y-100920273D01*
X137050147Y-101181426D01*
X136995000Y-101458665D01*
X133433433Y-101458665D01*
X133382928Y-101204761D01*
X133280785Y-100958167D01*
X133132497Y-100736238D01*
X132943762Y-100547503D01*
X132721833Y-100399215D01*
X132475239Y-100297072D01*
X132213456Y-100245000D01*
X131946544Y-100245000D01*
X131684761Y-100297072D01*
X131438167Y-100399215D01*
X131216238Y-100547503D01*
X131027503Y-100736238D01*
X130879215Y-100958167D01*
X130810000Y-101125266D01*
X130740785Y-100958167D01*
X130592497Y-100736238D01*
X130403762Y-100547503D01*
X130181833Y-100399215D01*
X129935239Y-100297072D01*
X129673456Y-100245000D01*
X129406544Y-100245000D01*
X129144761Y-100297072D01*
X128898167Y-100399215D01*
X128676238Y-100547503D01*
X128487503Y-100736238D01*
X128339215Y-100958167D01*
X128270000Y-101125266D01*
X128200785Y-100958167D01*
X128052497Y-100736238D01*
X127863762Y-100547503D01*
X127641833Y-100399215D01*
X127395239Y-100297072D01*
X127133456Y-100245000D01*
X126866544Y-100245000D01*
X126604761Y-100297072D01*
X126358167Y-100399215D01*
X126136238Y-100547503D01*
X125947503Y-100736238D01*
X125799215Y-100958167D01*
X125697072Y-101204761D01*
X125645000Y-101466544D01*
X117190883Y-101466544D01*
X117012550Y-101199651D01*
X116680349Y-100867450D01*
X116289721Y-100606440D01*
X115855679Y-100426654D01*
X115394902Y-100335000D01*
X114925098Y-100335000D01*
X114464321Y-100426654D01*
X114030279Y-100606440D01*
X113639651Y-100867450D01*
X113307450Y-101199651D01*
X113046440Y-101590279D01*
X112866654Y-102024321D01*
X112775000Y-102485098D01*
X106778072Y-102485098D01*
X106778072Y-99600000D01*
X106765812Y-99475518D01*
X106729502Y-99355820D01*
X106670537Y-99245506D01*
X106591185Y-99148815D01*
X106494494Y-99069463D01*
X106384180Y-99010498D01*
X106264482Y-98974188D01*
X106140000Y-98961928D01*
X102140000Y-98961928D01*
X102015518Y-98974188D01*
X101895820Y-99010498D01*
X101785506Y-99069463D01*
X101688815Y-99148815D01*
X101609463Y-99245506D01*
X101550498Y-99355820D01*
X101514188Y-99475518D01*
X101501928Y-99600000D01*
X100990000Y-99600000D01*
X100990000Y-99092279D01*
X101004722Y-98942131D01*
X101038953Y-98828754D01*
X101094555Y-98724181D01*
X101169407Y-98632404D01*
X101260664Y-98556909D01*
X101364844Y-98500581D01*
X101477976Y-98465560D01*
X101626022Y-98450000D01*
X167607721Y-98450000D01*
X167757869Y-98464722D01*
%TA.AperFunction,Conductor*%
D27*
G36*
X167757869Y-98464722D02*
G01*
X167871246Y-98498953D01*
X167975819Y-98554555D01*
X168067596Y-98629407D01*
X168143091Y-98720664D01*
X168199419Y-98824844D01*
X168234440Y-98937976D01*
X168250000Y-99086022D01*
X168250001Y-126967711D01*
X168235278Y-127117869D01*
X168201047Y-127231246D01*
X168145446Y-127335817D01*
X168070594Y-127427595D01*
X167979335Y-127503091D01*
X167875160Y-127559419D01*
X167762024Y-127594440D01*
X167613979Y-127610000D01*
X101632279Y-127610000D01*
X101482131Y-127595278D01*
X101368754Y-127561047D01*
X101264183Y-127505446D01*
X101172405Y-127430594D01*
X101096909Y-127339335D01*
X101040581Y-127235160D01*
X101005560Y-127122024D01*
X100990000Y-126973979D01*
X100990000Y-126460000D01*
X101501928Y-126460000D01*
X101514188Y-126584482D01*
X101550498Y-126704180D01*
X101609463Y-126814494D01*
X101688815Y-126911185D01*
X101785506Y-126990537D01*
X101895820Y-127049502D01*
X102015518Y-127085812D01*
X102140000Y-127098072D01*
X103854250Y-127095000D01*
X104013000Y-126936250D01*
X104013000Y-124587000D01*
X104267000Y-124587000D01*
X104267000Y-126936250D01*
X104425750Y-127095000D01*
X106140000Y-127098072D01*
X106264482Y-127085812D01*
X106384180Y-127049502D01*
X106494494Y-126990537D01*
X106591185Y-126911185D01*
X106670537Y-126814494D01*
X106719601Y-126722702D01*
X111026903Y-126722702D01*
X111098486Y-126966671D01*
X111353996Y-127087571D01*
X111628184Y-127156300D01*
X111910512Y-127170217D01*
X112190130Y-127128787D01*
X112456292Y-127033603D01*
X112581514Y-126966671D01*
X112653097Y-126722702D01*
X111840000Y-125909605D01*
X111026903Y-126722702D01*
X106719601Y-126722702D01*
X106729502Y-126704180D01*
X106765812Y-126584482D01*
X106778072Y-126460000D01*
X106776891Y-125800512D01*
X110399783Y-125800512D01*
X110441213Y-126080130D01*
X110536397Y-126346292D01*
X110603329Y-126471514D01*
X110847298Y-126543097D01*
X111660395Y-125730000D01*
X112019605Y-125730000D01*
X112832702Y-126543097D01*
X113076671Y-126471514D01*
X113197571Y-126216004D01*
X113266300Y-125941816D01*
X113280217Y-125659488D01*
X113269724Y-125588665D01*
X115405000Y-125588665D01*
X115405000Y-125871335D01*
X115460147Y-126148574D01*
X115568320Y-126409727D01*
X115725363Y-126644759D01*
X115925241Y-126844637D01*
X116160273Y-127001680D01*
X116421426Y-127109853D01*
X116698665Y-127165000D01*
X116981335Y-127165000D01*
X117258574Y-127109853D01*
X117519727Y-127001680D01*
X117754759Y-126844637D01*
X117954637Y-126644759D01*
X118111680Y-126409727D01*
X118219853Y-126148574D01*
X118275000Y-125871335D01*
X118275000Y-125588665D01*
X118219853Y-125311426D01*
X118111680Y-125050273D01*
X117954637Y-124815241D01*
X117754759Y-124615363D01*
X117519727Y-124458320D01*
X117258574Y-124350147D01*
X116981335Y-124295000D01*
X116698665Y-124295000D01*
X116421426Y-124350147D01*
X116160273Y-124458320D01*
X115925241Y-124615363D01*
X115725363Y-124815241D01*
X115568320Y-125050273D01*
X115460147Y-125311426D01*
X115405000Y-125588665D01*
X113269724Y-125588665D01*
X113238787Y-125379870D01*
X113143603Y-125113708D01*
X113076671Y-124988486D01*
X112832702Y-124916903D01*
X112019605Y-125730000D01*
X111660395Y-125730000D01*
X110847298Y-124916903D01*
X110603329Y-124988486D01*
X110482429Y-125243996D01*
X110413700Y-125518184D01*
X110399783Y-125800512D01*
X106776891Y-125800512D01*
X106775000Y-124745750D01*
X106766548Y-124737298D01*
X111026903Y-124737298D01*
X111840000Y-125550395D01*
X112653097Y-124737298D01*
X112581514Y-124493329D01*
X112326004Y-124372429D01*
X112051816Y-124303700D01*
X111769488Y-124289783D01*
X111489870Y-124331213D01*
X111223708Y-124426397D01*
X111098486Y-124493329D01*
X111026903Y-124737298D01*
X106766548Y-124737298D01*
X106616250Y-124587000D01*
X104267000Y-124587000D01*
X104013000Y-124587000D01*
X101663750Y-124587000D01*
X101505000Y-124745750D01*
X101501928Y-126460000D01*
X100990000Y-126460000D01*
X100990000Y-122460000D01*
X101501928Y-122460000D01*
X101505000Y-124174250D01*
X101663750Y-124333000D01*
X104013000Y-124333000D01*
X104013000Y-121983750D01*
X104267000Y-121983750D01*
X104267000Y-124333000D01*
X106616250Y-124333000D01*
X106775000Y-124174250D01*
X106775921Y-123660000D01*
X124291928Y-123660000D01*
X124291928Y-125260000D01*
X124304188Y-125384482D01*
X124340498Y-125504180D01*
X124399463Y-125614494D01*
X124478815Y-125711185D01*
X124575506Y-125790537D01*
X124685820Y-125849502D01*
X124805518Y-125885812D01*
X124930000Y-125898072D01*
X126530000Y-125898072D01*
X126654482Y-125885812D01*
X126774180Y-125849502D01*
X126884494Y-125790537D01*
X126981185Y-125711185D01*
X127060537Y-125614494D01*
X127119502Y-125504180D01*
X127155812Y-125384482D01*
X127168072Y-125260000D01*
X127168072Y-123660000D01*
X127155812Y-123535518D01*
X127119502Y-123415820D01*
X127060537Y-123305506D01*
X126981185Y-123208815D01*
X126884494Y-123129463D01*
X126774180Y-123070498D01*
X126654482Y-123034188D01*
X126530000Y-123021928D01*
X124930000Y-123021928D01*
X124805518Y-123034188D01*
X124685820Y-123070498D01*
X124575506Y-123129463D01*
X124478815Y-123208815D01*
X124399463Y-123305506D01*
X124340498Y-123415820D01*
X124304188Y-123535518D01*
X124291928Y-123660000D01*
X106775921Y-123660000D01*
X106778072Y-122460000D01*
X106765812Y-122335518D01*
X106729502Y-122215820D01*
X106670537Y-122105506D01*
X106591185Y-122008815D01*
X106522811Y-121952702D01*
X124916903Y-121952702D01*
X124988486Y-122196671D01*
X125243996Y-122317571D01*
X125518184Y-122386300D01*
X125800512Y-122400217D01*
X126080130Y-122358787D01*
X126346292Y-122263603D01*
X126471514Y-122196671D01*
X126543097Y-121952702D01*
X125730000Y-121139605D01*
X124916903Y-121952702D01*
X106522811Y-121952702D01*
X106494494Y-121929463D01*
X106384180Y-121870498D01*
X106264482Y-121834188D01*
X106140000Y-121821928D01*
X104425750Y-121825000D01*
X104267000Y-121983750D01*
X104013000Y-121983750D01*
X103854250Y-121825000D01*
X102140000Y-121821928D01*
X102015518Y-121834188D01*
X101895820Y-121870498D01*
X101785506Y-121929463D01*
X101688815Y-122008815D01*
X101609463Y-122105506D01*
X101550498Y-122215820D01*
X101514188Y-122335518D01*
X101501928Y-122460000D01*
X100990000Y-122460000D01*
X100990000Y-121030512D01*
X124289783Y-121030512D01*
X124331213Y-121310130D01*
X124426397Y-121576292D01*
X124493329Y-121701514D01*
X124737298Y-121773097D01*
X125550395Y-120960000D01*
X125909605Y-120960000D01*
X126722702Y-121773097D01*
X126966671Y-121701514D01*
X127087571Y-121446004D01*
X127156300Y-121171816D01*
X127170217Y-120889488D01*
X127128787Y-120609870D01*
X127033603Y-120343708D01*
X126966671Y-120218486D01*
X126722702Y-120146903D01*
X125909605Y-120960000D01*
X125550395Y-120960000D01*
X124737298Y-120146903D01*
X124493329Y-120218486D01*
X124372429Y-120473996D01*
X124303700Y-120748184D01*
X124289783Y-121030512D01*
X100990000Y-121030512D01*
X100990000Y-118480000D01*
X110484428Y-118480000D01*
X110484428Y-120280000D01*
X110496688Y-120404482D01*
X110532998Y-120524180D01*
X110591963Y-120634494D01*
X110671315Y-120731185D01*
X110768006Y-120810537D01*
X110878320Y-120869502D01*
X110998018Y-120905812D01*
X111122500Y-120918072D01*
X112397500Y-120918072D01*
X112521982Y-120905812D01*
X112641680Y-120869502D01*
X112751994Y-120810537D01*
X112828443Y-120747797D01*
X112970680Y-120823825D01*
X113210547Y-120896588D01*
X113460000Y-120921157D01*
X113709454Y-120896588D01*
X113949321Y-120823825D01*
X114170384Y-120705664D01*
X114309392Y-120591583D01*
X114350009Y-120632095D01*
X114558633Y-120771102D01*
X114790367Y-120866737D01*
X114836495Y-120873191D01*
X115033000Y-120748985D01*
X115033000Y-119507000D01*
X115013000Y-119507000D01*
X115013000Y-119253000D01*
X115033000Y-119253000D01*
X115033000Y-118011015D01*
X115287000Y-118011015D01*
X115287000Y-119253000D01*
X115307000Y-119253000D01*
X115307000Y-119507000D01*
X115287000Y-119507000D01*
X115287000Y-120748985D01*
X115483505Y-120873191D01*
X115529633Y-120866737D01*
X115761367Y-120771102D01*
X115969991Y-120632095D01*
X116010609Y-120591583D01*
X116149617Y-120705664D01*
X116370680Y-120823825D01*
X116610547Y-120896588D01*
X116860000Y-120921157D01*
X117109454Y-120896588D01*
X117349321Y-120823825D01*
X117570384Y-120705664D01*
X117709392Y-120591583D01*
X117750009Y-120632095D01*
X117958633Y-120771102D01*
X118190367Y-120866737D01*
X118236495Y-120873191D01*
X118433000Y-120748985D01*
X118433000Y-119507000D01*
X118687000Y-119507000D01*
X118687000Y-120748985D01*
X118883505Y-120873191D01*
X118929633Y-120866737D01*
X119161367Y-120771102D01*
X119369991Y-120632095D01*
X119547488Y-120455059D01*
X119687036Y-120246797D01*
X119783273Y-120015312D01*
X119792888Y-119967298D01*
X124916903Y-119967298D01*
X125730000Y-120780395D01*
X126543097Y-119967298D01*
X126471514Y-119723329D01*
X126216004Y-119602429D01*
X125941816Y-119533700D01*
X125659488Y-119519783D01*
X125379870Y-119561213D01*
X125113708Y-119656397D01*
X124988486Y-119723329D01*
X124916903Y-119967298D01*
X119792888Y-119967298D01*
X119832500Y-119769500D01*
X119832500Y-119507000D01*
X118687000Y-119507000D01*
X118433000Y-119507000D01*
X118413000Y-119507000D01*
X118413000Y-119253000D01*
X118433000Y-119253000D01*
X118433000Y-118011015D01*
X118687000Y-118011015D01*
X118687000Y-119253000D01*
X119832500Y-119253000D01*
X119832500Y-118990500D01*
X119783273Y-118744688D01*
X119687036Y-118513203D01*
X119547488Y-118304941D01*
X119369991Y-118127905D01*
X119161367Y-117988898D01*
X118929633Y-117893263D01*
X118883505Y-117886809D01*
X118687000Y-118011015D01*
X118433000Y-118011015D01*
X118236495Y-117886809D01*
X118190367Y-117893263D01*
X117958633Y-117988898D01*
X117750009Y-118127905D01*
X117709392Y-118168417D01*
X117570383Y-118054336D01*
X117349320Y-117936175D01*
X117109453Y-117863412D01*
X116860000Y-117838843D01*
X116610546Y-117863412D01*
X116370679Y-117936175D01*
X116149616Y-118054336D01*
X116010608Y-118168417D01*
X115969991Y-118127905D01*
X115761367Y-117988898D01*
X115529633Y-117893263D01*
X115483505Y-117886809D01*
X115287000Y-118011015D01*
X115033000Y-118011015D01*
X114910867Y-117933818D01*
X115381686Y-117463000D01*
X131252315Y-117463000D01*
X131965000Y-118175685D01*
X131965001Y-122221928D01*
X131750000Y-122221928D01*
X131625518Y-122234188D01*
X131505820Y-122270498D01*
X131395506Y-122329463D01*
X131298815Y-122408815D01*
X131219463Y-122505506D01*
X131160498Y-122615820D01*
X131124188Y-122735518D01*
X131111928Y-122860000D01*
X131111928Y-126060000D01*
X131124188Y-126184482D01*
X131160498Y-126304180D01*
X131219463Y-126414494D01*
X131298815Y-126511185D01*
X131395506Y-126590537D01*
X131505820Y-126649502D01*
X131625518Y-126685812D01*
X131750000Y-126698072D01*
X134950000Y-126698072D01*
X135074482Y-126685812D01*
X135194180Y-126649502D01*
X135304494Y-126590537D01*
X135401185Y-126511185D01*
X135480537Y-126414494D01*
X135539502Y-126304180D01*
X135575812Y-126184482D01*
X135588072Y-126060000D01*
X135588072Y-124934503D01*
X146405950Y-124934503D01*
X146510407Y-125278861D01*
X146710118Y-125668835D01*
X146982071Y-126012354D01*
X147315816Y-126296217D01*
X147698527Y-126509516D01*
X148115497Y-126644053D01*
X148463000Y-126532642D01*
X148463000Y-124587000D01*
X148717000Y-124587000D01*
X148717000Y-126532642D01*
X149064503Y-126644053D01*
X149481473Y-126509516D01*
X149570316Y-126460000D01*
X162461928Y-126460000D01*
X162474188Y-126584482D01*
X162510498Y-126704180D01*
X162569463Y-126814494D01*
X162648815Y-126911185D01*
X162745506Y-126990537D01*
X162855820Y-127049502D01*
X162975518Y-127085812D01*
X163100000Y-127098072D01*
X164814250Y-127095000D01*
X164973000Y-126936250D01*
X164973000Y-124587000D01*
X165227000Y-124587000D01*
X165227000Y-126936250D01*
X165385750Y-127095000D01*
X167100000Y-127098072D01*
X167224482Y-127085812D01*
X167344180Y-127049502D01*
X167454494Y-126990537D01*
X167551185Y-126911185D01*
X167630537Y-126814494D01*
X167689502Y-126704180D01*
X167725812Y-126584482D01*
X167738072Y-126460000D01*
X167735000Y-124745750D01*
X167576250Y-124587000D01*
X165227000Y-124587000D01*
X164973000Y-124587000D01*
X162623750Y-124587000D01*
X162465000Y-124745750D01*
X162461928Y-126460000D01*
X149570316Y-126460000D01*
X149864184Y-126296217D01*
X150197929Y-126012354D01*
X150469882Y-125668835D01*
X150628040Y-125360000D01*
X153401928Y-125360000D01*
X153414188Y-125484482D01*
X153450498Y-125604180D01*
X153509463Y-125714494D01*
X153588815Y-125811185D01*
X153685506Y-125890537D01*
X153795820Y-125949502D01*
X153915518Y-125985812D01*
X154040000Y-125998072D01*
X154654250Y-125995000D01*
X154813000Y-125836250D01*
X154813000Y-124587000D01*
X153563750Y-124587000D01*
X153405000Y-124745750D01*
X153401928Y-125360000D01*
X150628040Y-125360000D01*
X150669593Y-125278861D01*
X150774050Y-124934503D01*
X150662362Y-124587000D01*
X148717000Y-124587000D01*
X148463000Y-124587000D01*
X146517638Y-124587000D01*
X146405950Y-124934503D01*
X135588072Y-124934503D01*
X135588072Y-123985497D01*
X146405950Y-123985497D01*
X146517638Y-124333000D01*
X148463000Y-124333000D01*
X148463000Y-122387358D01*
X148717000Y-122387358D01*
X148717000Y-124333000D01*
X150662362Y-124333000D01*
X150774050Y-123985497D01*
X150669593Y-123641139D01*
X150628041Y-123560000D01*
X153401928Y-123560000D01*
X153405000Y-124174250D01*
X153563750Y-124333000D01*
X154813000Y-124333000D01*
X154813000Y-123083750D01*
X154654250Y-122925000D01*
X154040000Y-122921928D01*
X153915518Y-122934188D01*
X153795820Y-122970498D01*
X153685506Y-123029463D01*
X153588815Y-123108815D01*
X153509463Y-123205506D01*
X153450498Y-123315820D01*
X153414188Y-123435518D01*
X153401928Y-123560000D01*
X150628041Y-123560000D01*
X150469882Y-123251165D01*
X150197929Y-122907646D01*
X149864184Y-122623783D01*
X149481473Y-122410484D01*
X149064503Y-122275947D01*
X148717000Y-122387358D01*
X148463000Y-122387358D01*
X148115497Y-122275947D01*
X147698527Y-122410484D01*
X147315816Y-122623783D01*
X146982071Y-122907646D01*
X146710118Y-123251165D01*
X146510407Y-123641139D01*
X146405950Y-123985497D01*
X135588072Y-123985497D01*
X135588072Y-122860000D01*
X135575812Y-122735518D01*
X135539502Y-122615820D01*
X135480537Y-122505506D01*
X135401185Y-122408815D01*
X135304494Y-122329463D01*
X135194180Y-122270498D01*
X135074482Y-122234188D01*
X134950000Y-122221928D01*
X134735000Y-122221928D01*
X134735000Y-118138661D01*
X134784002Y-118187663D01*
X135068169Y-118377537D01*
X135383919Y-118508325D01*
X135719117Y-118575000D01*
X136060883Y-118575000D01*
X136396081Y-118508325D01*
X136711831Y-118377537D01*
X136995998Y-118187663D01*
X137237663Y-117945998D01*
X137427537Y-117661831D01*
X137485166Y-117522702D01*
X154126903Y-117522702D01*
X154198486Y-117766671D01*
X154453996Y-117887571D01*
X154728184Y-117956300D01*
X155010512Y-117970217D01*
X155290130Y-117928787D01*
X155556292Y-117833603D01*
X155681514Y-117766671D01*
X155753097Y-117522702D01*
X154940000Y-116709605D01*
X154126903Y-117522702D01*
X137485166Y-117522702D01*
X137558325Y-117346081D01*
X137625000Y-117010883D01*
X137625000Y-116669117D01*
X137611354Y-116600512D01*
X153499783Y-116600512D01*
X153541213Y-116880130D01*
X153636397Y-117146292D01*
X153703329Y-117271514D01*
X153947298Y-117343097D01*
X154760395Y-116530000D01*
X153947298Y-115716903D01*
X153703329Y-115788486D01*
X153582429Y-116043996D01*
X153513700Y-116318184D01*
X153499783Y-116600512D01*
X137611354Y-116600512D01*
X137558325Y-116333919D01*
X137427537Y-116018169D01*
X137237663Y-115734002D01*
X137040959Y-115537298D01*
X154126903Y-115537298D01*
X154940000Y-116350395D01*
X155753097Y-115537298D01*
X155681514Y-115293329D01*
X155426004Y-115172429D01*
X155151816Y-115103700D01*
X154869488Y-115089783D01*
X154589870Y-115131213D01*
X154323708Y-115226397D01*
X154198486Y-115293329D01*
X154126903Y-115537298D01*
X137040959Y-115537298D01*
X136995998Y-115492337D01*
X136711831Y-115302463D01*
X136396081Y-115171675D01*
X136060883Y-115105000D01*
X135719117Y-115105000D01*
X135383919Y-115171675D01*
X135068169Y-115302463D01*
X134784002Y-115492337D01*
X134542337Y-115734002D01*
X134352463Y-116018169D01*
X134221675Y-116333919D01*
X134191633Y-116484948D01*
X132853454Y-115146769D01*
X132810081Y-115093919D01*
X132599188Y-114920843D01*
X132358581Y-114792236D01*
X132097507Y-114713040D01*
X131894037Y-114693000D01*
X131894029Y-114693000D01*
X131826000Y-114686300D01*
X131757971Y-114693000D01*
X114876029Y-114693000D01*
X114808000Y-114686300D01*
X114739971Y-114693000D01*
X114739963Y-114693000D01*
X114559892Y-114710735D01*
X114536492Y-114713040D01*
X114286927Y-114788745D01*
X114275419Y-114792236D01*
X114034812Y-114920843D01*
X113925108Y-115010875D01*
X113876766Y-115050548D01*
X113876764Y-115050550D01*
X113823919Y-115093919D01*
X113780550Y-115146764D01*
X112528764Y-116398551D01*
X112475920Y-116441919D01*
X112432551Y-116494764D01*
X112432548Y-116494767D01*
X112302844Y-116652812D01*
X112174236Y-116893420D01*
X112095040Y-117154493D01*
X112068300Y-117426000D01*
X112075001Y-117494039D01*
X112075001Y-117841928D01*
X111122500Y-117841928D01*
X110998018Y-117854188D01*
X110878320Y-117890498D01*
X110768006Y-117949463D01*
X110671315Y-118028815D01*
X110591963Y-118125506D01*
X110532998Y-118235820D01*
X110496688Y-118355518D01*
X110484428Y-118480000D01*
X100990000Y-118480000D01*
X100990000Y-117061653D01*
X102827952Y-117061653D01*
X102983962Y-117377214D01*
X103358745Y-117568020D01*
X103763551Y-117682044D01*
X104182824Y-117714902D01*
X104600451Y-117665334D01*
X105000383Y-117535243D01*
X105296038Y-117377214D01*
X105452048Y-117061653D01*
X104140000Y-115749605D01*
X102827952Y-117061653D01*
X100990000Y-117061653D01*
X100990000Y-115612824D01*
X101995098Y-115612824D01*
X102044666Y-116030451D01*
X102174757Y-116430383D01*
X102332786Y-116726038D01*
X102648347Y-116882048D01*
X103960395Y-115570000D01*
X104319605Y-115570000D01*
X105631653Y-116882048D01*
X105947214Y-116726038D01*
X106138020Y-116351255D01*
X106252044Y-115946449D01*
X106284902Y-115527176D01*
X106235334Y-115109549D01*
X106105243Y-114709617D01*
X105947214Y-114413962D01*
X105631653Y-114257952D01*
X104319605Y-115570000D01*
X103960395Y-115570000D01*
X102648347Y-114257952D01*
X102332786Y-114413962D01*
X102141980Y-114788745D01*
X102027956Y-115193551D01*
X101995098Y-115612824D01*
X100990000Y-115612824D01*
X100990000Y-114078347D01*
X102827952Y-114078347D01*
X104140000Y-115390395D01*
X105452048Y-114078347D01*
X105296038Y-113762786D01*
X104921255Y-113571980D01*
X104516449Y-113457956D01*
X104097176Y-113425098D01*
X103679549Y-113474666D01*
X103279617Y-113604757D01*
X102983962Y-113762786D01*
X102827952Y-114078347D01*
X100990000Y-114078347D01*
X100990000Y-108990000D01*
X102001928Y-108990000D01*
X102001928Y-111990000D01*
X102014188Y-112114482D01*
X102050498Y-112234180D01*
X102109463Y-112344494D01*
X102188815Y-112441185D01*
X102285506Y-112520537D01*
X102395820Y-112579502D01*
X102515518Y-112615812D01*
X102640000Y-112628072D01*
X105640000Y-112628072D01*
X105764482Y-112615812D01*
X105884180Y-112579502D01*
X105994494Y-112520537D01*
X106091185Y-112441185D01*
X106170537Y-112344494D01*
X106229502Y-112234180D01*
X106230769Y-112230000D01*
X153501928Y-112230000D01*
X153501928Y-113830000D01*
X153514188Y-113954482D01*
X153550498Y-114074180D01*
X153609463Y-114184494D01*
X153688815Y-114281185D01*
X153785506Y-114360537D01*
X153895820Y-114419502D01*
X154015518Y-114455812D01*
X154140000Y-114468072D01*
X155740000Y-114468072D01*
X155864482Y-114455812D01*
X155984180Y-114419502D01*
X156094494Y-114360537D01*
X156191185Y-114281185D01*
X156270537Y-114184494D01*
X156329502Y-114074180D01*
X156345000Y-114023089D01*
X156345001Y-116221806D01*
X156338787Y-116179870D01*
X156243603Y-115913708D01*
X156176671Y-115788486D01*
X155932702Y-115716903D01*
X155119605Y-116530000D01*
X155932702Y-117343097D01*
X156176671Y-117271514D01*
X156297571Y-117016004D01*
X156345001Y-116826788D01*
X156345001Y-123174390D01*
X156291185Y-123108815D01*
X156194494Y-123029463D01*
X156084180Y-122970498D01*
X155964482Y-122934188D01*
X155840000Y-122921928D01*
X155225750Y-122925000D01*
X155067000Y-123083750D01*
X155067000Y-124333000D01*
X155087000Y-124333000D01*
X155087000Y-124587000D01*
X155067000Y-124587000D01*
X155067000Y-125836250D01*
X155225750Y-125995000D01*
X155840000Y-125998072D01*
X155964482Y-125985812D01*
X156084180Y-125949502D01*
X156194494Y-125890537D01*
X156291185Y-125811185D01*
X156370537Y-125714494D01*
X156429502Y-125604180D01*
X156435056Y-125585873D01*
X156501495Y-125652312D01*
X156752905Y-125820299D01*
X157032257Y-125936011D01*
X157328816Y-125995000D01*
X157631184Y-125995000D01*
X157927743Y-125936011D01*
X158207095Y-125820299D01*
X158458505Y-125652312D01*
X158672312Y-125438505D01*
X158840299Y-125187095D01*
X158956011Y-124907743D01*
X159015000Y-124611184D01*
X159015000Y-124308816D01*
X158956011Y-124012257D01*
X158840299Y-123732905D01*
X158672312Y-123481495D01*
X158615000Y-123424183D01*
X158615000Y-122460000D01*
X162461928Y-122460000D01*
X162465000Y-124174250D01*
X162623750Y-124333000D01*
X164973000Y-124333000D01*
X164973000Y-121983750D01*
X165227000Y-121983750D01*
X165227000Y-124333000D01*
X167576250Y-124333000D01*
X167735000Y-124174250D01*
X167738072Y-122460000D01*
X167725812Y-122335518D01*
X167689502Y-122215820D01*
X167630537Y-122105506D01*
X167551185Y-122008815D01*
X167454494Y-121929463D01*
X167344180Y-121870498D01*
X167224482Y-121834188D01*
X167100000Y-121821928D01*
X165385750Y-121825000D01*
X165227000Y-121983750D01*
X164973000Y-121983750D01*
X164814250Y-121825000D01*
X163100000Y-121821928D01*
X162975518Y-121834188D01*
X162855820Y-121870498D01*
X162745506Y-121929463D01*
X162648815Y-122008815D01*
X162569463Y-122105506D01*
X162510498Y-122215820D01*
X162474188Y-122335518D01*
X162461928Y-122460000D01*
X158615000Y-122460000D01*
X158615000Y-117070000D01*
X162961928Y-117070000D01*
X162974188Y-117194482D01*
X163010498Y-117314180D01*
X163069463Y-117424494D01*
X163148815Y-117521185D01*
X163245506Y-117600537D01*
X163355820Y-117659502D01*
X163475518Y-117695812D01*
X163600000Y-117708072D01*
X164814250Y-117705000D01*
X164973000Y-117546250D01*
X164973000Y-115697000D01*
X165227000Y-115697000D01*
X165227000Y-117546250D01*
X165385750Y-117705000D01*
X166600000Y-117708072D01*
X166724482Y-117695812D01*
X166844180Y-117659502D01*
X166954494Y-117600537D01*
X167051185Y-117521185D01*
X167130537Y-117424494D01*
X167189502Y-117314180D01*
X167225812Y-117194482D01*
X167238072Y-117070000D01*
X167235000Y-115855750D01*
X167076250Y-115697000D01*
X165227000Y-115697000D01*
X164973000Y-115697000D01*
X163123750Y-115697000D01*
X162965000Y-115855750D01*
X162961928Y-117070000D01*
X158615000Y-117070000D01*
X158615000Y-114070000D01*
X162961928Y-114070000D01*
X162965000Y-115284250D01*
X163123750Y-115443000D01*
X164973000Y-115443000D01*
X164973000Y-113593750D01*
X165227000Y-113593750D01*
X165227000Y-115443000D01*
X167076250Y-115443000D01*
X167235000Y-115284250D01*
X167238072Y-114070000D01*
X167225812Y-113945518D01*
X167189502Y-113825820D01*
X167130537Y-113715506D01*
X167051185Y-113618815D01*
X166954494Y-113539463D01*
X166844180Y-113480498D01*
X166724482Y-113444188D01*
X166600000Y-113431928D01*
X165385750Y-113435000D01*
X165227000Y-113593750D01*
X164973000Y-113593750D01*
X164814250Y-113435000D01*
X163600000Y-113431928D01*
X163475518Y-113444188D01*
X163355820Y-113480498D01*
X163245506Y-113539463D01*
X163148815Y-113618815D01*
X163069463Y-113715506D01*
X163010498Y-113825820D01*
X162974188Y-113945518D01*
X162961928Y-114070000D01*
X158615000Y-114070000D01*
X158615000Y-110279721D01*
X162965000Y-110279721D01*
X162965000Y-110700279D01*
X163047047Y-111112756D01*
X163207988Y-111501302D01*
X163441637Y-111850983D01*
X163739017Y-112148363D01*
X164088698Y-112382012D01*
X164477244Y-112542953D01*
X164889721Y-112625000D01*
X165310279Y-112625000D01*
X165722756Y-112542953D01*
X166111302Y-112382012D01*
X166460983Y-112148363D01*
X166758363Y-111850983D01*
X166992012Y-111501302D01*
X167152953Y-111112756D01*
X167235000Y-110700279D01*
X167235000Y-110279721D01*
X167152953Y-109867244D01*
X166992012Y-109478698D01*
X166758363Y-109129017D01*
X166460983Y-108831637D01*
X166111302Y-108597988D01*
X165722756Y-108437047D01*
X165310279Y-108355000D01*
X164889721Y-108355000D01*
X164477244Y-108437047D01*
X164088698Y-108597988D01*
X163739017Y-108831637D01*
X163441637Y-109129017D01*
X163207988Y-109478698D01*
X163047047Y-109867244D01*
X162965000Y-110279721D01*
X158615000Y-110279721D01*
X158615000Y-108834284D01*
X158751680Y-108629727D01*
X158859853Y-108368574D01*
X158915000Y-108091335D01*
X158915000Y-107808665D01*
X158859853Y-107531426D01*
X158751680Y-107270273D01*
X158594637Y-107035241D01*
X158394759Y-106835363D01*
X158159727Y-106678320D01*
X157898574Y-106570147D01*
X157621335Y-106515000D01*
X157338665Y-106515000D01*
X157061426Y-106570147D01*
X156800273Y-106678320D01*
X156565241Y-106835363D01*
X156365363Y-107035241D01*
X156208320Y-107270273D01*
X156100147Y-107531426D01*
X156045000Y-107808665D01*
X156045000Y-108091335D01*
X156100147Y-108368574D01*
X156208320Y-108629727D01*
X156345000Y-108834284D01*
X156345000Y-112036911D01*
X156329502Y-111985820D01*
X156270537Y-111875506D01*
X156191185Y-111778815D01*
X156094494Y-111699463D01*
X155984180Y-111640498D01*
X155864482Y-111604188D01*
X155740000Y-111591928D01*
X154140000Y-111591928D01*
X154015518Y-111604188D01*
X153895820Y-111640498D01*
X153785506Y-111699463D01*
X153688815Y-111778815D01*
X153609463Y-111875506D01*
X153550498Y-111985820D01*
X153514188Y-112105518D01*
X153501928Y-112230000D01*
X106230769Y-112230000D01*
X106265812Y-112114482D01*
X106278072Y-111990000D01*
X106278072Y-108990000D01*
X106265812Y-108865518D01*
X106229502Y-108745820D01*
X106170537Y-108635506D01*
X106091185Y-108538815D01*
X105994494Y-108459463D01*
X105884180Y-108400498D01*
X105764482Y-108364188D01*
X105640000Y-108351928D01*
X102640000Y-108351928D01*
X102515518Y-108364188D01*
X102395820Y-108400498D01*
X102285506Y-108459463D01*
X102188815Y-108538815D01*
X102109463Y-108635506D01*
X102050498Y-108745820D01*
X102014188Y-108865518D01*
X102001928Y-108990000D01*
X100990000Y-108990000D01*
X100990000Y-108269117D01*
X134155000Y-108269117D01*
X134155000Y-108610883D01*
X134221675Y-108946081D01*
X134352463Y-109261831D01*
X134542337Y-109545998D01*
X134784002Y-109787663D01*
X135068169Y-109977537D01*
X135383919Y-110108325D01*
X135719117Y-110175000D01*
X136060883Y-110175000D01*
X136396081Y-110108325D01*
X136711831Y-109977537D01*
X136995998Y-109787663D01*
X137237663Y-109545998D01*
X137427537Y-109261831D01*
X137558325Y-108946081D01*
X137625000Y-108610883D01*
X137625000Y-108269117D01*
X137558325Y-107933919D01*
X137427537Y-107618169D01*
X137237663Y-107334002D01*
X136995998Y-107092337D01*
X136711831Y-106902463D01*
X136396081Y-106771675D01*
X136060883Y-106705000D01*
X135719117Y-106705000D01*
X135383919Y-106771675D01*
X135068169Y-106902463D01*
X134784002Y-107092337D01*
X134542337Y-107334002D01*
X134352463Y-107618169D01*
X134221675Y-107933919D01*
X134155000Y-108269117D01*
X100990000Y-108269117D01*
X100990000Y-106402702D01*
X150316903Y-106402702D01*
X150388486Y-106646671D01*
X150643996Y-106767571D01*
X150918184Y-106836300D01*
X151200512Y-106850217D01*
X151480130Y-106808787D01*
X151746292Y-106713603D01*
X151871514Y-106646671D01*
X151943097Y-106402702D01*
X151130000Y-105589605D01*
X150316903Y-106402702D01*
X100990000Y-106402702D01*
X100990000Y-105480512D01*
X149689783Y-105480512D01*
X149731213Y-105760130D01*
X149826397Y-106026292D01*
X149893329Y-106151514D01*
X150137298Y-106223097D01*
X150950395Y-105410000D01*
X151309605Y-105410000D01*
X152122702Y-106223097D01*
X152366671Y-106151514D01*
X152487571Y-105896004D01*
X152556300Y-105621816D01*
X152570217Y-105339488D01*
X152528787Y-105059870D01*
X152433603Y-104793708D01*
X152366671Y-104668486D01*
X152122702Y-104596903D01*
X151309605Y-105410000D01*
X150950395Y-105410000D01*
X150137298Y-104596903D01*
X149893329Y-104668486D01*
X149772429Y-104923996D01*
X149703700Y-105198184D01*
X149689783Y-105480512D01*
X100990000Y-105480512D01*
X100990000Y-99600000D01*
X101501928Y-99600000D01*
X101501928Y-103600000D01*
X101514188Y-103724482D01*
X101550498Y-103844180D01*
X101609463Y-103954494D01*
X101688815Y-104051185D01*
X101785506Y-104130537D01*
X101895820Y-104189502D01*
X102015518Y-104225812D01*
X102140000Y-104238072D01*
X106140000Y-104238072D01*
X106264482Y-104225812D01*
X106384180Y-104189502D01*
X106494494Y-104130537D01*
X106591185Y-104051185D01*
X106670537Y-103954494D01*
X106729502Y-103844180D01*
X106765812Y-103724482D01*
X106778072Y-103600000D01*
X106778072Y-102485098D01*
X112775000Y-102485098D01*
X112775000Y-102954902D01*
X112866654Y-103415679D01*
X113046440Y-103849721D01*
X113307450Y-104240349D01*
X113639651Y-104572550D01*
X114030279Y-104833560D01*
X114464321Y-105013346D01*
X114925098Y-105105000D01*
X115394902Y-105105000D01*
X115855679Y-105013346D01*
X116289721Y-104833560D01*
X116680349Y-104572550D01*
X116835601Y-104417298D01*
X150316903Y-104417298D01*
X151130000Y-105230395D01*
X151943097Y-104417298D01*
X151871514Y-104173329D01*
X151616004Y-104052429D01*
X151341816Y-103983700D01*
X151059488Y-103969783D01*
X150779870Y-104011213D01*
X150513708Y-104106397D01*
X150388486Y-104173329D01*
X150316903Y-104417298D01*
X116835601Y-104417298D01*
X117012550Y-104240349D01*
X117273560Y-103849721D01*
X117453346Y-103415679D01*
X117545000Y-102954902D01*
X117545000Y-102485098D01*
X117453346Y-102024321D01*
X117273560Y-101590279D01*
X117190883Y-101466544D01*
X125645000Y-101466544D01*
X125645000Y-101733456D01*
X125697072Y-101995239D01*
X125799215Y-102241833D01*
X125947503Y-102463762D01*
X126136238Y-102652497D01*
X126358167Y-102800785D01*
X126604761Y-102902928D01*
X126866544Y-102955000D01*
X127133456Y-102955000D01*
X127395239Y-102902928D01*
X127641833Y-102800785D01*
X127863762Y-102652497D01*
X128052497Y-102463762D01*
X128200785Y-102241833D01*
X128270000Y-102074734D01*
X128339215Y-102241833D01*
X128487503Y-102463762D01*
X128676238Y-102652497D01*
X128898167Y-102800785D01*
X129144761Y-102902928D01*
X129406544Y-102955000D01*
X129673456Y-102955000D01*
X129935239Y-102902928D01*
X130181833Y-102800785D01*
X130403762Y-102652497D01*
X130592497Y-102463762D01*
X130740785Y-102241833D01*
X130810000Y-102074734D01*
X130879215Y-102241833D01*
X131027503Y-102463762D01*
X131216238Y-102652497D01*
X131438167Y-102800785D01*
X131684761Y-102902928D01*
X131946544Y-102955000D01*
X132213456Y-102955000D01*
X132475239Y-102902928D01*
X132721833Y-102800785D01*
X132943762Y-102652497D01*
X133132497Y-102463762D01*
X133280785Y-102241833D01*
X133382928Y-101995239D01*
X133435000Y-101733456D01*
X133435000Y-101466544D01*
X133433433Y-101458665D01*
X136995000Y-101458665D01*
X136995000Y-101741335D01*
X137050147Y-102018574D01*
X137158320Y-102279727D01*
X137315363Y-102514759D01*
X137515241Y-102714637D01*
X137750273Y-102871680D01*
X138011426Y-102979853D01*
X138288665Y-103035000D01*
X138571335Y-103035000D01*
X138848574Y-102979853D01*
X139109727Y-102871680D01*
X139344759Y-102714637D01*
X139466694Y-102592702D01*
X145236903Y-102592702D01*
X145308486Y-102836671D01*
X145563996Y-102957571D01*
X145838184Y-103026300D01*
X146120512Y-103040217D01*
X146400130Y-102998787D01*
X146666292Y-102903603D01*
X146791514Y-102836671D01*
X146863097Y-102592702D01*
X146050000Y-101779605D01*
X145236903Y-102592702D01*
X139466694Y-102592702D01*
X139544637Y-102514759D01*
X139701680Y-102279727D01*
X139809853Y-102018574D01*
X139865000Y-101741335D01*
X139865000Y-101670512D01*
X144609783Y-101670512D01*
X144651213Y-101950130D01*
X144746397Y-102216292D01*
X144813329Y-102341514D01*
X145057298Y-102413097D01*
X145870395Y-101600000D01*
X146229605Y-101600000D01*
X147042702Y-102413097D01*
X147286671Y-102341514D01*
X147407571Y-102086004D01*
X147476300Y-101811816D01*
X147490217Y-101529488D01*
X147448787Y-101249870D01*
X147353603Y-100983708D01*
X147286671Y-100858486D01*
X147042702Y-100786903D01*
X146229605Y-101600000D01*
X145870395Y-101600000D01*
X145057298Y-100786903D01*
X144813329Y-100858486D01*
X144692429Y-101113996D01*
X144623700Y-101388184D01*
X144609783Y-101670512D01*
X139865000Y-101670512D01*
X139865000Y-101458665D01*
X139809853Y-101181426D01*
X139701680Y-100920273D01*
X139544637Y-100685241D01*
X139466694Y-100607298D01*
X145236903Y-100607298D01*
X146050000Y-101420395D01*
X146863097Y-100607298D01*
X146791514Y-100363329D01*
X146591452Y-100268665D01*
X149695000Y-100268665D01*
X149695000Y-100551335D01*
X149750147Y-100828574D01*
X149858320Y-101089727D01*
X150015363Y-101324759D01*
X150215241Y-101524637D01*
X150450273Y-101681680D01*
X150711426Y-101789853D01*
X150988665Y-101845000D01*
X151271335Y-101845000D01*
X151548574Y-101789853D01*
X151809727Y-101681680D01*
X152044759Y-101524637D01*
X152244637Y-101324759D01*
X152401680Y-101089727D01*
X152509853Y-100828574D01*
X152565000Y-100551335D01*
X152565000Y-100268665D01*
X152549087Y-100188665D01*
X156045000Y-100188665D01*
X156045000Y-100471335D01*
X156100147Y-100748574D01*
X156208320Y-101009727D01*
X156365363Y-101244759D01*
X156565241Y-101444637D01*
X156800273Y-101601680D01*
X157061426Y-101709853D01*
X157338665Y-101765000D01*
X157621335Y-101765000D01*
X157898574Y-101709853D01*
X158159727Y-101601680D01*
X158394759Y-101444637D01*
X158594637Y-101244759D01*
X158751680Y-101009727D01*
X158859853Y-100748574D01*
X158915000Y-100471335D01*
X158915000Y-100188665D01*
X158859853Y-99911426D01*
X158751680Y-99650273D01*
X158718089Y-99600000D01*
X162461928Y-99600000D01*
X162461928Y-103600000D01*
X162474188Y-103724482D01*
X162510498Y-103844180D01*
X162569463Y-103954494D01*
X162648815Y-104051185D01*
X162745506Y-104130537D01*
X162855820Y-104189502D01*
X162975518Y-104225812D01*
X163100000Y-104238072D01*
X167100000Y-104238072D01*
X167224482Y-104225812D01*
X167344180Y-104189502D01*
X167454494Y-104130537D01*
X167551185Y-104051185D01*
X167630537Y-103954494D01*
X167689502Y-103844180D01*
X167725812Y-103724482D01*
X167738072Y-103600000D01*
X167738072Y-99600000D01*
X167725812Y-99475518D01*
X167689502Y-99355820D01*
X167630537Y-99245506D01*
X167551185Y-99148815D01*
X167454494Y-99069463D01*
X167344180Y-99010498D01*
X167224482Y-98974188D01*
X167100000Y-98961928D01*
X163100000Y-98961928D01*
X162975518Y-98974188D01*
X162855820Y-99010498D01*
X162745506Y-99069463D01*
X162648815Y-99148815D01*
X162569463Y-99245506D01*
X162510498Y-99355820D01*
X162474188Y-99475518D01*
X162461928Y-99600000D01*
X158718089Y-99600000D01*
X158594637Y-99415241D01*
X158394759Y-99215363D01*
X158159727Y-99058320D01*
X157898574Y-98950147D01*
X157621335Y-98895000D01*
X157338665Y-98895000D01*
X157061426Y-98950147D01*
X156800273Y-99058320D01*
X156565241Y-99215363D01*
X156365363Y-99415241D01*
X156208320Y-99650273D01*
X156100147Y-99911426D01*
X156045000Y-100188665D01*
X152549087Y-100188665D01*
X152509853Y-99991426D01*
X152401680Y-99730273D01*
X152244637Y-99495241D01*
X152044759Y-99295363D01*
X151809727Y-99138320D01*
X151548574Y-99030147D01*
X151271335Y-98975000D01*
X150988665Y-98975000D01*
X150711426Y-99030147D01*
X150450273Y-99138320D01*
X150215241Y-99295363D01*
X150015363Y-99495241D01*
X149858320Y-99730273D01*
X149750147Y-99991426D01*
X149695000Y-100268665D01*
X146591452Y-100268665D01*
X146536004Y-100242429D01*
X146261816Y-100173700D01*
X145979488Y-100159783D01*
X145699870Y-100201213D01*
X145433708Y-100296397D01*
X145308486Y-100363329D01*
X145236903Y-100607298D01*
X139466694Y-100607298D01*
X139344759Y-100485363D01*
X139109727Y-100328320D01*
X138848574Y-100220147D01*
X138571335Y-100165000D01*
X138288665Y-100165000D01*
X138011426Y-100220147D01*
X137750273Y-100328320D01*
X137515241Y-100485363D01*
X137315363Y-100685241D01*
X137158320Y-100920273D01*
X137050147Y-101181426D01*
X136995000Y-101458665D01*
X133433433Y-101458665D01*
X133382928Y-101204761D01*
X133280785Y-100958167D01*
X133132497Y-100736238D01*
X132943762Y-100547503D01*
X132721833Y-100399215D01*
X132475239Y-100297072D01*
X132213456Y-100245000D01*
X131946544Y-100245000D01*
X131684761Y-100297072D01*
X131438167Y-100399215D01*
X131216238Y-100547503D01*
X131027503Y-100736238D01*
X130879215Y-100958167D01*
X130810000Y-101125266D01*
X130740785Y-100958167D01*
X130592497Y-100736238D01*
X130403762Y-100547503D01*
X130181833Y-100399215D01*
X129935239Y-100297072D01*
X129673456Y-100245000D01*
X129406544Y-100245000D01*
X129144761Y-100297072D01*
X128898167Y-100399215D01*
X128676238Y-100547503D01*
X128487503Y-100736238D01*
X128339215Y-100958167D01*
X128270000Y-101125266D01*
X128200785Y-100958167D01*
X128052497Y-100736238D01*
X127863762Y-100547503D01*
X127641833Y-100399215D01*
X127395239Y-100297072D01*
X127133456Y-100245000D01*
X126866544Y-100245000D01*
X126604761Y-100297072D01*
X126358167Y-100399215D01*
X126136238Y-100547503D01*
X125947503Y-100736238D01*
X125799215Y-100958167D01*
X125697072Y-101204761D01*
X125645000Y-101466544D01*
X117190883Y-101466544D01*
X117012550Y-101199651D01*
X116680349Y-100867450D01*
X116289721Y-100606440D01*
X115855679Y-100426654D01*
X115394902Y-100335000D01*
X114925098Y-100335000D01*
X114464321Y-100426654D01*
X114030279Y-100606440D01*
X113639651Y-100867450D01*
X113307450Y-101199651D01*
X113046440Y-101590279D01*
X112866654Y-102024321D01*
X112775000Y-102485098D01*
X106778072Y-102485098D01*
X106778072Y-99600000D01*
X106765812Y-99475518D01*
X106729502Y-99355820D01*
X106670537Y-99245506D01*
X106591185Y-99148815D01*
X106494494Y-99069463D01*
X106384180Y-99010498D01*
X106264482Y-98974188D01*
X106140000Y-98961928D01*
X102140000Y-98961928D01*
X102015518Y-98974188D01*
X101895820Y-99010498D01*
X101785506Y-99069463D01*
X101688815Y-99148815D01*
X101609463Y-99245506D01*
X101550498Y-99355820D01*
X101514188Y-99475518D01*
X101501928Y-99600000D01*
X100990000Y-99600000D01*
X100990000Y-99092279D01*
X101004722Y-98942131D01*
X101038953Y-98828754D01*
X101094555Y-98724181D01*
X101169407Y-98632404D01*
X101260664Y-98556909D01*
X101364844Y-98500581D01*
X101477976Y-98465560D01*
X101626022Y-98450000D01*
X167607721Y-98450000D01*
X167757869Y-98464722D01*
G37*
%TD.AperFunction*%
%TD*%
M02*
