M48
; DRILL file {KiCad (5.1.10)-1} date 09/01/21 14:56:26
; FORMAT={-:-/ absolute / metric / decimal}
; #@! TF.CreationDate,2021-09-01T14:56:26+02:00
; #@! TF.GenerationSoftware,Kicad,Pcbnew,(5.1.10)-1
; #@! TF.FileFunction,Plated,1,2,PTH
FMAT,2
METRIC
T1C0.800
T2C0.900
T3C1.100
T4C1.520
T5C1.600
T6C2.000
%
G90
G05
T1
X111.84Y-125.73
X116.84Y-125.73
X125.73Y-120.96
X125.73Y-124.46
X127.0Y-101.6
X129.54Y-101.6
X132.08Y-101.6
X138.43Y-101.6
X146.05Y-101.6
X151.13Y-100.41
X151.13Y-105.41
X154.94Y-113.03
X154.94Y-116.53
X157.48Y-100.33
X157.48Y-107.95
T2
X154.94Y-124.46
X157.48Y-124.46
T3
X111.76Y-119.38
X113.46Y-119.38
X115.16Y-119.38
X116.86Y-119.38
X118.56Y-119.38
X135.89Y-108.44
X135.89Y-116.84
T4
X104.14Y-110.49
X104.14Y-115.57
X165.1Y-110.49
X165.1Y-115.57
T5
X133.35Y-124.46
X148.59Y-124.46
T6
X104.14Y-101.6
X104.14Y-124.46
X165.1Y-101.6
X165.1Y-124.46
T0
M30
